<mxfile host="app.diagrams.net" modified="2022-07-27T09:21:45.470Z" agent="5.0 (Windows NT 10.0; WOW64) AppleWebKit/537.36 (KHTML, like Gecko) Chrome/80.0.3987.87 Safari/537.36 SE 2.X MetaSr 1.0" etag="A8NwK_09Tc2ITrCS5uBz" version="20.2.0" type="github">
  <diagram id="5r71udcWuMFelqzh1lrb" name="第 1 页">
    <mxGraphModel dx="3475" dy="2128" grid="0" gridSize="10" guides="1" tooltips="1" connect="1" arrows="1" fold="1" page="0" pageScale="1" pageWidth="827" pageHeight="1169" math="0" shadow="0">
      <root>
        <mxCell id="0" />
        <mxCell id="1" parent="0" />
        <mxCell id="zO9z0KWeAWTrWtClQLV5-104" value="" style="%3CmxGraphModel%3E%3Croot%3E%3CmxCell%20id%3D%220%22%2F%3E%3CmxCell%20id%3D%221%22%20parent%3D%220%22%2F%3E%3CmxCell%20id%3D%222%22%20value%3D%22%26lt%3Bfont%20style%3D%26quot%3Bfont-size%3A%2038px%3B%26quot%3B%26gt%3B%E4%B8%8A%E7%BA%BF%E9%98%9F%E5%88%97%E6%9C%8D%E5%8A%A1%E5%99%A8%26lt%3B%2Ffont%26gt%3B%22%20style%3D%22rounded%3D0%3BwhiteSpace%3Dwrap%3Bhtml%3D1%3BfontSize%3D30%3BstrokeWidth%3D4%3B%22%20vertex%3D%221%22%20parent%3D%221%22%3E%3CmxGeometry%20x%3D%221793.64%22%20y%3D%225951%22%20width%3D%22346%22%20height%3D%22141%22%20as%3D%22geometry%22%2F%3E%3C%2FmxCell%3E%3C%2Froot%3E%3C%2FmxGraphModel%3E;fontSize=30;fillColor=#990000;strokeColor=#A50040;fontColor=#ffffff;rounded=0;strokeWidth=4;" vertex="1" parent="1">
          <mxGeometry x="1704" y="8701" width="467" height="407" as="geometry" />
        </mxCell>
        <mxCell id="hg0nlkvwgH0ZP0_xZrHD-2" style="edgeStyle=orthogonalEdgeStyle;rounded=0;orthogonalLoop=1;jettySize=auto;html=1;entryX=0;entryY=0.5;entryDx=0;entryDy=0;fontSize=49;fontColor=#000000;strokeWidth=7;" parent="1" source="hg0nlkvwgH0ZP0_xZrHD-20" target="hg0nlkvwgH0ZP0_xZrHD-18" edge="1">
          <mxGeometry relative="1" as="geometry">
            <mxPoint x="2628.53" y="3005" as="sourcePoint" />
          </mxGeometry>
        </mxCell>
        <mxCell id="hg0nlkvwgH0ZP0_xZrHD-4" style="edgeStyle=orthogonalEdgeStyle;rounded=0;orthogonalLoop=1;jettySize=auto;html=1;entryX=0;entryY=0.5;entryDx=0;entryDy=0;fontSize=46;fontColor=#000000;strokeWidth=7;" parent="1" source="hg0nlkvwgH0ZP0_xZrHD-5" target="hg0nlkvwgH0ZP0_xZrHD-20" edge="1">
          <mxGeometry relative="1" as="geometry">
            <mxPoint x="1713" y="3004.5" as="targetPoint" />
          </mxGeometry>
        </mxCell>
        <mxCell id="hg0nlkvwgH0ZP0_xZrHD-5" value="" style="shape=image;verticalLabelPosition=bottom;labelBackgroundColor=default;verticalAlign=top;aspect=fixed;imageAspect=0;image=data:image/svg+xml,PHN2ZyB4bWxuczp4bGluaz0iaHR0cDovL3d3dy53My5vcmcvMTk5OS94bGluayIgeG1sbnM9Imh0dHA6Ly93d3cudzMub3JnLzIwMDAvc3ZnIiBoZWlnaHQ9IjIwMCIgd2lkdGg9IjIwMCIgdmVyc2lvbj0iMS4xIiB2aWV3Qm94PSIwIDAgMTAyNCAxMDI0IiBjbGFzcz0iaWNvbiI+PGRlZnM+PHN0eWxlIHR5cGU9InRleHQvY3NzIj5AZm9udC1mYWNlIHsgZm9udC1mYW1pbHk6IGZlZWRiYWNrLWljb25mb250OyBzcmM6IHVybCgiLy9hdC5hbGljZG4uY29tL3QvZm9udF8xMDMxMTU4X3U2OXc4eWh4ZHUud29mZjI/dD0xNjMwMDMzNzU5OTQ0IikgZm9ybWF0KCJ3b2ZmMiIpLCB1cmwoIi8vYXQuYWxpY2RuLmNvbS90L2ZvbnRfMTAzMTE1OF91Njl3OHloeGR1LndvZmY/dD0xNjMwMDMzNzU5OTQ0IikgZm9ybWF0KCJ3b2ZmIiksIHVybCgiLy9hdC5hbGljZG4uY29tL3QvZm9udF8xMDMxMTU4X3U2OXc4eWh4ZHUudHRmP3Q9MTYzMDAzMzc1OTk0NCIpIGZvcm1hdCgidHJ1ZXR5cGUiKTsgfSYjeGE7PC9zdHlsZT48L2RlZnM+PHBhdGggZD0iTTk2MCA0Mi42NjY2NjdINjRjLTEyLjggMC0yMS4zMzMzMzMgOC41MzMzMzMtMjEuMzMzMzMzIDIxLjMzMzMzM3Y4OTZjMCAxMi44IDguNTMzMzMzIDIxLjMzMzMzMyAyMS4zMzMzMzMgMjEuMzMzMzMzaDg5NmMxMi44IDAgMjEuMzMzMzMzLTguNTMzMzMzIDIxLjMzMzMzMy0yMS4zMzMzMzNWNjRjMC0xMi44LTguNTMzMzMzLTIxLjMzMzMzMy0yMS4zMzMzMzMtMjEuMzMzMzMzeiBtLTIxLjMzMzMzMyA4OTZIODUuMzMzMzMzVjY4Mi42NjY2NjdoODUzLjMzMzMzNHYyNTZ6IG0wLTI5OC42NjY2NjdIODUuMzMzMzMzVjM4NGg4NTMuMzMzMzM0djI1NnogbTAtMjk4LjY2NjY2N0g4NS4zMzMzMzNWODUuMzMzMzMzaDg1My4zMzMzMzR2MjU2ek0yOTguNjY2NjY3IDc2OGgtNDIuNjY2NjY3djg1LjMzMzMzM2g0Mi42NjY2Njd2LTg1LjMzMzMzM3ogbS04NS4zMzMzMzQgMEgxNzAuNjY2NjY3djg1LjMzMzMzM2g0Mi42NjY2NjZ2LTg1LjMzMzMzM3ogbTY2MS4zMzMzMzQgMjEuMzMzMzMzaC0xNzAuNjY2NjY3djQyLjY2NjY2N2gxNzAuNjY2NjY3di00Mi42NjY2Njd6TTI5OC42NjY2NjcgNDY5LjMzMzMzM2gtNDIuNjY2NjY3djg1LjMzMzMzNGg0Mi42NjY2Njd2LTg1LjMzMzMzNHogbS04NS4zMzMzMzQgMEgxNzAuNjY2NjY3djg1LjMzMzMzNGg0Mi42NjY2NjZ2LTg1LjMzMzMzNHogbTY2MS4zMzMzMzQgMjEuMzMzMzM0aC0xNzAuNjY2NjY3djQyLjY2NjY2NmgxNzAuNjY2NjY3di00Mi42NjY2NjZ6TTI5OC42NjY2NjcgMTcwLjY2NjY2N2gtNDIuNjY2NjY3djg1LjMzMzMzM2g0Mi42NjY2NjdWMTcwLjY2NjY2N3ogbS04NS4zMzMzMzQgMEgxNzAuNjY2NjY3djg1LjMzMzMzM2g0Mi42NjY2NjZWMTcwLjY2NjY2N3ogbTY2MS4zMzMzMzQgMjEuMzMzMzMzaC0xNzAuNjY2NjY3djQyLjY2NjY2N2gxNzAuNjY2NjY3VjE5MnoiLz48L3N2Zz4=;" parent="1" vertex="1">
          <mxGeometry x="1479.48" y="2861.5" width="287" height="287" as="geometry" />
        </mxCell>
        <mxCell id="hg0nlkvwgH0ZP0_xZrHD-6" value="" style="shape=image;verticalLabelPosition=bottom;labelBackgroundColor=default;verticalAlign=top;aspect=fixed;imageAspect=0;image=data:image/svg+xml,PHN2ZyB4bWxuczp4bGluaz0iaHR0cDovL3d3dy53My5vcmcvMTk5OS94bGluayIgeG1sbnM9Imh0dHA6Ly93d3cudzMub3JnLzIwMDAvc3ZnIiBoZWlnaHQ9IjIwMCIgd2lkdGg9IjIwMCIgdmVyc2lvbj0iMS4xIiB2aWV3Qm94PSIwIDAgMTAyNCAxMDI0IiBjbGFzcz0iaWNvbiI+PGRlZnM+PHN0eWxlIHR5cGU9InRleHQvY3NzIj5AZm9udC1mYWNlIHsgZm9udC1mYW1pbHk6IGZlZWRiYWNrLWljb25mb250OyBzcmM6IHVybCgiLy9hdC5hbGljZG4uY29tL3QvZm9udF8xMDMxMTU4X3U2OXc4eWh4ZHUud29mZjI/dD0xNjMwMDMzNzU5OTQ0IikgZm9ybWF0KCJ3b2ZmMiIpLCB1cmwoIi8vYXQuYWxpY2RuLmNvbS90L2ZvbnRfMTAzMTE1OF91Njl3OHloeGR1LndvZmY/dD0xNjMwMDMzNzU5OTQ0IikgZm9ybWF0KCJ3b2ZmIiksIHVybCgiLy9hdC5hbGljZG4uY29tL3QvZm9udF8xMDMxMTU4X3U2OXc4eWh4ZHUudHRmP3Q9MTYzMDAzMzc1OTk0NCIpIGZvcm1hdCgidHJ1ZXR5cGUiKTsgfSYjeGE7PC9zdHlsZT48L2RlZnM+PHBhdGggZD0iTTg4Ny4zNzYgNDgxLjA1M2EyOS4wNTcgMjkuMDU3IDAgMCAwLTI5LjEyNyAyOS4xMjdjMCAxODkuMDg0LTE1My43NjcgMzQyLjg1LTM0Mi44NSAzNDIuODVzLTM0Mi44NS0xNTMuNzY3LTM0Mi44NS0zNDIuODVjMC0xNi4xNDItMTIuOTg2LTI5LjEyNy0yOS4xMjctMjkuMTI3cy0yOS4xMjcgMTIuOTg2LTI5LjEyNyAyOS4xMjdjMCA1NC4xMjggMTAuNTU5IDEwNi42NzggMzEuNTU0IDE1Ni4xOTQgMjAuMTQ2IDQ3LjgxOCA0OS4xNTIgOTAuNjU4IDg1LjkyNSAxMjcuNTUzIDM2Ljc3MyAzNi43NzMgNzkuNzM1IDY1Ljc3OCAxMjcuNTUzIDg1LjkyNSA0OS41MTYgMjAuODc1IDEwMi4wNjYgMzEuNTU0IDE1Ni4xOTQgMzEuNTU0IDU0LjEyOCAwIDEwNi42NzgtMTAuNTU5IDE1Ni4xOTQtMzEuNTU0IDQ3LjgxOC0yMC4xNDYgOTAuNjU4LTQ5LjE1MiAxMjcuNTUzLTg1LjkyNSAzNi43NzMtMzYuNzczIDY1Ljc3OC03OS43MzUgODUuOTI1LTEyNy41NTMgMjAuODc1LTQ5LjUxNiAzMS41NTQtMTAyLjA2NiAzMS41NTQtMTU2LjE5NC0wLjI0Mi0xNi4xNDItMTMuMjI5LTI5LjEyNy0yOS4zNy0yOS4xMjd6Ii8+PHBhdGggZD0iTTMzMS44OTggMzQ5LjEzMWM3LjQwNCAwIDE0LjkyOC0yLjc5MSAyMC42MzEtOC40OTZsMTMwLjIyMi0xMzAuMjIyVjY5My42OGMwIDE2LjE0MiAxMi45ODYgMjkuMTI3IDI5LjEyNyAyOS4xMjdzMjkuMTI3LTEyLjk4NiAyOS4xMjctMjkuMTI3VjIxMC40MTNsMTMwLjIyMiAxMzAuMjIyYzUuNzAzIDUuNzAzIDEzLjEwNyA4LjQ5NiAyMC42MzEgOC40OTZzMTQuOTI4LTIuNzkxIDIwLjYzMS04LjQ5NmMxMS40MDgtMTEuNDA4IDExLjQwOC0yOS44NTUgMC00MS4xNDJMNTMyLjc1IDExOS42MzNjLTUuNzAzLTUuNzAzLTEzLjM0OS04LjYxNy0yMC44NzUtOC40OTYtNy41MjQgMC0xNS4wNSAyLjc5MS0yMC43NTMgOC40OTZsLTE3OS43MzkgMTc5Ljg2Yy0xMS40MDggMTEuNDA4LTExLjQwOCAyOS44NTUgMCA0MS4xNDIgNS41ODMgNS43MDMgMTMuMTA3IDguNDk2IDIwLjUxMSA4LjQ5NnoiLz48L3N2Zz4=;" parent="1" vertex="1">
          <mxGeometry x="1673.53" y="3007" width="167" height="167" as="geometry" />
        </mxCell>
        <mxCell id="hg0nlkvwgH0ZP0_xZrHD-7" value="" style="shape=image;verticalLabelPosition=bottom;labelBackgroundColor=default;verticalAlign=top;aspect=fixed;imageAspect=0;image=data:image/svg+xml,PHN2ZyB4bWxuczp4bGluaz0iaHR0cDovL3d3dy53My5vcmcvMTk5OS94bGluayIgeG1sbnM9Imh0dHA6Ly93d3cudzMub3JnLzIwMDAvc3ZnIiBoZWlnaHQ9IjIwMCIgd2lkdGg9IjIwNi4yNSIgdmVyc2lvbj0iMS4xIiB2aWV3Qm94PSIwIDAgMTA1NiAxMDI0IiBjbGFzcz0iaWNvbiI+PGRlZnM+PHN0eWxlIHR5cGU9InRleHQvY3NzIj5AZm9udC1mYWNlIHsgZm9udC1mYW1pbHk6IGZlZWRiYWNrLWljb25mb250OyBzcmM6IHVybCgiLy9hdC5hbGljZG4uY29tL3QvZm9udF8xMDMxMTU4X3U2OXc4eWh4ZHUud29mZjI/dD0xNjMwMDMzNzU5OTQ0IikgZm9ybWF0KCJ3b2ZmMiIpLCB1cmwoIi8vYXQuYWxpY2RuLmNvbS90L2ZvbnRfMTAzMTE1OF91Njl3OHloeGR1LndvZmY/dD0xNjMwMDMzNzU5OTQ0IikgZm9ybWF0KCJ3b2ZmIiksIHVybCgiLy9hdC5hbGljZG4uY29tL3QvZm9udF8xMDMxMTU4X3U2OXc4eWh4ZHUudHRmP3Q9MTYzMDAzMzc1OTk0NCIpIGZvcm1hdCgidHJ1ZXR5cGUiKTsgfSYjeGE7PC9zdHlsZT48L2RlZnM+PHBhdGggZD0iTTgzMiA0MzUuMjY0di0xMzcuNkM3NzIuNzA0IDM0OC40OCA2MzcuNDQgMzg0IDQ4MCAzODRTMTg3LjI5NiAzNDguNDggMTI4IDI5Ny42MzJWNDQ4aC0wLjAzMmM1MS4wNCA0OC42NzIgMTU4LjU2IDg0LjczNiAyODguMDMyIDkzLjc2djMyLjEyOGMtMTIwLjE5Mi04LjA2NC0yMjQuNzY4LTM4LjYyNC0yODgtODQuNTQ0VjYwOGMwIDU2IDEyMy4wNCAxMTMuNTA0IDI4OCAxMjUuNjY0djMyLjEyOGMtMTI5LjQ0LTkuMDU2LTIzNi45MjgtNDUuMDg4LTI4OC05My43NnYxMDQuODMybDQuNDQ4IDkuMTJjMjUuNDA4IDUyLjE2IDE0MC4wNjQgOTcuMTIgMjgzLjU1MiAxMDcuNjh2MzIuMTZDMjU3Ljk1MiA5MTQuODggMTI3LjQyNCA4NjQuNTEyIDk2IDgwMFYyNDQuNDhsMC4xOTIgMC4wOTZBNTUuMTM2IDU1LjEzNiAwIDAgMSA5NiAyNDBDOTYgMTYwLjQ4IDI2Ny45MzYgOTYgNDgwIDk2czM4NCA2NC40OCAzODQgMTQ0YzAgMS41MzYtMC4wNjQgMy4wNC0wLjE5MiA0LjU3Nkw4NjQgMjQ0LjQ4djIwMy4wNzJhMzE1LjA3MiAzMTUuMDcyIDAgMCAwLTMyLTEyLjMyek00ODAgMzUyYzE5NS40NTYgMCAzNTItNTguNzIgMzUyLTExMlM2NzUuNDU2IDEyOCA0ODAgMTI4IDEyOCAxODYuNzIgMTI4IDI0MCAyODQuNTQ0IDM1MiA0ODAgMzUyeiBtNDQ4IDIyNHYyODhjLTE1LjUyIDU0LjI3Mi0xMTEuMTY4IDk2LTIyNCA5NnMtMjA2LjIwOC0zNS45NjgtMjIxLjc2LTkwLjI0TDQ4MCA4NjR2LTI4OCAxNmMwLTYxLjg1NiAxMDAuMjg4LTExMiAyMjQtMTEyczIyNCA1MC4xNDQgMjI0IDExMlY1NzZ6IG0tMzIgMjAxLjcyOEM4NTYuOCA4MTAuMjQgNzg1LjQ3MiA4MzIgNzA0IDgzMnMtMTUyLjgtMjEuNzYtMTkyLTU0LjI3MnY3My44NTZsMS4wMjQgMy42MTZDNTIzLjcxMiA4OTIuNTQ0IDYwNC44NjQgOTI4IDcwNCA5MjhjOTkuMTY4IDAgMTgwLjI4OC0zNS40NTYgMTkwLjk3Ni03Mi44bDEuMDI0LTMuNjE2di03My44NTZ6IG0wLTU0LjE0NHYtNjYuNEM4NDguNzM2IDY4Ni43MiA3NzkuNzEyIDcwNCA3MDQuMDk2IDcwNGgtMC4xOTJjLTc1LjYxNiAwLTE0NC42NC0xNy4yOC0xOTEuOTA0LTQ2LjgxNnY2Ni40bDEuMDI0IDMuNjE2QzUyMy43MTIgNzY0LjU0NCA2MDQuODY0IDgwMCA3MDQgODAwYzk5LjE2OCAwIDE4MC4yODgtMzUuNDU2IDE5MC45NzYtNzIuOGwxLjAyNC0zLjYxNnpNNzA0IDY3MmMxMDguMzIgMCAxOTItNDEuODU2IDE5Mi04MFM4MTIuMzIgNTEyIDcwNCA1MTJzLTE5MiA0MS44NTYtMTkyIDgwIDgzLjY4IDgwIDE5MiA4MHoiLz48L3N2Zz4=;" parent="1" vertex="1">
          <mxGeometry x="2385.26" y="2072" width="285.53" height="277.21" as="geometry" />
        </mxCell>
        <mxCell id="hg0nlkvwgH0ZP0_xZrHD-8" value="" style="shape=image;verticalLabelPosition=bottom;labelBackgroundColor=default;verticalAlign=top;aspect=fixed;imageAspect=0;image=data:image/svg+xml,PHN2ZyB4bWxuczp4bGluaz0iaHR0cDovL3d3dy53My5vcmcvMTk5OS94bGluayIgeG1sbnM9Imh0dHA6Ly93d3cudzMub3JnLzIwMDAvc3ZnIiBoZWlnaHQ9IjIwMCIgd2lkdGg9IjIwMCIgdmVyc2lvbj0iMS4xIiB2aWV3Qm94PSIwIDAgMTAyNCAxMDI0IiBjbGFzcz0iaWNvbiI+PGRlZnM+PHN0eWxlIHR5cGU9InRleHQvY3NzIj5AZm9udC1mYWNlIHsgZm9udC1mYW1pbHk6IGZlZWRiYWNrLWljb25mb250OyBzcmM6IHVybCgiLy9hdC5hbGljZG4uY29tL3QvZm9udF8xMDMxMTU4X3U2OXc4eWh4ZHUud29mZjI/dD0xNjMwMDMzNzU5OTQ0IikgZm9ybWF0KCJ3b2ZmMiIpLCB1cmwoIi8vYXQuYWxpY2RuLmNvbS90L2ZvbnRfMTAzMTE1OF91Njl3OHloeGR1LndvZmY/dD0xNjMwMDMzNzU5OTQ0IikgZm9ybWF0KCJ3b2ZmIiksIHVybCgiLy9hdC5hbGljZG4uY29tL3QvZm9udF8xMDMxMTU4X3U2OXc4eWh4ZHUudHRmP3Q9MTYzMDAzMzc1OTk0NCIpIGZvcm1hdCgidHJ1ZXR5cGUiKTsgfSYjeGE7PC9zdHlsZT48L2RlZnM+PHBhdGggZmlsbD0iIzA0MDAwMCIgZD0iTTk3OS4yIDQ2Ny4yaC0xOTguNGMtMjUuNiAwLTM4LjQgMTkuMi0zOC40IDM4LjRWNTEyYzAgMTkuMiAxOS4yIDM4LjQgMzguNCAzOC40aDE5OC40YzE5LjIgMCAzOC40LTE5LjIgMzguNC0zOC40di02LjRjMC0xOS4yLTE5LjItMzguNC0zOC40LTM4LjR6TTUyNC44IDEyOGMtNjQgNDQuOC0xOTIgMTE1LjItMjc1LjIgMTc5LjJ2Ni40Yy0xOS4yIDAtMjUuNiAxOS4yLTgzLjIgMTkuMkg1Ny42Yy0zMiAwLTUxLjIgMTIuOC01MS4yIDQ0LjhWNjQwYzAgMzIgMTkuMiA0NC44IDUxLjIgNDQuOGgxMTUuMmM1Ny42IDAgNjQgMTkuMiA3Ni44IDI1LjZ2Ni40Yzg5LjYgNjQgMjExLjIgMTM0LjQgMjc1LjIgMTc5LjIgMTkuMiAxMi44IDgzLjIgMzguNCA4My4yLTQ0LjhWMTY2LjRjMC03Ni44LTY0LTUxLjItODMuMi0zOC40ek03MDQgMzEzLjZjMTIuOCAxOS4yIDMyIDI1LjYgNDQuOCAxMi44TDkwOC44IDE5MmMxMi44LTEyLjggMTkuMi0zOC40IDYuNC01Ny42bC02LjQtMTIuOGMtMTIuOC0xOS4yLTMyLTI1LjYtNDQuOC0xMi44TDcwNCAyNDMuMmMtMTIuOCAxMi44LTE5LjIgMzguNC02LjQgNTcuNmw2LjQgMTIuOHogbTUxLjIgMzg0Yy0xMi44LTEyLjgtMzguNC02LjQtNDQuOCAxMi44bC02LjQgMTIuOGMtMTIuOCAxOS4yLTYuNCA0NC44IDYuNCA1Ny42bDE2Ni40IDEzNC40YzEyLjggMTIuOCAzOC40IDYuNCA0NC44LTEyLjhsNi40LTEyLjhjMTIuOC0xOS4yIDYuNC00NC44LTYuNC01Ny42bC0xNjYuNC0xMzQuNHoiLz48L3N2Zz4=;" parent="1" vertex="1">
          <mxGeometry x="2644.53" y="3087" width="131" height="131" as="geometry" />
        </mxCell>
        <mxCell id="hg0nlkvwgH0ZP0_xZrHD-9" value="" style="shape=image;verticalLabelPosition=bottom;labelBackgroundColor=default;verticalAlign=top;aspect=fixed;imageAspect=0;image=data:image/svg+xml,PHN2ZyB4bWxuczp4bGluaz0iaHR0cDovL3d3dy53My5vcmcvMTk5OS94bGluayIgeG1sbnM9Imh0dHA6Ly93d3cudzMub3JnLzIwMDAvc3ZnIiBoZWlnaHQ9IjIwMCIgd2lkdGg9IjIwMC4xOTUzMTI1IiB2ZXJzaW9uPSIxLjEiIHZpZXdCb3g9IjAgMCAxMDI1IDEwMjQiIGNsYXNzPSJpY29uIj48ZGVmcz48c3R5bGUgdHlwZT0idGV4dC9jc3MiPkBmb250LWZhY2UgeyBmb250LWZhbWlseTogZmVlZGJhY2staWNvbmZvbnQ7IHNyYzogdXJsKCIvL2F0LmFsaWNkbi5jb20vdC9mb250XzEwMzExNThfdTY5dzh5aHhkdS53b2ZmMj90PTE2MzAwMzM3NTk5NDQiKSBmb3JtYXQoIndvZmYyIiksIHVybCgiLy9hdC5hbGljZG4uY29tL3QvZm9udF8xMDMxMTU4X3U2OXc4eWh4ZHUud29mZj90PTE2MzAwMzM3NTk5NDQiKSBmb3JtYXQoIndvZmYiKSwgdXJsKCIvL2F0LmFsaWNkbi5jb20vdC9mb250XzEwMzExNThfdTY5dzh5aHhkdS50dGY/dD0xNjMwMDMzNzU5OTQ0IikgZm9ybWF0KCJ0cnVldHlwZSIpOyB9JiN4YTs8L3N0eWxlPjwvZGVmcz48cGF0aCBkPSJNOTI5LjY4NjM3NyA3MTEuNjkwMjAyVjYyNy45MTU3MDRhMTM0Ljc1MzgwMSAxMzQuNzUzODAxIDAgMCAwLTEzNC42MjYxOTMtMTM0LjYyNjE5M2gtMjI5LjY5Mzk3OHYtNjIuNDY0MDAxYTIxOC43ODM1MTQgMjE4Ljc4MzUxNCAwIDEgMC0xMDkuMzU5ODU2IDB2NjIuNDY0MDAxaC0yMjkuNjkzOTc4YTEzNC43NTM4MDEgMTM0Ljc1MzgwMSAwIDAgMC0xMzQuNjI2MTkyIDEzNC42MjYxOTN2ODMuNzc0NDk4YTE2My41MjkzNTIgMTYzLjUyOTM1MiAwIDEgMCAxMDkuMzU5ODU1LTEzLjM5ODgxNXYtNzAuMTg0MjcxYTI1LjUyMTU1MyAyNS41MjE1NTMgMCAwIDEgMjUuNTIxNTUzLTI1LjUyMTU1M2gyMjkuNjkzOTc4djEwMS4xOTI5NThhMTY0LjAzOTc4MyAxNjQuMDM5NzgzIDAgMSAwIDEwOS4zNTk4NTUgMFY2MDIuNzEzMTdoMjI5LjY5Mzk3OGEyNS41MjE1NTMgMjUuNTIxNTUzIDAgMCAxIDI1LjUyMTU1MyAyNS41MjE1NTR2NzAuMTg0MjcxYTE2NC43NDE2MjUgMTY0Ljc0MTYyNSAwIDEgMCAxMDkuMzU5ODU2IDEzLjM5ODgxNXpNNDAxLjA3MTIwNyAyMTkuODg5ODc0QTEwOS4zNTk4NTUgMTA5LjM1OTg1NSAwIDEgMSA1MTAuNDMxMDYzIDMyOS4yNDk3MjlhMTA5LjQ4NzQ2MyAxMDkuNDg3NDYzIDAgMCAxLTEwOS4zNTk4NTYtMTA5LjM1OTg1NXogbS0xODIuMjg3NjkzIDYzOC4wMzg4MjhhNTQuNjc5OTI4IDU0LjY3OTkyOCAwIDEgMS01NC42Nzk5MjctNTQuNjc5OTI4IDU0LjgwNzUzNSA1NC44MDc1MzUgMCAwIDEgNTQuNjc5OTI3IDU0LjY3OTkyOHpNNTEwLjQzMTA2MyA5MTIuNjA4NjI5YTU0LjY3OTkyOCA1NC42Nzk5MjggMCAxIDEgNTQuNjc5OTI3LTU0LjY3OTkyNyA1NC44MDc1MzUgNTQuODA3NTM1IDAgMCAxLTU0LjY3OTkyNyA1NC42Nzk5Mjd6IG0zNDYuMzkxMjc5IDBhNTQuNjc5OTI4IDU0LjY3OTkyOCAwIDEgMSA1NC42Nzk5MjgtNTQuNjc5OTI3IDU0LjgwNzUzNSA1NC44MDc1MzUgMCAwIDEtNTQuNjc5OTI4IDU0LjY3OTkyN3oiLz48L3N2Zz4=;" parent="1" vertex="1">
          <mxGeometry x="3300.53" y="3034" width="120" height="120" as="geometry" />
        </mxCell>
        <mxCell id="hg0nlkvwgH0ZP0_xZrHD-10" style="edgeStyle=orthogonalEdgeStyle;rounded=0;orthogonalLoop=1;jettySize=auto;html=1;fontSize=22;fontColor=#000000;strokeWidth=7;" parent="1" source="hg0nlkvwgH0ZP0_xZrHD-11" edge="1">
          <mxGeometry relative="1" as="geometry">
            <mxPoint x="1616.5299999999997" y="3248" as="targetPoint" />
          </mxGeometry>
        </mxCell>
        <mxCell id="hg0nlkvwgH0ZP0_xZrHD-11" value="" style="shape=image;verticalLabelPosition=bottom;labelBackgroundColor=default;verticalAlign=top;aspect=fixed;imageAspect=0;image=data:image/svg+xml,PHN2ZyB4bWxuczp4bGluaz0iaHR0cDovL3d3dy53My5vcmcvMTk5OS94bGluayIgeG1sbnM9Imh0dHA6Ly93d3cudzMub3JnLzIwMDAvc3ZnIiBoZWlnaHQ9IjIwMCIgd2lkdGg9IjI0OS4yMTg3NSIgdmVyc2lvbj0iMS4xIiB2aWV3Qm94PSIwIDAgMTI3NiAxMDI0IiBjbGFzcz0iaWNvbiI+PGRlZnM+PHN0eWxlIHR5cGU9InRleHQvY3NzIj5AZm9udC1mYWNlIHsgZm9udC1mYW1pbHk6IGZlZWRiYWNrLWljb25mb250OyBzcmM6IHVybCgiLy9hdC5hbGljZG4uY29tL3QvZm9udF8xMDMxMTU4X3U2OXc4eWh4ZHUud29mZjI/dD0xNjMwMDMzNzU5OTQ0IikgZm9ybWF0KCJ3b2ZmMiIpLCB1cmwoIi8vYXQuYWxpY2RuLmNvbS90L2ZvbnRfMTAzMTE1OF91Njl3OHloeGR1LndvZmY/dD0xNjMwMDMzNzU5OTQ0IikgZm9ybWF0KCJ3b2ZmIiksIHVybCgiLy9hdC5hbGljZG4uY29tL3QvZm9udF8xMDMxMTU4X3U2OXc4eWh4ZHUudHRmP3Q9MTYzMDAzMzc1OTk0NCIpIGZvcm1hdCgidHJ1ZXR5cGUiKTsgfSYjeGE7PC9zdHlsZT48L2RlZnM+PHBhdGggZmlsbD0iI0IwRTU1QyIgZD0iTTYxLjUzOTE2NSA2NTcuMzM1NTdoMTIwNy40MjAxOTl2MTYwLjc0NTgwNkg2MS41MzkxNjV6Ii8+PHBhdGggZmlsbD0iIzY5NDk0RCIgZD0iTTEyNjguNjU0OTIxIDYyNS44NzY0NzlIOC4wNTg3MTFhNy4yMDUxNDcgNy4yMDUxNDcgMCAxIDEgMC0xNC4zMDg4MTJIMTI2OC42NTQ5MjFhNy4yMDUxNDcgNy4yMDUxNDcgMCAxIDEgMCAxNC4zMDg4MTJ6TTg1OS40ODM3OCA5MjYuMjYwMDU1SDQxNy41MzQyOTVhNy42MTEwNyA3LjYxMTA3IDAgMCAxLTcuOTE1NTEzLTcuMjA1MTQ2di0xMDEuNDgwOTM4YTcuNjExMDcgNy42MTEwNyAwIDAgMSA3LjkxNTUxMy03LjIwNTE0N2g0NDEuOTQ5NDg1YTcuNjExMDcgNy42MTEwNyAwIDAgMSA3LjkxNTUxMyA3LjIwNTE0N3YxMDEuNDgwOTM4YTcuNjExMDcgNy42MTEwNyAwIDAgMS03LjkxNTUxMyA3LjIwNTE0NnogbS00MzQuMDMzOTcyLTE0LjQxMDI5M2g0MjYuMjE5OTM5di04Ni42NjQ3MjFoLTQyNi4yMTk5Mzl6Ii8+PHBhdGggZmlsbD0iIzY5NDk0RCIgZD0iTTkyNi4yNTgyMzcgMTAyMy45ODYxOTloLTU3NS4zOTY5MThhOC4xMTg0NzUgOC4xMTg0NzUgMCAwIDEtNi43OTkyMjMtMy41NTE4MzMgNi41OTYyNjEgNi41OTYyNjEgMCAwIDEgMC03LjEwMzY2Nkw0MDUuNDU4MDY0IDkxMy4zNzE5NzZhOC4xMTg0NzUgOC4xMTg0NzUgMCAwIDEgNi45MDA3MDMtMy42NTMzMTNoNDUyLjMwMDU0YTguMTE4NDc1IDguMTE4NDc1IDAgMCAxIDYuOTAwNzA0IDMuNjUzMzEzbDYxLjU5ODkzIDEwMC4zNjQ2NDhhNi41OTYyNjEgNi41OTYyNjEgMCAwIDEgMCA3LjEwMzY2NiA4LjExODQ3NSA4LjExODQ3NSAwIDAgMS02LjkwMDcwNCAzLjE0NTkwOXogbS01NjEuODk5OTUzLTE0LjQxMDI5NGg1NDcuOTk3MDY0TDg1OS45OTExODQgOTIzLjUyMDA3SDQxNy4xMjgzNzF6TTEyMzMuMjM4MDc0IDgyNS4xODUwNDFINDMuNzgwMDAxQTQxLjgxMDE0NiA0MS44MTAxNDYgMCAwIDEgMC4xNDMxOTggNzg1LjcwODk1NlYzOS41MTk2MkE0MS44MTAxNDYgNDEuODEwMTQ2IDAgMCAxIDQzLjc4MDAwMSAwLjA0MzUzNWgxMTg5LjQ1ODA3M2E0MS44MTAxNDYgNDEuODEwMTQ2IDAgMCAxIDQzLjYzNjgwMyAzOS40NzYwODV2NzQ2LjE4OTMzNmE0MS44MTAxNDYgNDEuODEwMTQ2IDAgMCAxLTQzLjYzNjgwMyAzOS40NzYwODV6TTQzLjc4MDAwMSAxNC4zNTIzNDhhMjYuNTg4MDA2IDI2LjU4ODAwNiAwIDAgMC0yNy44MDU3NzcgMjUuMTY3Mjcydjc0Ni4xODkzMzZBMjYuNTg4MDA2IDI2LjU4ODAwNiAwIDAgMCA0My43ODAwMDEgODEwLjg3NjIyOWgxMTg5LjQ1ODA3M2EyNi41ODgwMDYgMjYuNTg4MDA2IDAgMCAwIDI3LjgwNTc3Ny0yNS4xNjcyNzNWMzkuNTE5NjJhMjYuNTg4MDA2IDI2LjU4ODAwNiAwIDAgMC0yNy44MDU3NzctMjUuMTY3MjcyeiIvPjxwYXRoIGZpbGw9IiM2OTQ5NEQiIGQ9Ik02MzguNTU5Nzc4IDczNy43MDg0NzNtLTIzLjc0NjU0IDBhMjMuNzQ2NTM5IDIzLjc0NjUzOSAwIDEgMCA0Ny40OTMwNzkgMCAyMy43NDY1MzkgMjMuNzQ2NTM5IDAgMSAwLTQ3LjQ5MzA3OSAwWiIvPjwvc3ZnPg==;" parent="1" vertex="1">
          <mxGeometry x="1479.48" y="3567" width="273.09" height="219.35" as="geometry" />
        </mxCell>
        <mxCell id="hg0nlkvwgH0ZP0_xZrHD-12" value="&lt;font style=&quot;font-size: 49px;&quot;&gt;设备上线(e.g., PC)&lt;/font&gt;" style="text;html=1;strokeColor=none;fillColor=none;align=center;verticalAlign=middle;whiteSpace=wrap;rounded=0;labelBackgroundColor=none;fontSize=22;fontColor=#000000;" parent="1" vertex="1">
          <mxGeometry x="1497.53" y="3827" width="250.09" height="95" as="geometry" />
        </mxCell>
        <mxCell id="hg0nlkvwgH0ZP0_xZrHD-13" value="" style="shape=image;verticalLabelPosition=bottom;labelBackgroundColor=default;verticalAlign=top;aspect=fixed;imageAspect=0;image=data:image/svg+xml,PHN2ZyB4bWxuczp4bGluaz0iaHR0cDovL3d3dy53My5vcmcvMTk5OS94bGluayIgeG1sbnM9Imh0dHA6Ly93d3cudzMub3JnLzIwMDAvc3ZnIiBoZWlnaHQ9IjIwMCIgd2lkdGg9IjIwMCIgdmVyc2lvbj0iMS4xIiB2aWV3Qm94PSIwIDAgMTAyNCAxMDI0IiBjbGFzcz0iaWNvbiI+PGRlZnM+PHN0eWxlIHR5cGU9InRleHQvY3NzIj5AZm9udC1mYWNlIHsgZm9udC1mYW1pbHk6IGZlZWRiYWNrLWljb25mb250OyBzcmM6IHVybCgiLy9hdC5hbGljZG4uY29tL3QvZm9udF8xMDMxMTU4X3U2OXc4eWh4ZHUud29mZjI/dD0xNjMwMDMzNzU5OTQ0IikgZm9ybWF0KCJ3b2ZmMiIpLCB1cmwoIi8vYXQuYWxpY2RuLmNvbS90L2ZvbnRfMTAzMTE1OF91Njl3OHloeGR1LndvZmY/dD0xNjMwMDMzNzU5OTQ0IikgZm9ybWF0KCJ3b2ZmIiksIHVybCgiLy9hdC5hbGljZG4uY29tL3QvZm9udF8xMDMxMTU4X3U2OXc4eWh4ZHUudHRmP3Q9MTYzMDAzMzc1OTk0NCIpIGZvcm1hdCgidHJ1ZXR5cGUiKTsgfSYjeGE7PC9zdHlsZT48L2RlZnM+PHBhdGggZD0iTTk2MCA0Mi42NjY2NjdINjRjLTEyLjggMC0yMS4zMzMzMzMgOC41MzMzMzMtMjEuMzMzMzMzIDIxLjMzMzMzM3Y4OTZjMCAxMi44IDguNTMzMzMzIDIxLjMzMzMzMyAyMS4zMzMzMzMgMjEuMzMzMzMzaDg5NmMxMi44IDAgMjEuMzMzMzMzLTguNTMzMzMzIDIxLjMzMzMzMy0yMS4zMzMzMzNWNjRjMC0xMi44LTguNTMzMzMzLTIxLjMzMzMzMy0yMS4zMzMzMzMtMjEuMzMzMzMzeiBtLTIxLjMzMzMzMyA4OTZIODUuMzMzMzMzVjY4Mi42NjY2NjdoODUzLjMzMzMzNHYyNTZ6IG0wLTI5OC42NjY2NjdIODUuMzMzMzMzVjM4NGg4NTMuMzMzMzM0djI1NnogbTAtMjk4LjY2NjY2N0g4NS4zMzMzMzNWODUuMzMzMzMzaDg1My4zMzMzMzR2MjU2ek0yOTguNjY2NjY3IDc2OGgtNDIuNjY2NjY3djg1LjMzMzMzM2g0Mi42NjY2Njd2LTg1LjMzMzMzM3ogbS04NS4zMzMzMzQgMEgxNzAuNjY2NjY3djg1LjMzMzMzM2g0Mi42NjY2NjZ2LTg1LjMzMzMzM3ogbTY2MS4zMzMzMzQgMjEuMzMzMzMzaC0xNzAuNjY2NjY3djQyLjY2NjY2N2gxNzAuNjY2NjY3di00Mi42NjY2Njd6TTI5OC42NjY2NjcgNDY5LjMzMzMzM2gtNDIuNjY2NjY3djg1LjMzMzMzNGg0Mi42NjY2Njd2LTg1LjMzMzMzNHogbS04NS4zMzMzMzQgMEgxNzAuNjY2NjY3djg1LjMzMzMzNGg0Mi42NjY2NjZ2LTg1LjMzMzMzNHogbTY2MS4zMzMzMzQgMjEuMzMzMzM0aC0xNzAuNjY2NjY3djQyLjY2NjY2NmgxNzAuNjY2NjY3di00Mi42NjY2NjZ6TTI5OC42NjY2NjcgMTcwLjY2NjY2N2gtNDIuNjY2NjY3djg1LjMzMzMzM2g0Mi42NjY2NjdWMTcwLjY2NjY2N3ogbS04NS4zMzMzMzQgMEgxNzAuNjY2NjY3djg1LjMzMzMzM2g0Mi42NjY2NjZWMTcwLjY2NjY2N3ogbTY2MS4zMzMzMzQgMjEuMzMzMzMzaC0xNzAuNjY2NjY3djQyLjY2NjY2N2gxNzAuNjY2NjY3VjE5MnoiLz48L3N2Zz4=;" parent="1" vertex="1">
          <mxGeometry x="3090.53" y="2855.11" width="278" height="278" as="geometry" />
        </mxCell>
        <mxCell id="hg0nlkvwgH0ZP0_xZrHD-14" value="" style="shape=image;verticalLabelPosition=bottom;labelBackgroundColor=default;verticalAlign=top;aspect=fixed;imageAspect=0;image=data:image/svg+xml,PHN2ZyB4bWxuczp4bGluaz0iaHR0cDovL3d3dy53My5vcmcvMTk5OS94bGluayIgeG1sbnM9Imh0dHA6Ly93d3cudzMub3JnLzIwMDAvc3ZnIiBoZWlnaHQ9IjIwMCIgd2lkdGg9IjIwMC4xOTUzMTI1IiB2ZXJzaW9uPSIxLjEiIHZpZXdCb3g9IjAgMCAxMDI1IDEwMjQiIGNsYXNzPSJpY29uIj48ZGVmcz48c3R5bGUgdHlwZT0idGV4dC9jc3MiPkBmb250LWZhY2UgeyBmb250LWZhbWlseTogZmVlZGJhY2staWNvbmZvbnQ7IHNyYzogdXJsKCIvL2F0LmFsaWNkbi5jb20vdC9mb250XzEwMzExNThfdTY5dzh5aHhkdS53b2ZmMj90PTE2MzAwMzM3NTk5NDQiKSBmb3JtYXQoIndvZmYyIiksIHVybCgiLy9hdC5hbGljZG4uY29tL3QvZm9udF8xMDMxMTU4X3U2OXc4eWh4ZHUud29mZj90PTE2MzAwMzM3NTk5NDQiKSBmb3JtYXQoIndvZmYiKSwgdXJsKCIvL2F0LmFsaWNkbi5jb20vdC9mb250XzEwMzExNThfdTY5dzh5aHhkdS50dGY/dD0xNjMwMDMzNzU5OTQ0IikgZm9ybWF0KCJ0cnVldHlwZSIpOyB9JiN4YTs8L3N0eWxlPjwvZGVmcz48cGF0aCBkPSJNOTI5LjY4NjM3NyA3MTEuNjkwMjAyVjYyNy45MTU3MDRhMTM0Ljc1MzgwMSAxMzQuNzUzODAxIDAgMCAwLTEzNC42MjYxOTMtMTM0LjYyNjE5M2gtMjI5LjY5Mzk3OHYtNjIuNDY0MDAxYTIxOC43ODM1MTQgMjE4Ljc4MzUxNCAwIDEgMC0xMDkuMzU5ODU2IDB2NjIuNDY0MDAxaC0yMjkuNjkzOTc4YTEzNC43NTM4MDEgMTM0Ljc1MzgwMSAwIDAgMC0xMzQuNjI2MTkyIDEzNC42MjYxOTN2ODMuNzc0NDk4YTE2My41MjkzNTIgMTYzLjUyOTM1MiAwIDEgMCAxMDkuMzU5ODU1LTEzLjM5ODgxNXYtNzAuMTg0MjcxYTI1LjUyMTU1MyAyNS41MjE1NTMgMCAwIDEgMjUuNTIxNTUzLTI1LjUyMTU1M2gyMjkuNjkzOTc4djEwMS4xOTI5NThhMTY0LjAzOTc4MyAxNjQuMDM5NzgzIDAgMSAwIDEwOS4zNTk4NTUgMFY2MDIuNzEzMTdoMjI5LjY5Mzk3OGEyNS41MjE1NTMgMjUuNTIxNTUzIDAgMCAxIDI1LjUyMTU1MyAyNS41MjE1NTR2NzAuMTg0MjcxYTE2NC43NDE2MjUgMTY0Ljc0MTYyNSAwIDEgMCAxMDkuMzU5ODU2IDEzLjM5ODgxNXpNNDAxLjA3MTIwNyAyMTkuODg5ODc0QTEwOS4zNTk4NTUgMTA5LjM1OTg1NSAwIDEgMSA1MTAuNDMxMDYzIDMyOS4yNDk3MjlhMTA5LjQ4NzQ2MyAxMDkuNDg3NDYzIDAgMCAxLTEwOS4zNTk4NTYtMTA5LjM1OTg1NXogbS0xODIuMjg3NjkzIDYzOC4wMzg4MjhhNTQuNjc5OTI4IDU0LjY3OTkyOCAwIDEgMS01NC42Nzk5MjctNTQuNjc5OTI4IDU0LjgwNzUzNSA1NC44MDc1MzUgMCAwIDEgNTQuNjc5OTI3IDU0LjY3OTkyOHpNNTEwLjQzMTA2MyA5MTIuNjA4NjI5YTU0LjY3OTkyOCA1NC42Nzk5MjggMCAxIDEgNTQuNjc5OTI3LTU0LjY3OTkyNyA1NC44MDc1MzUgNTQuODA3NTM1IDAgMCAxLTU0LjY3OTkyNyA1NC42Nzk5Mjd6IG0zNDYuMzkxMjc5IDBhNTQuNjc5OTI4IDU0LjY3OTkyOCAwIDEgMSA1NC42Nzk5MjgtNTQuNjc5OTI3IDU0LjgwNzUzNSA1NC44MDc1MzUgMCAwIDEtNTQuNjc5OTI4IDU0LjY3OTkyN3oiLz48L3N2Zz4=;" parent="1" vertex="1">
          <mxGeometry x="3712.53" y="3031" width="120" height="120" as="geometry" />
        </mxCell>
        <mxCell id="hg0nlkvwgH0ZP0_xZrHD-15" value="" style="shape=image;verticalLabelPosition=bottom;labelBackgroundColor=default;verticalAlign=top;aspect=fixed;imageAspect=0;image=data:image/svg+xml,PHN2ZyB4bWxuczp4bGluaz0iaHR0cDovL3d3dy53My5vcmcvMTk5OS94bGluayIgeG1sbnM9Imh0dHA6Ly93d3cudzMub3JnLzIwMDAvc3ZnIiBoZWlnaHQ9IjIwMCIgd2lkdGg9IjIwMCIgdmVyc2lvbj0iMS4xIiB2aWV3Qm94PSIwIDAgMTAyNCAxMDI0IiBjbGFzcz0iaWNvbiI+PGRlZnM+PHN0eWxlIHR5cGU9InRleHQvY3NzIj5AZm9udC1mYWNlIHsgZm9udC1mYW1pbHk6IGZlZWRiYWNrLWljb25mb250OyBzcmM6IHVybCgiLy9hdC5hbGljZG4uY29tL3QvZm9udF8xMDMxMTU4X3U2OXc4eWh4ZHUud29mZjI/dD0xNjMwMDMzNzU5OTQ0IikgZm9ybWF0KCJ3b2ZmMiIpLCB1cmwoIi8vYXQuYWxpY2RuLmNvbS90L2ZvbnRfMTAzMTE1OF91Njl3OHloeGR1LndvZmY/dD0xNjMwMDMzNzU5OTQ0IikgZm9ybWF0KCJ3b2ZmIiksIHVybCgiLy9hdC5hbGljZG4uY29tL3QvZm9udF8xMDMxMTU4X3U2OXc4eWh4ZHUudHRmP3Q9MTYzMDAzMzc1OTk0NCIpIGZvcm1hdCgidHJ1ZXR5cGUiKTsgfSYjeGE7PC9zdHlsZT48L2RlZnM+PHBhdGggZD0iTTk2MCA0Mi42NjY2NjdINjRjLTEyLjggMC0yMS4zMzMzMzMgOC41MzMzMzMtMjEuMzMzMzMzIDIxLjMzMzMzM3Y4OTZjMCAxMi44IDguNTMzMzMzIDIxLjMzMzMzMyAyMS4zMzMzMzMgMjEuMzMzMzMzaDg5NmMxMi44IDAgMjEuMzMzMzMzLTguNTMzMzMzIDIxLjMzMzMzMy0yMS4zMzMzMzNWNjRjMC0xMi44LTguNTMzMzMzLTIxLjMzMzMzMy0yMS4zMzMzMzMtMjEuMzMzMzMzeiBtLTIxLjMzMzMzMyA4OTZIODUuMzMzMzMzVjY4Mi42NjY2NjdoODUzLjMzMzMzNHYyNTZ6IG0wLTI5OC42NjY2NjdIODUuMzMzMzMzVjM4NGg4NTMuMzMzMzM0djI1NnogbTAtMjk4LjY2NjY2N0g4NS4zMzMzMzNWODUuMzMzMzMzaDg1My4zMzMzMzR2MjU2ek0yOTguNjY2NjY3IDc2OGgtNDIuNjY2NjY3djg1LjMzMzMzM2g0Mi42NjY2Njd2LTg1LjMzMzMzM3ogbS04NS4zMzMzMzQgMEgxNzAuNjY2NjY3djg1LjMzMzMzM2g0Mi42NjY2NjZ2LTg1LjMzMzMzM3ogbTY2MS4zMzMzMzQgMjEuMzMzMzMzaC0xNzAuNjY2NjY3djQyLjY2NjY2N2gxNzAuNjY2NjY3di00Mi42NjY2Njd6TTI5OC42NjY2NjcgNDY5LjMzMzMzM2gtNDIuNjY2NjY3djg1LjMzMzMzNGg0Mi42NjY2Njd2LTg1LjMzMzMzNHogbS04NS4zMzMzMzQgMEgxNzAuNjY2NjY3djg1LjMzMzMzNGg0Mi42NjY2NjZ2LTg1LjMzMzMzNHogbTY2MS4zMzMzMzQgMjEuMzMzMzM0aC0xNzAuNjY2NjY3djQyLjY2NjY2NmgxNzAuNjY2NjY3di00Mi42NjY2NjZ6TTI5OC42NjY2NjcgMTcwLjY2NjY2N2gtNDIuNjY2NjY3djg1LjMzMzMzM2g0Mi42NjY2NjdWMTcwLjY2NjY2N3ogbS04NS4zMzMzMzQgMEgxNzAuNjY2NjY3djg1LjMzMzMzM2g0Mi42NjY2NjZWMTcwLjY2NjY2N3ogbTY2MS4zMzMzMzQgMjEuMzMzMzMzaC0xNzAuNjY2NjY3djQyLjY2NjY2N2gxNzAuNjY2NjY3VjE5MnoiLz48L3N2Zz4=;" parent="1" vertex="1">
          <mxGeometry x="3502.53" y="2852.11" width="278" height="278" as="geometry" />
        </mxCell>
        <mxCell id="hg0nlkvwgH0ZP0_xZrHD-16" value="&lt;font style=&quot;font-size: 49px;&quot;&gt;&lt;b&gt;...&lt;/b&gt;&lt;/font&gt;" style="text;html=1;strokeColor=none;fillColor=none;align=center;verticalAlign=middle;whiteSpace=wrap;rounded=0;labelBackgroundColor=none;fontSize=34;fontColor=#000000;spacing=9;" parent="1" vertex="1">
          <mxGeometry x="3409.53" y="2918" width="87" height="110" as="geometry" />
        </mxCell>
        <mxCell id="hg0nlkvwgH0ZP0_xZrHD-17" style="edgeStyle=orthogonalEdgeStyle;rounded=0;orthogonalLoop=1;jettySize=auto;html=1;fontSize=49;fontColor=#000000;strokeWidth=7;" parent="1" source="hg0nlkvwgH0ZP0_xZrHD-18" edge="1">
          <mxGeometry relative="1" as="geometry">
            <mxPoint x="4103.529999999997" y="3005" as="targetPoint" />
          </mxGeometry>
        </mxCell>
        <mxCell id="hg0nlkvwgH0ZP0_xZrHD-18" value="" style="rounded=0;whiteSpace=wrap;html=1;labelBackgroundColor=none;fontSize=49;fontColor=#000000;strokeColor=default;strokeWidth=2;fillColor=none;dashed=1;" parent="1" vertex="1">
          <mxGeometry x="3073.53" y="2829" width="774" height="352" as="geometry" />
        </mxCell>
        <mxCell id="hg0nlkvwgH0ZP0_xZrHD-19" style="edgeStyle=orthogonalEdgeStyle;rounded=0;orthogonalLoop=1;jettySize=auto;html=1;fontSize=49;fontColor=#000000;strokeWidth=7;" parent="1" edge="1">
          <mxGeometry relative="1" as="geometry">
            <mxPoint x="2493.5300000000007" y="2807" as="sourcePoint" />
            <mxPoint x="2493.5300000000007" y="2450" as="targetPoint" />
            <Array as="points">
              <mxPoint x="2493.53" y="2675" />
              <mxPoint x="2493.53" y="2675" />
            </Array>
          </mxGeometry>
        </mxCell>
        <mxCell id="hg0nlkvwgH0ZP0_xZrHD-20" value="" style="shape=image;verticalLabelPosition=bottom;labelBackgroundColor=default;verticalAlign=top;aspect=fixed;imageAspect=0;image=data:image/svg+xml,PHN2ZyB4bWxuczp4bGluaz0iaHR0cDovL3d3dy53My5vcmcvMTk5OS94bGluayIgeG1sbnM9Imh0dHA6Ly93d3cudzMub3JnLzIwMDAvc3ZnIiBoZWlnaHQ9IjIwMCIgd2lkdGg9IjIwMCIgdmVyc2lvbj0iMS4xIiB2aWV3Qm94PSIwIDAgMTAyNCAxMDI0IiBjbGFzcz0iaWNvbiI+PGRlZnM+PHN0eWxlIHR5cGU9InRleHQvY3NzIj5AZm9udC1mYWNlIHsgZm9udC1mYW1pbHk6IGZlZWRiYWNrLWljb25mb250OyBzcmM6IHVybCgiLy9hdC5hbGljZG4uY29tL3QvZm9udF8xMDMxMTU4X3U2OXc4eWh4ZHUud29mZjI/dD0xNjMwMDMzNzU5OTQ0IikgZm9ybWF0KCJ3b2ZmMiIpLCB1cmwoIi8vYXQuYWxpY2RuLmNvbS90L2ZvbnRfMTAzMTE1OF91Njl3OHloeGR1LndvZmY/dD0xNjMwMDMzNzU5OTQ0IikgZm9ybWF0KCJ3b2ZmIiksIHVybCgiLy9hdC5hbGljZG4uY29tL3QvZm9udF8xMDMxMTU4X3U2OXc4eWh4ZHUudHRmP3Q9MTYzMDAzMzc1OTk0NCIpIGZvcm1hdCgidHJ1ZXR5cGUiKTsgfSYjeGE7PC9zdHlsZT48L2RlZnM+PHBhdGggZD0iTTk2MCA0Mi42NjY2NjdINjRjLTEyLjggMC0yMS4zMzMzMzMgOC41MzMzMzMtMjEuMzMzMzMzIDIxLjMzMzMzM3Y4OTZjMCAxMi44IDguNTMzMzMzIDIxLjMzMzMzMyAyMS4zMzMzMzMgMjEuMzMzMzMzaDg5NmMxMi44IDAgMjEuMzMzMzMzLTguNTMzMzMzIDIxLjMzMzMzMy0yMS4zMzMzMzNWNjRjMC0xMi44LTguNTMzMzMzLTIxLjMzMzMzMy0yMS4zMzMzMzMtMjEuMzMzMzMzeiBtLTIxLjMzMzMzMyA4OTZIODUuMzMzMzMzVjY4Mi42NjY2NjdoODUzLjMzMzMzNHYyNTZ6IG0wLTI5OC42NjY2NjdIODUuMzMzMzMzVjM4NGg4NTMuMzMzMzM0djI1NnogbTAtMjk4LjY2NjY2N0g4NS4zMzMzMzNWODUuMzMzMzMzaDg1My4zMzMzMzR2MjU2ek0yOTguNjY2NjY3IDc2OGgtNDIuNjY2NjY3djg1LjMzMzMzM2g0Mi42NjY2Njd2LTg1LjMzMzMzM3ogbS04NS4zMzMzMzQgMEgxNzAuNjY2NjY3djg1LjMzMzMzM2g0Mi42NjY2NjZ2LTg1LjMzMzMzM3ogbTY2MS4zMzMzMzQgMjEuMzMzMzMzaC0xNzAuNjY2NjY3djQyLjY2NjY2N2gxNzAuNjY2NjY3di00Mi42NjY2Njd6TTI5OC42NjY2NjcgNDY5LjMzMzMzM2gtNDIuNjY2NjY3djg1LjMzMzMzNGg0Mi42NjY2Njd2LTg1LjMzMzMzNHogbS04NS4zMzMzMzQgMEgxNzAuNjY2NjY3djg1LjMzMzMzNGg0Mi42NjY2NjZ2LTg1LjMzMzMzNHogbTY2MS4zMzMzMzQgMjEuMzMzMzM0aC0xNzAuNjY2NjY3djQyLjY2NjY2NmgxNzAuNjY2NjY3di00Mi42NjY2NjZ6TTI5OC42NjY2NjcgMTcwLjY2NjY2N2gtNDIuNjY2NjY3djg1LjMzMzMzM2g0Mi42NjY2NjdWMTcwLjY2NjY2N3ogbS04NS4zMzMzMzQgMEgxNzAuNjY2NjY3djg1LjMzMzMzM2g0Mi42NjY2NjZWMTcwLjY2NjY2N3ogbTY2MS4zMzMzMzQgMjEuMzMzMzMzaC0xNzAuNjY2NjY3djQyLjY2NjY2N2gxNzAuNjY2NjY3VjE5MnoiLz48L3N2Zz4=;" parent="1" vertex="1">
          <mxGeometry x="2341.53" y="2818" width="373" height="373" as="geometry" />
        </mxCell>
        <mxCell id="hg0nlkvwgH0ZP0_xZrHD-21" value="" style="shape=image;verticalLabelPosition=bottom;labelBackgroundColor=default;verticalAlign=top;aspect=fixed;imageAspect=0;image=data:image/svg+xml,PHN2ZyB4bWxuczp4bGluaz0iaHR0cDovL3d3dy53My5vcmcvMTk5OS94bGluayIgeG1sbnM9Imh0dHA6Ly93d3cudzMub3JnLzIwMDAvc3ZnIiBoZWlnaHQ9IjIwMCIgd2lkdGg9IjIwMCIgdmVyc2lvbj0iMS4xIiB2aWV3Qm94PSIwIDAgMTAyNCAxMDI0IiBjbGFzcz0iaWNvbiI+PGRlZnM+PHN0eWxlIHR5cGU9InRleHQvY3NzIj5AZm9udC1mYWNlIHsgZm9udC1mYW1pbHk6IGZlZWRiYWNrLWljb25mb250OyBzcmM6IHVybCgiLy9hdC5hbGljZG4uY29tL3QvZm9udF8xMDMxMTU4X3U2OXc4eWh4ZHUud29mZjI/dD0xNjMwMDMzNzU5OTQ0IikgZm9ybWF0KCJ3b2ZmMiIpLCB1cmwoIi8vYXQuYWxpY2RuLmNvbS90L2ZvbnRfMTAzMTE1OF91Njl3OHloeGR1LndvZmY/dD0xNjMwMDMzNzU5OTQ0IikgZm9ybWF0KCJ3b2ZmIiksIHVybCgiLy9hdC5hbGljZG4uY29tL3QvZm9udF8xMDMxMTU4X3U2OXc4eWh4ZHUudHRmP3Q9MTYzMDAzMzc1OTk0NCIpIGZvcm1hdCgidHJ1ZXR5cGUiKTsgfSYjeGE7PC9zdHlsZT48L2RlZnM+PHBhdGggY2xhc3M9InNlbGVjdGVkIiBkYXRhLXNwbS1hbmNob3ItaWQ9ImEzMTN4Ljc3ODEwNjkuMC5pMjAiIGZpbGw9IiMyYzJjMmMiIGQ9Ik05NiA0MTQuMjcyaDgyMS45NTJ2NDY2LjY1Nkg5NnoiLz48cGF0aCBjbGFzcz0ic2VsZWN0ZWQiIGRhdGEtc3BtLWFuY2hvci1pZD0iYTMxM3guNzc4MTA2OS4wLmkyMiIgZmlsbD0iIzJjMmMyYyIgZD0iTTg4OC4zODQgOTI2LjE0NEgxMzUuNjE2YTcxLjQ1NiA3MS40NTYgMCAwIDEtNzEuNTItNzEuMjMyVjE4MS42MzJhODcuMjY0IDg3LjI2NCAwIDAgMSA4MS4wNTYtODYuNzUyIDIyLjc1MiAyMi43NTIgMCAwIDEgNS45Mi0wLjQ4aDE3Mi4yODhjMzcuNDcyIDAgNzguMTQ0IDIxLjc2IDk4LjkxMiA1Mi44OTZsMzIuODk2IDQ5LjM0NGMyLjQzMiAzLjIgMTEuMjMyIDcuOTA0IDE1LjIzMiA4LjEyOGw0MDIuNDk2IDAuMTZjNDggMCA4Ny4wNCAzOS4wMDggODcuMDQgODYuOTc2djU2My4wNGE3MS40ODggNzEuNDg4IDAgMCAxLTcxLjU1MiA3MS4yek0xNTEuMDcyIDE1OC4yMDhjLTEzLjY2NCAxLjE1Mi0yMy4xNjggMTEuMjk2LTIzLjE2OCAyMy40MjR2NjczLjMxMmMwIDQuMDk2IDMuNDU2IDcuMzkyIDcuNzEyIDcuMzkyaDc1Mi43NjhhNy41ODQgNy41ODQgMCAwIDAgNy43MTItNy4zOTJWMjkxLjkwNGEyMy4yMzIgMjMuMjMyIDAgMCAwLTIzLjIzMi0yMy4xNjhsLTQwMi42MjQtMC4xNmMtMjQuNzM2IDAtNTQuNzUyLTE2LjEyOC02OC4yODgtMzYuNjcyTDM2OS4xODQgMTgyLjcyYy04LjgzMi0xMy4yOC0yOS44MjQtMjQuNTEyLTQ1LjgyNC0yNC41MTJIMTUxLjA3MnoiLz48cGF0aCBjbGFzcz0ic2VsZWN0ZWQiIGRhdGEtc3BtLWFuY2hvci1pZD0iYTMxM3guNzc4MTA2OS4wLmkyMyIgZmlsbD0iIzJjMmMyYyIgZD0iTTkyOCA0NDYuMjcySDk2YTMyIDMyIDAgMCAxIDAtNjRoODMyYTMyIDMyIDAgMSAxIDAgNjR6Ii8+PHBhdGggY2xhc3M9IiIgZGF0YS1zcG0tYW5jaG9yLWlkPSJhMzEzeC43NzgxMDY5LjAuaTIxIiBmaWxsPSIjNDBEMUU3IiBkPSJNMjM1LjcxMiA3MzQuMjRWNTk2LjhoNzAuNzg0YzEzLjEyIDAgMjMuMTY4IDEuMTIgMzAuMDggMy4zNmEzMiAzMiAwIDAgMSAxNi43NjggMTIuNTEyYzQuMjI0IDYuMDggNi4zNjggMTMuNTA0IDYuMzY4IDIyLjI3MiAwIDcuNjE2LTEuNjMyIDE0LjIwOC00Ljg2NCAxOS43NDRzLTcuNzQ0IDEwLjAxNi0xMy40MDggMTMuNDRhNTEuNzc2IDUxLjc3NiAwIDAgMS0xNC45MTIgNS40NGM1LjA1NiAxLjcyOCA4LjczNiAzLjMyOCAxMS4wNCA1LjA1NiAxLjU2OCAxLjEyIDMuODQgMy41MiA2Ljc4NCA3LjIzMiAyLjk3NiAzLjY4IDQuOTYgNi41NiA1Ljk1MiA4LjU3NmwyMC41NzYgMzkuODA4aC00OGwtMjIuNjg4LTQyLjAxNmMtMi44OC01LjQ0LTUuNDQtOC45MjgtNy42OC0xMC41OTJhMTguMTc2IDE4LjE3NiAwIDAgMC0xMC40LTMuMmgtMy43NDR2NTUuNzc2SDIzNS43MTJ2MC4wMzJ6IG00Mi42NTYtODEuNjY0aDE3LjkyYzEuOTUyIDAgNS42OTYtMC42NzIgMTEuMjY0LTEuOTJhMTEuMzkyIDExLjM5MiAwIDAgMCA2Ljg4LTQuMzIgMTIuOCAxMi44IDAgMCAwIDIuNjU2LTcuOTY4YzAtNC40NDgtMS40MDgtNy44NC00LjIyNC0xMC4yMDgtMi44MTYtMi4zMzYtOC4wOTYtMy41Mi0xNS44NC0zLjUyaC0xOC42NTZ2MjcuOTM2ek00ODguMDY0IDY5NC4wMTZoLTc2LjUxMmMwLjY3MiA2LjA4IDIuMzM2IDEwLjY4OCA0Ljk2IDEzLjY5NmExOC4wNDggMTguMDQ4IDAgMCAwIDE0LjQzMiA2LjQzMiAyMS4xODQgMjEuMTg0IDAgMCAwIDEwLjY4OC0yLjgxNiAyNS45MiAyNS45MiAwIDAgMCA2LjY1Ni02LjI0bDM3LjYgMy40MjRjLTUuNzYgMTAuMDE2LTEyLjY3MiAxNy4xODQtMjAuOCAyMS41MDQtOC4xMjggNC4zNTItMTkuNzc2IDYuNTYtMzQuOTc2IDYuNTYtMTMuMTg0IDAtMjMuNTUyLTEuODg4LTMxLjEzNi01LjZhNDUuNDQgNDUuNDQgMCAwIDEtMTguNzg0LTE3LjcyOCA1My41NjggNTMuNTY4IDAgMCAxLTcuNDU2LTI4LjU3NmMwLTE1LjUyIDQuOTkyLTI4LjEyOCAxNC45NDQtMzcuNzkyIDkuOTUyLTkuNjMyIDIzLjc0NC0xNC40IDQxLjMxMi0xNC40IDE0LjI0IDAgMjUuNTA0IDIuMTEyIDMzLjc2IDYuNDMyczE0LjUyOCAxMC41NiAxOC44NDggMTguNzUyYzQuMzIgOC4xOTIgNi40NjQgMTguODggNi40NjQgMzEuOTY4djQuMzg0eiBtLTM4LjgxNi0xOC4zMzZjLTAuNzM2LTcuMzYtMi43Mi0xMi42NzItNS45NTItMTUuODRzLTcuNDU2LTQuNzY4LTEyLjcwNC00Ljc2OGExNy4xODQgMTcuMTg0IDAgMCAwLTE0LjUyOCA3LjI2NGMtMi4zMDQgMy4wMDgtMy43NzYgNy40MjQtNC40MTYgMTMuNDA4bDM3LjYtMC4wNjR6TTYwNi4wMTYgNTk2Ljh2MTM3LjQ0aC0zNS42OHYtMTQuNjg4Yy00Ljk5MiA2LjI0LTkuNTY4IDEwLjQzMi0xMy42OTYgMTIuNjcyYTM4LjYyNCAzOC42MjQgMCAwIDEtMTguMzY4IDQuMzUyYy0xMy41NjggMC0yMy45NjgtNS4xODQtMzEuMDcyLTE1LjQ1Ni03LjEzNi0xMC4zMDQtMTAuNzItMjIuODQ4LTEwLjcyLTM3LjYgMC0xNi41NDQgMy45NjgtMjkuMTIgMTEuODcyLTM3LjkyYTM4LjcyIDM4LjcyIDAgMCAxIDMwLjE0NC0xMy4wODhjNS45ODQgMCAxMS4zMjggMC45NiAxNi4xNiAzLjAwOCA0LjggMi4wMTYgOS4xNTIgNC45OTIgMTIuODY0IDguOTkydi00Ny42MTZoMzguNDk2di0wLjA5NnogbS0zOC4yNzIgODcuNDI0YzAtNy43NzYtMS42OTYtMTMuNjMyLTQuOTYtMTcuNDcycy03LjQ1Ni01Ljc2LTEyLjYwOC01Ljc2YTEzLjgyNCAxMy44MjQgMCAwIDAtMTEuMTM2IDUuNTM2Yy0zLjA0IDMuNjQ4LTQuNTQ0IDkuOTItNC41NDQgMTguNTYgMCA4LjEyOCAxLjUzNiAxNC4wOCA0LjY3MiAxNy44NTZhMTQuMjQgMTQuMjQgMCAwIDAgMTEuNDU2IDUuNjk2YzQuODMyIDAgOC44OTYtMS45NTIgMTIuMTkyLTUuNzZzNC45MjgtMTAuMDggNC45MjgtMTguNjU2ek02MjYuMjQgNTk2LjhoMzguMTEydjI2LjAxNkg2MjYuMjR2LTI2LjAxNnogbTAgMzcuOTJoMzguMTEydjk5LjUySDYyNi4yNHYtOTkuNTJ6TTY3Ny40MDggNzA2LjYyNGwzNy45Mi0zLjU1MmExOC45NzYgMTguOTc2IDAgMCAwIDYuNTYgOS42OTYgMTkuMzkyIDE5LjM5MiAwIDAgMCAxMS4yNjQgMi45MTJjNS4xMiAwIDkuMDU2LTEuMDg4IDExLjkwNC0zLjMyOGE3LjQ1NiA3LjQ1NiAwIDAgMCAzLjI5Ni02LjA4YzAtMi43NTItMS40NC00LjgzMi00LjMyLTYuMzM2LTIuMDQ4LTEuMDU2LTcuNDg4LTIuMzY4LTE2LjQ0OC0zLjkzNi0xMy4yMTYtMi4zMDQtMjIuNDMyLTQuNDgtMjcuNTg0LTYuNDMycy05LjUwNC01LjI4LTEzLjAyNC05Ljk4NGEyNi4yMDggMjYuMjA4IDAgMCAxLTUuMzEyLTE2YzAtNi41NiAxLjk1Mi0xMi4xOTIgNS43Ni0xNi45NnM5LjA1Ni04LjI4OCAxNS43NDQtMTAuNjI0IDE1LjYxNi0zLjUyIDI2Ljg4LTMuNTJjMTEuODcyIDAgMjAuNjcyIDAuODk2IDI2LjMwNCAyLjc1MiA1LjY5NiAxLjgyNCAxMC4zNjggNC42NCAxNC4xNDQgOC40NDhzNi45MTIgOC45MjggOS40MDggMTUuNDI0bC0zNi4xOTIgMy41NTJhMTIuNTQ0IDEyLjU0NCAwIDAgMC00LjY3Mi03LjA3MiAxOS4wNzIgMTkuMDcyIDAgMCAwLTEwLjg4LTMuMDA4Yy00LjMyIDAtNy40MjQgMC43NjgtOS40MDggMi4zMDQtMS45ODQgMS41NjgtMi45NDQgMy4zNi0yLjk0NCA1LjU2OCAwIDIuNDMyIDEuMjQ4IDQuMzIgMy43MTIgNS41NjggMi40OTYgMS4yNDggNy45MzYgMi4zMzYgMTYuMzUyIDMuMzI4IDEyLjY3MiAxLjQ0IDIyLjA4IDMuMzkyIDI4LjMyIDYuMDE2YTMxLjA0IDMxLjA0IDAgMCAxIDE0LjIwOCAxMC45NDQgMjYuODE2IDI2LjgxNiAwIDAgMSA0LjkyOCAxNS42MTYgMzAuNTkyIDMwLjU5MiAwIDAgMS01LjI0OCAxNi43NjhjLTMuNDI0IDUuNDQtOC44OTYgOS43OTItMTYuNDE2IDEyLjk2LTcuNDU2IDMuMjMyLTE3LjYzMiA0LjgtMzAuNTI4IDQuOC0xOC4xNzYgMC0zMS4xMzYtMi41Ni0zOC44NDgtNy43NDRzLTEyLjczNi0xMi41MTItMTQuODgtMjIuMDh6Ii8+PC9zdmc+;" parent="1" vertex="1">
          <mxGeometry x="2382" y="3732" width="293" height="293" as="geometry" />
        </mxCell>
        <mxCell id="hg0nlkvwgH0ZP0_xZrHD-23" value="&lt;font style=&quot;font-size: 49px;&quot;&gt;上线队列服务器&lt;/font&gt;" style="text;html=1;strokeColor=none;fillColor=none;align=center;verticalAlign=middle;whiteSpace=wrap;rounded=0;labelBackgroundColor=none;fontSize=22;fontColor=#000000;" parent="1" vertex="1">
          <mxGeometry x="1400" y="3151" width="432.04" height="95" as="geometry" />
        </mxCell>
        <mxCell id="hg0nlkvwgH0ZP0_xZrHD-24" value="&lt;font style=&quot;font-size: 49px;&quot;&gt;OIDB&lt;/font&gt;" style="text;html=1;strokeColor=none;fillColor=none;align=center;verticalAlign=middle;whiteSpace=wrap;rounded=0;labelBackgroundColor=none;fontSize=22;fontColor=#000000;" parent="1" vertex="1">
          <mxGeometry x="2312.01" y="2337" width="432.04" height="95" as="geometry" />
        </mxCell>
        <mxCell id="hg0nlkvwgH0ZP0_xZrHD-25" value="&lt;font style=&quot;font-size: 49px;&quot;&gt;PUSH服务器&lt;/font&gt;" style="text;html=1;strokeColor=none;fillColor=none;align=center;verticalAlign=middle;whiteSpace=wrap;rounded=0;labelBackgroundColor=none;fontSize=22;fontColor=#CC0000;fontStyle=1" parent="1" vertex="1">
          <mxGeometry x="2313.53" y="3209" width="432.04" height="95" as="geometry" />
        </mxCell>
        <mxCell id="hg0nlkvwgH0ZP0_xZrHD-26" value="&lt;font style=&quot;font-size: 49px;&quot;&gt;msgAgents&lt;/font&gt;" style="text;html=1;strokeColor=none;fillColor=none;align=center;verticalAlign=middle;whiteSpace=wrap;rounded=0;labelBackgroundColor=none;fontSize=22;fontColor=#000000;" parent="1" vertex="1">
          <mxGeometry x="3262.53" y="3181" width="432.04" height="95" as="geometry" />
        </mxCell>
        <mxCell id="hg0nlkvwgH0ZP0_xZrHD-27" value="&lt;span style=&quot;font-size: 49px;&quot;&gt;Android&lt;/span&gt;" style="text;html=1;strokeColor=none;fillColor=none;align=center;verticalAlign=middle;whiteSpace=wrap;rounded=0;labelBackgroundColor=none;fontSize=22;fontColor=#000000;" parent="1" vertex="1">
          <mxGeometry x="4003.5299999999997" y="3128" width="432.04" height="95" as="geometry" />
        </mxCell>
        <mxCell id="hg0nlkvwgH0ZP0_xZrHD-28" value="" style="endArrow=classic;html=1;rounded=0;fontSize=49;fontColor=#CC0000;strokeWidth=7;" parent="1" edge="1">
          <mxGeometry width="50" height="50" relative="1" as="geometry">
            <mxPoint x="3742.5300000000007" y="2803" as="sourcePoint" />
            <mxPoint x="4071.529999999999" y="2451" as="targetPoint" />
          </mxGeometry>
        </mxCell>
        <mxCell id="hg0nlkvwgH0ZP0_xZrHD-29" value="" style="shape=image;verticalLabelPosition=bottom;labelBackgroundColor=default;verticalAlign=top;aspect=fixed;imageAspect=0;image=data:image/svg+xml,PHN2ZyB4bWxuczp4bGluaz0iaHR0cDovL3d3dy53My5vcmcvMTk5OS94bGluayIgeG1sbnM9Imh0dHA6Ly93d3cudzMub3JnLzIwMDAvc3ZnIiBoZWlnaHQ9IjIwMCIgd2lkdGg9IjIwMCIgdmVyc2lvbj0iMS4xIiB2aWV3Qm94PSIwIDAgMTAyNCAxMDI0IiBjbGFzcz0iaWNvbiI+PGRlZnM+PHN0eWxlIHR5cGU9InRleHQvY3NzIj5AZm9udC1mYWNlIHsgZm9udC1mYW1pbHk6IGZlZWRiYWNrLWljb25mb250OyBzcmM6IHVybCgiLy9hdC5hbGljZG4uY29tL3QvZm9udF8xMDMxMTU4X3U2OXc4eWh4ZHUud29mZjI/dD0xNjMwMDMzNzU5OTQ0IikgZm9ybWF0KCJ3b2ZmMiIpLCB1cmwoIi8vYXQuYWxpY2RuLmNvbS90L2ZvbnRfMTAzMTE1OF91Njl3OHloeGR1LndvZmY/dD0xNjMwMDMzNzU5OTQ0IikgZm9ybWF0KCJ3b2ZmIiksIHVybCgiLy9hdC5hbGljZG4uY29tL3QvZm9udF8xMDMxMTU4X3U2OXc4eWh4ZHUudHRmP3Q9MTYzMDAzMzc1OTk0NCIpIGZvcm1hdCgidHJ1ZXR5cGUiKTsgfSYjeGE7PC9zdHlsZT48L2RlZnM+PHBhdGggZD0iTTc1NS40NzI5NjEgNTQ1LjY0ODYzOGMtMS4xMjU2MTItMTY2LjA3ODk0NSA5Mi4xOTc4NjEtMTcwLjM3NjczNiA5Ni4zOTMzMjUtMTczLjAzNzI3NC01Mi40OTQ0NTQtNzYuNzQ2Mjc4LTEzNC4xNTI0OTMtODguODIxMDI1LTE2My4yMTM3NS04OS45NDY2MzctNjkuNDgwOTYzLTcuMDYwNjU4LTEzNS41ODUwOSA0MC4xMTI3MjEtMTcwLjg4ODM3OCA0MC4xMTI3MjEtMzUuMjAwOTU5IDAtODkuNjM5NjUyLTQwLjIxNTA0OS0xNDcuMjUwNTI1LTM5LjE5MTc2Ni03NS43MjI5OTQgMS4xMjU2MTItMTQ1LjYxMzI3MSA0My44OTg4NzEtMTg0LjcwMjcwOCAxMTEuNzQyNTgtNzguNjkwNTE3IDEzNi42MDgzNzQtMjAuMTU4Njg5IDMzOC45MTE1NjIgNTYuNTg3NTg5IDQ0OS42MzA4NTggMzcuNDUyMTgzIDU0LjIzNDAzNiA4Mi4xNjk2ODEgMTE1LjExOTQxNiAxNDAuOTA2MTY2IDExMi45NzA1MjEgNTYuNDg1MjYtMi4yNTEyMjQgNzcuODcxODktMzYuNjMzNTU3IDE0Ni4yMjcyNDEtMzYuNjMzNTU3czg3LjQ5MDc1NiAzNi42MzM1NTcgMTQ3LjM1Mjg1MyAzNS40MDU2MTZjNjAuNzgzMDUyLTEuMTI1NjEyIDk5LjM2MDg0Ny01NS4yNTczMiAxMzYuNTA2MDQ2LTEwOS42OTYwMTMgNDMuMDgwMjQ0LTYyLjkzMTk0OCA2MC43ODMwNTItMTIwLjc0NzQ3NyA2MS44MDYzMzYtMTIzLjgxNzMyOC0xLjMzMDI2OS0wLjYxMzk3LTExOC41OTg1ODEtNjYuODIwNDI2LTExOS44MjY1MjEtMTc3LjUzOTcyMkw3NTUuNDcyOTYxIDU0NS42NDg2MzggNzU1LjQ3Mjk2MSA1NDUuNjQ4NjM4eiIvPjxwYXRoIGQ9Ik01MTEuODI5MTEyIDI4OC4zOTUxMTVjMC0xMjMuMjAzMzU4IDk5Ljg3MjQ4OS0yMjMuMTc4MTc1IDIyMy4xNzgxNzUtMjIzLjE3ODE3NUM3MzUuMDA3Mjg3IDE4OC41MjI2MjYgNjM1LjAzMjQ2OSAyODguMzk1MTE1IDUxMS44MjkxMTIgMjg4LjM5NTExNXoiLz48L3N2Zz4=;" parent="1" vertex="1">
          <mxGeometry x="4136.48" y="2422.95" width="108.1" height="108.1" as="geometry" />
        </mxCell>
        <mxCell id="hg0nlkvwgH0ZP0_xZrHD-30" value="" style="shape=image;verticalLabelPosition=bottom;labelBackgroundColor=default;verticalAlign=top;aspect=fixed;imageAspect=0;image=data:image/svg+xml,PHN2ZyB4bWxuczp4bGluaz0iaHR0cDovL3d3dy53My5vcmcvMTk5OS94bGluayIgeG1sbnM9Imh0dHA6Ly93d3cudzMub3JnLzIwMDAvc3ZnIiBoZWlnaHQ9IjIwMCIgd2lkdGg9IjIwMCIgdmVyc2lvbj0iMS4xIiB2aWV3Qm94PSIwIDAgMTAyNCAxMDI0IiBjbGFzcz0iaWNvbiI+PGRlZnM+PHN0eWxlIHR5cGU9InRleHQvY3NzIj5AZm9udC1mYWNlIHsgZm9udC1mYW1pbHk6IGZlZWRiYWNrLWljb25mb250OyBzcmM6IHVybCgiLy9hdC5hbGljZG4uY29tL3QvZm9udF8xMDMxMTU4X3U2OXc4eWh4ZHUud29mZjI/dD0xNjMwMDMzNzU5OTQ0IikgZm9ybWF0KCJ3b2ZmMiIpLCB1cmwoIi8vYXQuYWxpY2RuLmNvbS90L2ZvbnRfMTAzMTE1OF91Njl3OHloeGR1LndvZmY/dD0xNjMwMDMzNzU5OTQ0IikgZm9ybWF0KCJ3b2ZmIiksIHVybCgiLy9hdC5hbGljZG4uY29tL3QvZm9udF8xMDMxMTU4X3U2OXc4eWh4ZHUudHRmP3Q9MTYzMDAzMzc1OTk0NCIpIGZvcm1hdCgidHJ1ZXR5cGUiKTsgfSYjeGE7PC9zdHlsZT48L2RlZnM+PHBhdGggZD0iTTcyNC4zNTA3MDcgNjMuMzUzNTM1SDI5Ny43ODc0NzVDMjUzLjMxMDcwNyA2My4zNTM1MzUgMjE3LjIxMjEyMSA5OS41NTU1NTYgMjE3LjIxMjEyMSAxNDMuOTI4ODg5djczNi4yNDU2NTZjMCA0NC40NzY3NjggMzYuMjAyMDIgODAuNTc1MzU0IDgwLjU3NTM1NCA4MC41NzUzNTRoNDI2LjU2MzIzMmM0NC40NzY3NjggMCA4MC41NzUzNTQtMzYuMjAyMDIgODAuNTc1MzU0LTgwLjU3NTM1NFYxNDMuOTI4ODg5YzAtNDQuNDc2NzY4LTM2LjA5ODU4Ni04MC41NzUzNTQtODAuNTc1MzU0LTgwLjU3NTM1NHpNMjk3Ljc4NzQ3NSAxMDQuNzI3MjczaDQyNi41NjMyMzJjMjEuNjE3Nzc4IDAgMzkuMjAxNjE2IDE3LjU4MzgzOCAzOS4yMDE2MTYgMzkuMjAxNjE2VjE3OS43MTcxNzJIMjU4LjU4NTg1OXYtMzUuNzg4MjgzQzI1OC41ODU4NTkgMTIyLjMxMTExMSAyNzYuMTY5Njk3IDEwNC43MjcyNzMgMjk3Ljc4NzQ3NSAxMDQuNzI3Mjczek0yNTguNTg1ODU5IDIyMS4wOTA5MDloNTA1LjA2OTg5OXY1MjcuNzIyMDJIMjU4LjU4NTg1OVYyMjEuMDkwOTA5eiBtNDY1Ljc2NDg0OCA2OTguMjg1MjUzSDI5Ny43ODc0NzVjLTIxLjYxNzc3OCAwLTM5LjIwMTYxNi0xNy41ODM4MzgtMzkuMjAxNjE2LTM5LjIwMTYxN3YtODkuOTg3ODc4aDUwNS4wNjk4OTl2ODkuOTg3ODc4Yy0wLjEwMzQzNCAyMS42MTc3NzgtMTcuNjg3MjczIDM5LjIwMTYxNi0zOS4zMDUwNTEgMzkuMjAxNjE3eiBtMCAwIi8+PHBhdGggZD0iTTQzNS45NzU3NTggMTQ5LjcyMTIxMmgxNTAuMDgzMjMyYzguMjc0NzQ3IDAgMTQuOTk3OTgtNi43MjMyMzIgMTQuOTk3OTgtMTQuOTk3OTggMC04LjI3NDc0Ny02LjcyMzIzMi0xNC45OTc5OC0xNC45OTc5OC0xNC45OTc5NzlINDM1Ljk3NTc1OGMtOC4yNzQ3NDcgMC0xNC45OTc5OCA2LjcyMzIzMi0xNC45OTc5OCAxNC45OTc5NzkgMCA4LjI3NDc0NyA2LjcyMzIzMiAxNC45OTc5OCAxNC45OTc5OCAxNC45OTc5OHogbTAgME00NTcuNDkwMTAxIDg1NS42NjA2MDZjMCAxOS4xMzUzNTQgMTAuMjE0MTQxIDM2LjgyMjYyNiAyNi43ODk0OTUgNDYuNDAzMjMyIDE2LjU3NTM1NCA5LjU2NzY3NyAzNy4wMDM2MzYgOS41Njc2NzcgNTMuNTc4OTkgMGE1My41NzUxMTEgNTMuNTc1MTExIDAgMCAwIDI2Ljc4OTQ5NS00Ni40MDMyMzJjMC0yOS41OTUxNTItMjMuOTgzODM4LTUzLjU3ODk5LTUzLjU3ODk5LTUzLjU3ODk5LTI5LjU5NTE1MiAwLTUzLjU3ODk5IDIzLjk4MzgzOC01My41Nzg5OSA1My41Nzg5OXogbTAgMCIvPjwvc3ZnPg==;" parent="1" vertex="1">
          <mxGeometry x="4057.5299999999997" y="2353.5" width="261" height="261" as="geometry" />
        </mxCell>
        <mxCell id="hg0nlkvwgH0ZP0_xZrHD-31" value="&lt;span style=&quot;font-size: 49px;&quot;&gt;iOS MQQ&lt;/span&gt;" style="text;html=1;strokeColor=none;fillColor=none;align=center;verticalAlign=middle;whiteSpace=wrap;rounded=0;labelBackgroundColor=none;fontSize=22;fontColor=#000000;" parent="1" vertex="1">
          <mxGeometry x="3986.53" y="2614.5" width="432.04" height="95" as="geometry" />
        </mxCell>
        <mxCell id="hg0nlkvwgH0ZP0_xZrHD-32" value="" style="endArrow=classic;html=1;rounded=0;fontSize=49;fontColor=#CC0000;strokeWidth=7;exitX=1;exitY=0.5;exitDx=0;exitDy=0;" parent="1" source="hg0nlkvwgH0ZP0_xZrHD-26" edge="1">
          <mxGeometry width="50" height="50" relative="1" as="geometry">
            <mxPoint x="3823.53" y="3244" as="sourcePoint" />
            <mxPoint x="4076.529999999999" y="3655" as="targetPoint" />
          </mxGeometry>
        </mxCell>
        <mxCell id="hg0nlkvwgH0ZP0_xZrHD-33" value="" style="shape=image;verticalLabelPosition=bottom;labelBackgroundColor=default;verticalAlign=top;aspect=fixed;imageAspect=0;image=data:image/svg+xml,PHN2ZyB4bWxuczp4bGluaz0iaHR0cDovL3d3dy53My5vcmcvMTk5OS94bGluayIgeG1sbnM9Imh0dHA6Ly93d3cudzMub3JnLzIwMDAvc3ZnIiBoZWlnaHQ9IjIwMCIgd2lkdGg9IjI0OS4yMTg3NSIgdmVyc2lvbj0iMS4xIiB2aWV3Qm94PSIwIDAgMTI3NiAxMDI0IiBjbGFzcz0iaWNvbiI+PGRlZnM+PHN0eWxlIHR5cGU9InRleHQvY3NzIj5AZm9udC1mYWNlIHsgZm9udC1mYW1pbHk6IGZlZWRiYWNrLWljb25mb250OyBzcmM6IHVybCgiLy9hdC5hbGljZG4uY29tL3QvZm9udF8xMDMxMTU4X3U2OXc4eWh4ZHUud29mZjI/dD0xNjMwMDMzNzU5OTQ0IikgZm9ybWF0KCJ3b2ZmMiIpLCB1cmwoIi8vYXQuYWxpY2RuLmNvbS90L2ZvbnRfMTAzMTE1OF91Njl3OHloeGR1LndvZmY/dD0xNjMwMDMzNzU5OTQ0IikgZm9ybWF0KCJ3b2ZmIiksIHVybCgiLy9hdC5hbGljZG4uY29tL3QvZm9udF8xMDMxMTU4X3U2OXc4eWh4ZHUudHRmP3Q9MTYzMDAzMzc1OTk0NCIpIGZvcm1hdCgidHJ1ZXR5cGUiKTsgfSYjeGE7PC9zdHlsZT48L2RlZnM+PHBhdGggZmlsbD0iI0IwRTU1QyIgZD0iTTYxLjUzOTE2NSA2NTcuMzM1NTdoMTIwNy40MjAxOTl2MTYwLjc0NTgwNkg2MS41MzkxNjV6Ii8+PHBhdGggZmlsbD0iIzY5NDk0RCIgZD0iTTEyNjguNjU0OTIxIDYyNS44NzY0NzlIOC4wNTg3MTFhNy4yMDUxNDcgNy4yMDUxNDcgMCAxIDEgMC0xNC4zMDg4MTJIMTI2OC42NTQ5MjFhNy4yMDUxNDcgNy4yMDUxNDcgMCAxIDEgMCAxNC4zMDg4MTJ6TTg1OS40ODM3OCA5MjYuMjYwMDU1SDQxNy41MzQyOTVhNy42MTEwNyA3LjYxMTA3IDAgMCAxLTcuOTE1NTEzLTcuMjA1MTQ2di0xMDEuNDgwOTM4YTcuNjExMDcgNy42MTEwNyAwIDAgMSA3LjkxNTUxMy03LjIwNTE0N2g0NDEuOTQ5NDg1YTcuNjExMDcgNy42MTEwNyAwIDAgMSA3LjkxNTUxMyA3LjIwNTE0N3YxMDEuNDgwOTM4YTcuNjExMDcgNy42MTEwNyAwIDAgMS03LjkxNTUxMyA3LjIwNTE0NnogbS00MzQuMDMzOTcyLTE0LjQxMDI5M2g0MjYuMjE5OTM5di04Ni42NjQ3MjFoLTQyNi4yMTk5Mzl6Ii8+PHBhdGggZmlsbD0iIzY5NDk0RCIgZD0iTTkyNi4yNTgyMzcgMTAyMy45ODYxOTloLTU3NS4zOTY5MThhOC4xMTg0NzUgOC4xMTg0NzUgMCAwIDEtNi43OTkyMjMtMy41NTE4MzMgNi41OTYyNjEgNi41OTYyNjEgMCAwIDEgMC03LjEwMzY2Nkw0MDUuNDU4MDY0IDkxMy4zNzE5NzZhOC4xMTg0NzUgOC4xMTg0NzUgMCAwIDEgNi45MDA3MDMtMy42NTMzMTNoNDUyLjMwMDU0YTguMTE4NDc1IDguMTE4NDc1IDAgMCAxIDYuOTAwNzA0IDMuNjUzMzEzbDYxLjU5ODkzIDEwMC4zNjQ2NDhhNi41OTYyNjEgNi41OTYyNjEgMCAwIDEgMCA3LjEwMzY2NiA4LjExODQ3NSA4LjExODQ3NSAwIDAgMS02LjkwMDcwNCAzLjE0NTkwOXogbS01NjEuODk5OTUzLTE0LjQxMDI5NGg1NDcuOTk3MDY0TDg1OS45OTExODQgOTIzLjUyMDA3SDQxNy4xMjgzNzF6TTEyMzMuMjM4MDc0IDgyNS4xODUwNDFINDMuNzgwMDAxQTQxLjgxMDE0NiA0MS44MTAxNDYgMCAwIDEgMC4xNDMxOTggNzg1LjcwODk1NlYzOS41MTk2MkE0MS44MTAxNDYgNDEuODEwMTQ2IDAgMCAxIDQzLjc4MDAwMSAwLjA0MzUzNWgxMTg5LjQ1ODA3M2E0MS44MTAxNDYgNDEuODEwMTQ2IDAgMCAxIDQzLjYzNjgwMyAzOS40NzYwODV2NzQ2LjE4OTMzNmE0MS44MTAxNDYgNDEuODEwMTQ2IDAgMCAxLTQzLjYzNjgwMyAzOS40NzYwODV6TTQzLjc4MDAwMSAxNC4zNTIzNDhhMjYuNTg4MDA2IDI2LjU4ODAwNiAwIDAgMC0yNy44MDU3NzcgMjUuMTY3Mjcydjc0Ni4xODkzMzZBMjYuNTg4MDA2IDI2LjU4ODAwNiAwIDAgMCA0My43ODAwMDEgODEwLjg3NjIyOWgxMTg5LjQ1ODA3M2EyNi41ODgwMDYgMjYuNTg4MDA2IDAgMCAwIDI3LjgwNTc3Ny0yNS4xNjcyNzNWMzkuNTE5NjJhMjYuNTg4MDA2IDI2LjU4ODAwNiAwIDAgMC0yNy44MDU3NzctMjUuMTY3MjcyeiIvPjxwYXRoIGZpbGw9IiM2OTQ5NEQiIGQ9Ik02MzguNTU5Nzc4IDczNy43MDg0NzNtLTIzLjc0NjU0IDBhMjMuNzQ2NTM5IDIzLjc0NjUzOSAwIDEgMCA0Ny40OTMwNzkgMCAyMy43NDY1MzkgMjMuNzQ2NTM5IDAgMSAwLTQ3LjQ5MzA3OSAwWiIvPjwvc3ZnPg==;" parent="1" vertex="1">
          <mxGeometry x="4088.5299999999997" y="3532" width="273.09" height="219.35" as="geometry" />
        </mxCell>
        <mxCell id="hg0nlkvwgH0ZP0_xZrHD-34" value="&lt;font style=&quot;font-size: 49px;&quot;&gt;PC&lt;/font&gt;" style="text;html=1;strokeColor=none;fillColor=none;align=center;verticalAlign=middle;whiteSpace=wrap;rounded=0;labelBackgroundColor=none;fontSize=22;fontColor=#000000;" parent="1" vertex="1">
          <mxGeometry x="4117.53" y="3771" width="250.09" height="95" as="geometry" />
        </mxCell>
        <mxCell id="hg0nlkvwgH0ZP0_xZrHD-35" value="&lt;font color=&quot;#000000&quot;&gt;登录信息(uin)&lt;/font&gt;" style="text;html=1;strokeColor=none;fillColor=none;align=center;verticalAlign=middle;whiteSpace=wrap;rounded=0;dashed=1;labelBackgroundColor=none;fontSize=49;fontColor=#CC0000;" parent="1" vertex="1">
          <mxGeometry x="1969" y="2887" width="207" height="99" as="geometry" />
        </mxCell>
        <mxCell id="hg0nlkvwgH0ZP0_xZrHD-36" value="&lt;font style=&quot;font-size: 30px;&quot; color=&quot;#000000&quot;&gt;0X860 拉取讨论组信息&lt;br&gt;0X5d5 拉取群信息&lt;br&gt;&lt;/font&gt;" style="text;html=1;strokeColor=none;fillColor=none;align=center;verticalAlign=middle;whiteSpace=wrap;rounded=0;dashed=1;labelBackgroundColor=none;fontSize=49;fontColor=#CC0000;" parent="1" vertex="1">
          <mxGeometry x="2149.53" y="2527" width="354" height="99" as="geometry" />
        </mxCell>
        <mxCell id="hg0nlkvwgH0ZP0_xZrHD-37" style="edgeStyle=orthogonalEdgeStyle;rounded=0;orthogonalLoop=1;jettySize=auto;html=1;fontSize=49;fontColor=#000000;strokeWidth=7;verticalAlign=top;" parent="1" edge="1">
          <mxGeometry relative="1" as="geometry">
            <mxPoint x="2550.5300000000007" y="2449.000000000001" as="sourcePoint" />
            <mxPoint x="2550.5300000000007" y="2818" as="targetPoint" />
            <Array as="points">
              <mxPoint x="2550.53" y="2449" />
            </Array>
          </mxGeometry>
        </mxCell>
        <mxCell id="hg0nlkvwgH0ZP0_xZrHD-38" value="" style="endArrow=classic;html=1;rounded=0;fontSize=49;fontColor=#000000;strokeWidth=7;" parent="1" edge="1">
          <mxGeometry width="50" height="50" relative="1" as="geometry">
            <mxPoint x="2532.000000000001" y="3322" as="sourcePoint" />
            <mxPoint x="2532" y="3439" as="targetPoint" />
          </mxGeometry>
        </mxCell>
        <mxCell id="hg0nlkvwgH0ZP0_xZrHD-39" value="&lt;font style=&quot;font-size: 30px;&quot;&gt;&lt;font style=&quot;font-size: 30px;&quot; color=&quot;#000000&quot;&gt;遍历群列表，&lt;/font&gt;&lt;span style=&quot;color: rgb(0, 0, 0);&quot;&gt;&lt;font style=&quot;font-size: 30px;&quot;&gt;读房间信息&lt;/font&gt;&lt;/span&gt;&lt;/font&gt;&lt;font style=&quot;font-size: 30px;&quot; color=&quot;#000000&quot;&gt;&lt;br&gt;&lt;/font&gt;" style="text;html=1;strokeColor=none;fillColor=none;align=center;verticalAlign=middle;whiteSpace=wrap;rounded=0;dashed=1;labelBackgroundColor=none;fontSize=49;fontColor=#CC0000;" parent="1" vertex="1">
          <mxGeometry x="2129.56" y="3625" width="373.97" height="77" as="geometry" />
        </mxCell>
        <mxCell id="hg0nlkvwgH0ZP0_xZrHD-40" value="&lt;font style=&quot;font-size: 30px; line-height: 1;&quot; color=&quot;#000000&quot;&gt;返回roomInfoVec(用户加入的群/讨论组号)&lt;br&gt;&lt;/font&gt;" style="text;html=1;strokeColor=none;fillColor=none;align=center;verticalAlign=middle;whiteSpace=wrap;rounded=0;dashed=1;labelBackgroundColor=none;fontSize=49;fontColor=#CC0000;spacing=0;spacingTop=0;" parent="1" vertex="1">
          <mxGeometry x="2555.53" y="2562" width="199.5" height="99" as="geometry" />
        </mxCell>
        <mxCell id="hg0nlkvwgH0ZP0_xZrHD-41" value="&lt;font style=&quot;font-size: 46px;&quot;&gt;①&lt;/font&gt;" style="text;html=1;strokeColor=none;fillColor=none;align=center;verticalAlign=middle;whiteSpace=wrap;rounded=0;dashed=1;labelBackgroundColor=none;fontSize=30;fontColor=#000000;" parent="1" vertex="1">
          <mxGeometry x="2275.53" y="2489" width="60" height="30" as="geometry" />
        </mxCell>
        <mxCell id="hg0nlkvwgH0ZP0_xZrHD-42" value="&lt;font style=&quot;font-size: 46px;&quot;&gt;②&lt;/font&gt;" style="text;html=1;strokeColor=none;fillColor=none;align=center;verticalAlign=middle;whiteSpace=wrap;rounded=0;dashed=1;labelBackgroundColor=none;fontSize=30;fontColor=#000000;" parent="1" vertex="1">
          <mxGeometry x="2627.53" y="2469" width="60" height="30" as="geometry" />
        </mxCell>
        <mxCell id="hg0nlkvwgH0ZP0_xZrHD-45" value="&lt;span style=&quot;font-size: 46px;&quot;&gt;⑤&lt;/span&gt;" style="text;html=1;strokeColor=none;fillColor=none;align=center;verticalAlign=middle;whiteSpace=wrap;rounded=0;dashed=1;labelBackgroundColor=none;fontSize=30;fontColor=#000000;" parent="1" vertex="1">
          <mxGeometry x="2889.53" y="3026" width="60" height="30" as="geometry" />
        </mxCell>
        <mxCell id="hg0nlkvwgH0ZP0_xZrHD-46" value="&lt;font style=&quot;&quot; color=&quot;#000000&quot;&gt;&lt;span style=&quot;font-size: 30px;&quot;&gt;写入有音视频群的房间信息&lt;/span&gt;&lt;br&gt;&lt;/font&gt;" style="text;html=1;strokeColor=none;fillColor=none;align=center;verticalAlign=middle;whiteSpace=wrap;rounded=0;dashed=1;labelBackgroundColor=none;fontSize=49;fontColor=#CC0000;" parent="1" vertex="1">
          <mxGeometry x="3140" y="3723" width="209.21" height="125" as="geometry" />
        </mxCell>
        <mxCell id="hg0nlkvwgH0ZP0_xZrHD-47" value="&lt;font style=&quot;&quot; color=&quot;#000000&quot;&gt;&lt;span style=&quot;font-size: 30px;&quot;&gt;组包、下发S2C消息&lt;/span&gt;&lt;br&gt;&lt;span style=&quot;font-size: 30px;&quot;&gt;0X95(PC/手机)&lt;br&gt;0x91(手机并且带讨论组)&lt;/span&gt;&lt;br&gt;&lt;/font&gt;" style="text;html=1;strokeColor=none;fillColor=none;align=center;verticalAlign=middle;whiteSpace=wrap;rounded=0;dashed=1;labelBackgroundColor=none;fontSize=49;fontColor=#CC0000;" parent="1" vertex="1">
          <mxGeometry x="2727.53" y="2801" width="330" height="215.5" as="geometry" />
        </mxCell>
        <mxCell id="hg0nlkvwgH0ZP0_xZrHD-113" value="" style="shape=image;verticalLabelPosition=bottom;labelBackgroundColor=default;verticalAlign=top;aspect=fixed;imageAspect=0;image=data:image/svg+xml,PHN2ZyB4bWxuczp4bGluaz0iaHR0cDovL3d3dy53My5vcmcvMTk5OS94bGluayIgeG1sbnM9Imh0dHA6Ly93d3cudzMub3JnLzIwMDAvc3ZnIiBoZWlnaHQ9IjIwMCIgd2lkdGg9IjIwMCIgdmVyc2lvbj0iMS4xIiB2aWV3Qm94PSIwIDAgMTAyNCAxMDI0IiBjbGFzcz0iaWNvbiI+PGRlZnM+PHN0eWxlIHR5cGU9InRleHQvY3NzIj5AZm9udC1mYWNlIHsgZm9udC1mYW1pbHk6IGZlZWRiYWNrLWljb25mb250OyBzcmM6IHVybCgiLy9hdC5hbGljZG4uY29tL3QvZm9udF8xMDMxMTU4X3U2OXc4eWh4ZHUud29mZjI/dD0xNjMwMDMzNzU5OTQ0IikgZm9ybWF0KCJ3b2ZmMiIpLCB1cmwoIi8vYXQuYWxpY2RuLmNvbS90L2ZvbnRfMTAzMTE1OF91Njl3OHloeGR1LndvZmY/dD0xNjMwMDMzNzU5OTQ0IikgZm9ybWF0KCJ3b2ZmIiksIHVybCgiLy9hdC5hbGljZG4uY29tL3QvZm9udF8xMDMxMTU4X3U2OXc4eWh4ZHUudHRmP3Q9MTYzMDAzMzc1OTk0NCIpIGZvcm1hdCgidHJ1ZXR5cGUiKTsgfSYjeGE7PC9zdHlsZT48L2RlZnM+PHBhdGggZmlsbD0iIzJjMmMyYyIgZD0iTTU0NCA1NDQuMzRhMzY2LjI4IDM2Ni4yOCAwIDAgMSAxODAuNDIgNDcuMmwyLjQxIDEuMzhhNDAgNDAgMCAwIDAgNDAuMjUtNjkuMTZjLTEuMjYtMC43My0yLjU0LTEuNDUtMy44Mi0yLjE3YTQ0NC44MyA0NDQuODMgMCAwIDAtNjguMTktMzEuMTFBMjM5LjU0IDIzOS41NCAwIDAgMCA3ODQgMzA0YzAtMTMyLjU1LTEwNy40NS0yNDAtMjQwLTI0MFMzMDQgMTcxLjQ1IDMwNCAzMDRhMjM5LjQ5IDIzOS40OSAwIDAgMCA4OC45MSAxODYuNDZDMjE5LjgzIDU1Mi40NiA5NiA3MTcuOTMgOTYgOTEyLjM0djcuNThjMCAxLjA2IDAgMi4xIDAuMTMgMy4xM2E0MCA0MCAwIDAgMCA4MC0yLjg1di0wLjI4YzAtMC43MSAwLTEuNDEtMC4wNi0yLjExdi01LjQ4QzE3NiA3MDkuMSAzNDAuNzYgNTQ0LjM0IDU0NCA1NDQuMzR6TTU0NCAxNDRhMTYwIDE2MCAwIDEgMS0xNjAgMTYwIDE2MCAxNjAgMCAwIDEgMTYwLTE2MHoiLz48cGF0aCBmaWxsPSIjMmMyYzJjIiBkPSJNODk2IDcwNS41MWE0MCA0MCAwIDAgMC00MC00MEg1ODQuMDdMNTk1IDY1NC42YTQwIDQwIDAgMCAwLTU2LjU5LTU2LjZsLTc5LjE5IDc5LjJjLTAuNDcgMC40Ni0wLjkzIDAuOTQtMS4zNyAxLjQzLTAuMjEgMC4yMy0wLjQxIDAuNDctMC42MSAwLjcxcy0wLjQ1IDAuNTEtMC42NiAwLjc3bC0wLjczIDAuOTMtMC40NyAwLjZjLTAuMjUgMC4zNC0wLjUgMC42OS0wLjc0IDEtMC4xMyAwLjE4LTAuMjYgMC4zNi0wLjM4IDAuNTUtMC4yNCAwLjM2LTAuNDcgMC43Mi0wLjcgMS4wOWwtMC4zNSAwLjU2Yy0wLjIxIDAuMzYtMC40MiAwLjcyLTAuNjIgMS4wOHMtMC4yNCAwLjQyLTAuMzUgMC42My0wLjM2IDAuNjktMC41MyAxLTAuMjUgMC40OC0wLjM2IDAuNzItMC4zIDAuNjUtMC40NCAxbC0wLjM3IDAuODVjLTAuMTIgMC4yOS0wLjIzIDAuNTgtMC4zNCAwLjg3cy0wLjI2IDAuNjUtMC4zNyAxLTAuMTggMC41MS0wLjI2IDAuNzYtMC4yNSAwLjc0LTAuMzYgMS4xMmwtMC4yIDAuNjgtMC4zMyAxLjIyYy0wLjA1IDAuMjEtMC4wOSAwLjQyLTAuMTQgMC42My0wLjEgMC40My0wLjIgMC44NS0wLjI4IDEuMjdsLTAuMTIgMC42NmMtMC4wNyAwLjQyLTAuMTUgMC44My0wLjIxIDEuMjYgMCAwLjI1LTAuMDYgMC41LTAuMSAwLjc2cy0wLjEgMC43Ny0wLjE0IDEuMTYtMC4wNSAwLjY4LTAuMDcgMS0wLjA1IDAuNjItMC4wNyAwLjkzYzAgMC42Ni0wLjA1IDEuMzItMC4wNSAyIDAgMC42NiAwIDEuMzIgMC4wNSAyIDAgMC4zMSAwIDAuNjIgMC4wNyAwLjkzczAgMC42OCAwLjA3IDEgMC4wOSAwLjc4IDAuMTQgMS4xNyAwLjA2IDAuNSAwLjEgMC43NWMwLjA2IDAuNDMgMC4xNCAwLjg1IDAuMjEgMS4yN2wwLjEyIDAuNjVjMC4wOCAwLjQyIDAuMTggMC44NSAwLjI4IDEuMjcgMCAwLjIxIDAuMDkgMC40MiAwLjE0IDAuNjNsMC4zMyAxLjIyYzAuMDcgMC4yMyAwLjEzIDAuNDYgMC4yIDAuNjggMC4xMSAwLjM4IDAuMjMgMC43NSAwLjM2IDEuMTJzMC4xNiAwLjUxIDAuMjYgMC43NiAwLjI0IDAuNjcgMC4zNyAxIDAuMjIgMC41NyAwLjM0IDAuODYgMC4yNSAwLjU3IDAuMzcgMC44NiAwLjI5IDAuNjQgMC40NCAxIDAuMjQgMC40OCAwLjM2IDAuNzIgMC4zNSAwLjcgMC41MyAxbDAuMzUgMC42MiAwLjYyIDEuMDljMC4xMiAwLjE4IDAuMjQgMC4zNyAwLjM1IDAuNTYgMC4yMyAwLjM2IDAuNDYgMC43MiAwLjcgMS4wOCAwLjEyIDAuMTkgMC4yNiAwLjM3IDAuMzggMC41NSAwLjI0IDAuMzUgMC40OSAwLjcgMC43NCAxczAuMzEgMC40MSAwLjQ3IDAuNjEgMC40OCAwLjYyIDAuNzMgMC45MiAwLjQ0IDAuNTIgMC42NyAwLjc4IDAuMzkgMC40NyAwLjYgMC43YzAuODkgMSAxLjgyIDEuOTEgMi44IDIuOCAwLjIzIDAuMjEgMC40NiAwLjQgMC43IDAuNnMwLjUxIDAuNDYgMC43OCAwLjY3IDAuNjEgMC40OSAwLjkyIDAuNzMgMC40IDAuMzIgMC42MSAwLjQ3bDEgMC43M2MwLjE5IDAuMTMgMC4zNyAwLjI3IDAuNTYgMC4zOWwxLjA4IDAuNyAwLjU3IDAuMzUgMS4wOCAwLjYyIDAuNjMgMC4zNWMwLjM0IDAuMTkgMC42OSAwLjM2IDEgMC41M2wwLjcyIDAuMzYgMSAwLjQ0IDAuODYgMC4zNyAwLjg2IDAuMzQgMSAwLjM4IDAuNzYgMC4yNWMwLjM3IDAuMTMgMC43NCAwLjI1IDEuMTIgMC4zNmwwLjY3IDAuMiAxLjIzIDAuMzMgMC42MyAwLjE0YzAuNDIgMC4xIDAuODQgMC4yIDEuMjcgMC4yOGwwLjY1IDAuMTJjMC40MiAwLjA3IDAuODQgMC4xNSAxLjI3IDAuMjFsMC43NSAwLjEgMS4xOCAwLjE0IDEgMC4wN2MwLjMyIDAgMC42MyAwLjA2IDAuOTQgMC4wN0g4NTZhNDAgNDAgMCAwIDAgNDAtMzkuODN6TTk1OS40NSA4MzguODNjMC0wLjMyIDAtMC42Mi0wLjA3LTAuOTNzMC0wLjY4LTAuMDctMS0wLjA5LTAuNzgtMC4xNC0xLjE3LTAuMDYtMC41MS0wLjEtMC43NmMtMC4wNi0wLjQyLTAuMTQtMC44NC0wLjIxLTEuMjZsLTAuMTItMC42NWMtMC4wOC0wLjQzLTAuMTgtMC44NS0wLjI4LTEuMjctMC4wNS0wLjIyLTAuMDktMC40My0wLjE0LTAuNjRsLTAuMzMtMS4yMmMtMC4wNy0wLjIyLTAuMTMtMC40NS0wLjItMC42OHMtMC4yMy0wLjc0LTAuMzYtMS4xMi0wLjE3LTAuNTEtMC4yNi0wLjc2LTAuMjQtMC42Ni0wLjM3LTEtMC4yMi0wLjU4LTAuMzQtMC44NmwtMC4zNy0wLjg2Yy0wLjEyLTAuMjgtMC4yOS0wLjY0LTAuNDQtMXMtMC4yNC0wLjQ5LTAuMzYtMC43My0wLjM1LTAuNy0wLjUzLTEtMC4yMy0wLjQyLTAuMzUtMC42MmMtMC4yLTAuMzctMC40MS0wLjczLTAuNjItMS4wOS0wLjEyLTAuMTktMC4yNC0wLjM3LTAuMzUtMC41Ni0wLjIzLTAuMzctMC40Ni0wLjczLTAuNy0xLjA5LTAuMTItMC4xOC0wLjI2LTAuMzYtMC4zOC0wLjU1LTAuMjQtMC4zNS0wLjQ5LTAuNjktMC43NC0xbC0wLjQ3LTAuNi0wLjczLTAuOTNjLTAuMjEtMC4yNi0wLjQ0LTAuNTItMC42Ni0wLjc3cy0wLjQtMC40OC0wLjYxLTAuNzFjLTAuODktMS0xLjgyLTEuOTEtMi44LTIuNzlsLTAuNy0wLjYxYy0wLjI2LTAuMjItMC41MS0wLjQ1LTAuNzgtMC42N3MtMC42MS0wLjQ5LTAuOTItMC43M2wtMC42MS0wLjQ2Yy0wLjM0LTAuMjYtMC42OS0wLjUtMS0wLjc0bC0wLjU1LTAuMzktMS4wOC0wLjY5LTAuNTctMC4zNWMtMC4zNS0wLjIyLTAuNzItMC40My0xLjA4LTAuNjNsLTAuNjItMC4zNS0xLTAuNTMtMC43Mi0wLjM2LTEtMC40My0wLjg1LTAuMzgtMC44Ny0wLjM0LTEtMC4zNy0wLjc2LTAuMjZjLTAuMzctMC4xMi0wLjc0LTAuMjUtMS4xMi0wLjM2bC0wLjY4LTAuMTljLTAuNC0wLjEyLTAuODEtMC4yMy0xLjIyLTAuMzNsLTAuNjMtMC4xNS0xLjI3LTAuMjgtMC42Ni0wLjExLTEuMjYtMC4yMi0wLjc1LTAuMDktMS4xNy0wLjE0Yy0wLjM0IDAtMC42OSAwLTEtMC4wOGwtMC45Mi0wLjA3Yy0wLjY2IDAtMS4zMi0wLjA1LTItMC4wNUg1NTJhNDAgNDAgMCAwIDAtNDAgNDAgNDAgNDAgMCAwIDAgNDAgNDBoMjcwLjkzTDgxMiA4OTEuNzJhNDAgNDAgMCAwIDAgMCA1Ni41NiA0MCA0MCAwIDAgMCA1Ni41NyAwbDc5LjE5LTc5LjE5YzAuNDctMC40NyAwLjkzLTEgMS4zNy0xLjQ0IDAuMjEtMC4yMyAwLjQtMC40NyAwLjYxLTAuN3MwLjQ1LTAuNTEgMC42Ni0wLjc4IDAuNDktMC42MSAwLjczLTAuOTJsMC40Ny0wLjYgMC43NC0xIDAuMzgtMC41NGMwLjI0LTAuMzYgMC40Ny0wLjczIDAuNy0xLjA5IDAuMTEtMC4xOSAwLjIzLTAuMzcgMC4zNS0wLjU2IDAuMjEtMC4zNiAwLjQyLTAuNzIgMC42Mi0xLjA5IDAuMTItMC4yMSAwLjI0LTAuNDEgMC4zNS0wLjYyczAuMzYtMC42OSAwLjUzLTEgMC4yNS0wLjQ4IDAuMzYtMC43MyAwLjMtMC42NCAwLjQ0LTEgMC4yNS0wLjU3IDAuMzctMC44NiAwLjIzLTAuNTcgMC4zNC0wLjg2IDAuMjYtMC42NiAwLjM3LTEgMC4xOC0wLjUxIDAuMjYtMC43NyAwLjI1LTAuNzQgMC4zNi0xLjExIDAuMTMtMC40NiAwLjItMC42OWwwLjMzLTEuMjFjMC0wLjIxIDAuMDktMC40MyAwLjE0LTAuNjQgMC4xLTAuNDIgMC4yLTAuODQgMC4yOC0xLjI3bDAuMTItMC42NWMwLjA3LTAuNDIgMC4xNS0wLjg0IDAuMjEtMS4yNiAwLTAuMjYgMC4wNi0wLjUxIDAuMS0wLjc2czAuMS0wLjc4IDAuMTQtMS4xNyAwLjA1LTAuNjggMC4wNy0xIDAtMC42MiAwLjA3LTAuOTN2LTJjMC4wNy0wLjcgMC4wNS0xLjM2IDAuMDItMi4wMXoiLz48L3N2Zz4=;" parent="1" vertex="1">
          <mxGeometry x="1953" y="1054" width="102" height="102" as="geometry" />
        </mxCell>
        <mxCell id="hg0nlkvwgH0ZP0_xZrHD-114" style="edgeStyle=orthogonalEdgeStyle;rounded=0;orthogonalLoop=1;jettySize=auto;html=1;entryX=0;entryY=0.5;entryDx=0;entryDy=0;fontSize=49;fontColor=#000000;strokeWidth=7;" parent="1" source="hg0nlkvwgH0ZP0_xZrHD-132" target="hg0nlkvwgH0ZP0_xZrHD-130" edge="1">
          <mxGeometry relative="1" as="geometry">
            <mxPoint x="2638.53" y="983" as="sourcePoint" />
          </mxGeometry>
        </mxCell>
        <mxCell id="hg0nlkvwgH0ZP0_xZrHD-115" style="edgeStyle=orthogonalEdgeStyle;rounded=0;orthogonalLoop=1;jettySize=auto;html=1;entryX=0;entryY=0.5;entryDx=0;entryDy=0;fontSize=49;fontColor=#000000;strokeWidth=7;" parent="1" target="hg0nlkvwgH0ZP0_xZrHD-132" edge="1">
          <mxGeometry relative="1" as="geometry">
            <mxPoint x="2025" y="983" as="sourcePoint" />
          </mxGeometry>
        </mxCell>
        <mxCell id="hg0nlkvwgH0ZP0_xZrHD-116" style="edgeStyle=orthogonalEdgeStyle;rounded=0;orthogonalLoop=1;jettySize=auto;html=1;entryX=0;entryY=0.5;entryDx=0;entryDy=0;fontSize=46;fontColor=#000000;strokeWidth=7;" parent="1" source="hg0nlkvwgH0ZP0_xZrHD-117" target="hg0nlkvwgH0ZP0_xZrHD-167" edge="1">
          <mxGeometry relative="1" as="geometry" />
        </mxCell>
        <mxCell id="hg0nlkvwgH0ZP0_xZrHD-117" value="" style="shape=image;verticalLabelPosition=bottom;labelBackgroundColor=default;verticalAlign=top;aspect=fixed;imageAspect=0;image=data:image/svg+xml,PHN2ZyB4bWxuczp4bGluaz0iaHR0cDovL3d3dy53My5vcmcvMTk5OS94bGluayIgeG1sbnM9Imh0dHA6Ly93d3cudzMub3JnLzIwMDAvc3ZnIiBoZWlnaHQ9IjIwMCIgd2lkdGg9IjIwMCIgdmVyc2lvbj0iMS4xIiB2aWV3Qm94PSIwIDAgMTAyNCAxMDI0IiBjbGFzcz0iaWNvbiI+PGRlZnM+PHN0eWxlIHR5cGU9InRleHQvY3NzIj5AZm9udC1mYWNlIHsgZm9udC1mYW1pbHk6IGZlZWRiYWNrLWljb25mb250OyBzcmM6IHVybCgiLy9hdC5hbGljZG4uY29tL3QvZm9udF8xMDMxMTU4X3U2OXc4eWh4ZHUud29mZjI/dD0xNjMwMDMzNzU5OTQ0IikgZm9ybWF0KCJ3b2ZmMiIpLCB1cmwoIi8vYXQuYWxpY2RuLmNvbS90L2ZvbnRfMTAzMTE1OF91Njl3OHloeGR1LndvZmY/dD0xNjMwMDMzNzU5OTQ0IikgZm9ybWF0KCJ3b2ZmIiksIHVybCgiLy9hdC5hbGljZG4uY29tL3QvZm9udF8xMDMxMTU4X3U2OXc4eWh4ZHUudHRmP3Q9MTYzMDAzMzc1OTk0NCIpIGZvcm1hdCgidHJ1ZXR5cGUiKTsgfSYjeGE7PC9zdHlsZT48L2RlZnM+PHBhdGggZD0iTTk2MCA0Mi42NjY2NjdINjRjLTEyLjggMC0yMS4zMzMzMzMgOC41MzMzMzMtMjEuMzMzMzMzIDIxLjMzMzMzM3Y4OTZjMCAxMi44IDguNTMzMzMzIDIxLjMzMzMzMyAyMS4zMzMzMzMgMjEuMzMzMzMzaDg5NmMxMi44IDAgMjEuMzMzMzMzLTguNTMzMzMzIDIxLjMzMzMzMy0yMS4zMzMzMzNWNjRjMC0xMi44LTguNTMzMzMzLTIxLjMzMzMzMy0yMS4zMzMzMzMtMjEuMzMzMzMzeiBtLTIxLjMzMzMzMyA4OTZIODUuMzMzMzMzVjY4Mi42NjY2NjdoODUzLjMzMzMzNHYyNTZ6IG0wLTI5OC42NjY2NjdIODUuMzMzMzMzVjM4NGg4NTMuMzMzMzM0djI1NnogbTAtMjk4LjY2NjY2N0g4NS4zMzMzMzNWODUuMzMzMzMzaDg1My4zMzMzMzR2MjU2ek0yOTguNjY2NjY3IDc2OGgtNDIuNjY2NjY3djg1LjMzMzMzM2g0Mi42NjY2Njd2LTg1LjMzMzMzM3ogbS04NS4zMzMzMzQgMEgxNzAuNjY2NjY3djg1LjMzMzMzM2g0Mi42NjY2NjZ2LTg1LjMzMzMzM3ogbTY2MS4zMzMzMzQgMjEuMzMzMzMzaC0xNzAuNjY2NjY3djQyLjY2NjY2N2gxNzAuNjY2NjY3di00Mi42NjY2Njd6TTI5OC42NjY2NjcgNDY5LjMzMzMzM2gtNDIuNjY2NjY3djg1LjMzMzMzNGg0Mi42NjY2Njd2LTg1LjMzMzMzNHogbS04NS4zMzMzMzQgMEgxNzAuNjY2NjY3djg1LjMzMzMzNGg0Mi42NjY2NjZ2LTg1LjMzMzMzNHogbTY2MS4zMzMzMzQgMjEuMzMzMzM0aC0xNzAuNjY2NjY3djQyLjY2NjY2NmgxNzAuNjY2NjY3di00Mi42NjY2NjZ6TTI5OC42NjY2NjcgMTcwLjY2NjY2N2gtNDIuNjY2NjY3djg1LjMzMzMzM2g0Mi42NjY2NjdWMTcwLjY2NjY2N3ogbS04NS4zMzMzMzQgMEgxNzAuNjY2NjY3djg1LjMzMzMzM2g0Mi42NjY2NjZWMTcwLjY2NjY2N3ogbTY2MS4zMzMzMzQgMjEuMzMzMzMzaC0xNzAuNjY2NjY3djQyLjY2NjY2N2gxNzAuNjY2NjY3VjE5MnoiLz48L3N2Zz4=;" parent="1" vertex="1">
          <mxGeometry x="1002.53" y="836" width="287" height="287" as="geometry" />
        </mxCell>
        <mxCell id="hg0nlkvwgH0ZP0_xZrHD-118" value="" style="shape=image;verticalLabelPosition=bottom;labelBackgroundColor=default;verticalAlign=top;aspect=fixed;imageAspect=0;image=data:image/svg+xml,PHN2ZyB4bWxuczp4bGluaz0iaHR0cDovL3d3dy53My5vcmcvMTk5OS94bGluayIgeG1sbnM9Imh0dHA6Ly93d3cudzMub3JnLzIwMDAvc3ZnIiBoZWlnaHQ9IjIwMCIgd2lkdGg9IjIwMCIgdmVyc2lvbj0iMS4xIiB2aWV3Qm94PSIwIDAgMTAyNCAxMDI0IiBjbGFzcz0iaWNvbiI+PGRlZnM+PHN0eWxlIHR5cGU9InRleHQvY3NzIj5AZm9udC1mYWNlIHsgZm9udC1mYW1pbHk6IGZlZWRiYWNrLWljb25mb250OyBzcmM6IHVybCgiLy9hdC5hbGljZG4uY29tL3QvZm9udF8xMDMxMTU4X3U2OXc4eWh4ZHUud29mZjI/dD0xNjMwMDMzNzU5OTQ0IikgZm9ybWF0KCJ3b2ZmMiIpLCB1cmwoIi8vYXQuYWxpY2RuLmNvbS90L2ZvbnRfMTAzMTE1OF91Njl3OHloeGR1LndvZmY/dD0xNjMwMDMzNzU5OTQ0IikgZm9ybWF0KCJ3b2ZmIiksIHVybCgiLy9hdC5hbGljZG4uY29tL3QvZm9udF8xMDMxMTU4X3U2OXc4eWh4ZHUudHRmP3Q9MTYzMDAzMzc1OTk0NCIpIGZvcm1hdCgidHJ1ZXR5cGUiKTsgfSYjeGE7PC9zdHlsZT48L2RlZnM+PHBhdGggZD0iTTg4Ny4zNzYgNDgxLjA1M2EyOS4wNTcgMjkuMDU3IDAgMCAwLTI5LjEyNyAyOS4xMjdjMCAxODkuMDg0LTE1My43NjcgMzQyLjg1LTM0Mi44NSAzNDIuODVzLTM0Mi44NS0xNTMuNzY3LTM0Mi44NS0zNDIuODVjMC0xNi4xNDItMTIuOTg2LTI5LjEyNy0yOS4xMjctMjkuMTI3cy0yOS4xMjcgMTIuOTg2LTI5LjEyNyAyOS4xMjdjMCA1NC4xMjggMTAuNTU5IDEwNi42NzggMzEuNTU0IDE1Ni4xOTQgMjAuMTQ2IDQ3LjgxOCA0OS4xNTIgOTAuNjU4IDg1LjkyNSAxMjcuNTUzIDM2Ljc3MyAzNi43NzMgNzkuNzM1IDY1Ljc3OCAxMjcuNTUzIDg1LjkyNSA0OS41MTYgMjAuODc1IDEwMi4wNjYgMzEuNTU0IDE1Ni4xOTQgMzEuNTU0IDU0LjEyOCAwIDEwNi42NzgtMTAuNTU5IDE1Ni4xOTQtMzEuNTU0IDQ3LjgxOC0yMC4xNDYgOTAuNjU4LTQ5LjE1MiAxMjcuNTUzLTg1LjkyNSAzNi43NzMtMzYuNzczIDY1Ljc3OC03OS43MzUgODUuOTI1LTEyNy41NTMgMjAuODc1LTQ5LjUxNiAzMS41NTQtMTAyLjA2NiAzMS41NTQtMTU2LjE5NC0wLjI0Mi0xNi4xNDItMTMuMjI5LTI5LjEyNy0yOS4zNy0yOS4xMjd6Ii8+PHBhdGggZD0iTTMzMS44OTggMzQ5LjEzMWM3LjQwNCAwIDE0LjkyOC0yLjc5MSAyMC42MzEtOC40OTZsMTMwLjIyMi0xMzAuMjIyVjY5My42OGMwIDE2LjE0MiAxMi45ODYgMjkuMTI3IDI5LjEyNyAyOS4xMjdzMjkuMTI3LTEyLjk4NiAyOS4xMjctMjkuMTI3VjIxMC40MTNsMTMwLjIyMiAxMzAuMjIyYzUuNzAzIDUuNzAzIDEzLjEwNyA4LjQ5NiAyMC42MzEgOC40OTZzMTQuOTI4LTIuNzkxIDIwLjYzMS04LjQ5NmMxMS40MDgtMTEuNDA4IDExLjQwOC0yOS44NTUgMC00MS4xNDJMNTMyLjc1IDExOS42MzNjLTUuNzAzLTUuNzAzLTEzLjM0OS04LjYxNy0yMC44NzUtOC40OTYtNy41MjQgMC0xNS4wNSAyLjc5MS0yMC43NTMgOC40OTZsLTE3OS43MzkgMTc5Ljg2Yy0xMS40MDggMTEuNDA4LTExLjQwOCAyOS44NTUgMCA0MS4xNDIgNS41ODMgNS43MDMgMTMuMTA3IDguNDk2IDIwLjUxMSA4LjQ5NnoiLz48L3N2Zz4=;" parent="1" vertex="1">
          <mxGeometry x="1203.53" y="985" width="167" height="167" as="geometry" />
        </mxCell>
        <mxCell id="hg0nlkvwgH0ZP0_xZrHD-119" value="" style="shape=image;verticalLabelPosition=bottom;labelBackgroundColor=default;verticalAlign=top;aspect=fixed;imageAspect=0;image=data:image/svg+xml,PHN2ZyB4bWxuczp4bGluaz0iaHR0cDovL3d3dy53My5vcmcvMTk5OS94bGluayIgeG1sbnM9Imh0dHA6Ly93d3cudzMub3JnLzIwMDAvc3ZnIiBoZWlnaHQ9IjIwMCIgd2lkdGg9IjIwNi4yNSIgdmVyc2lvbj0iMS4xIiB2aWV3Qm94PSIwIDAgMTA1NiAxMDI0IiBjbGFzcz0iaWNvbiI+PGRlZnM+PHN0eWxlIHR5cGU9InRleHQvY3NzIj5AZm9udC1mYWNlIHsgZm9udC1mYW1pbHk6IGZlZWRiYWNrLWljb25mb250OyBzcmM6IHVybCgiLy9hdC5hbGljZG4uY29tL3QvZm9udF8xMDMxMTU4X3U2OXc4eWh4ZHUud29mZjI/dD0xNjMwMDMzNzU5OTQ0IikgZm9ybWF0KCJ3b2ZmMiIpLCB1cmwoIi8vYXQuYWxpY2RuLmNvbS90L2ZvbnRfMTAzMTE1OF91Njl3OHloeGR1LndvZmY/dD0xNjMwMDMzNzU5OTQ0IikgZm9ybWF0KCJ3b2ZmIiksIHVybCgiLy9hdC5hbGljZG4uY29tL3QvZm9udF8xMDMxMTU4X3U2OXc4eWh4ZHUudHRmP3Q9MTYzMDAzMzc1OTk0NCIpIGZvcm1hdCgidHJ1ZXR5cGUiKTsgfSYjeGE7PC9zdHlsZT48L2RlZnM+PHBhdGggZD0iTTgzMiA0MzUuMjY0di0xMzcuNkM3NzIuNzA0IDM0OC40OCA2MzcuNDQgMzg0IDQ4MCAzODRTMTg3LjI5NiAzNDguNDggMTI4IDI5Ny42MzJWNDQ4aC0wLjAzMmM1MS4wNCA0OC42NzIgMTU4LjU2IDg0LjczNiAyODguMDMyIDkzLjc2djMyLjEyOGMtMTIwLjE5Mi04LjA2NC0yMjQuNzY4LTM4LjYyNC0yODgtODQuNTQ0VjYwOGMwIDU2IDEyMy4wNCAxMTMuNTA0IDI4OCAxMjUuNjY0djMyLjEyOGMtMTI5LjQ0LTkuMDU2LTIzNi45MjgtNDUuMDg4LTI4OC05My43NnYxMDQuODMybDQuNDQ4IDkuMTJjMjUuNDA4IDUyLjE2IDE0MC4wNjQgOTcuMTIgMjgzLjU1MiAxMDcuNjh2MzIuMTZDMjU3Ljk1MiA5MTQuODggMTI3LjQyNCA4NjQuNTEyIDk2IDgwMFYyNDQuNDhsMC4xOTIgMC4wOTZBNTUuMTM2IDU1LjEzNiAwIDAgMSA5NiAyNDBDOTYgMTYwLjQ4IDI2Ny45MzYgOTYgNDgwIDk2czM4NCA2NC40OCAzODQgMTQ0YzAgMS41MzYtMC4wNjQgMy4wNC0wLjE5MiA0LjU3Nkw4NjQgMjQ0LjQ4djIwMy4wNzJhMzE1LjA3MiAzMTUuMDcyIDAgMCAwLTMyLTEyLjMyek00ODAgMzUyYzE5NS40NTYgMCAzNTItNTguNzIgMzUyLTExMlM2NzUuNDU2IDEyOCA0ODAgMTI4IDEyOCAxODYuNzIgMTI4IDI0MCAyODQuNTQ0IDM1MiA0ODAgMzUyeiBtNDQ4IDIyNHYyODhjLTE1LjUyIDU0LjI3Mi0xMTEuMTY4IDk2LTIyNCA5NnMtMjA2LjIwOC0zNS45NjgtMjIxLjc2LTkwLjI0TDQ4MCA4NjR2LTI4OCAxNmMwLTYxLjg1NiAxMDAuMjg4LTExMiAyMjQtMTEyczIyNCA1MC4xNDQgMjI0IDExMlY1NzZ6IG0tMzIgMjAxLjcyOEM4NTYuOCA4MTAuMjQgNzg1LjQ3MiA4MzIgNzA0IDgzMnMtMTUyLjgtMjEuNzYtMTkyLTU0LjI3MnY3My44NTZsMS4wMjQgMy42MTZDNTIzLjcxMiA4OTIuNTQ0IDYwNC44NjQgOTI4IDcwNCA5MjhjOTkuMTY4IDAgMTgwLjI4OC0zNS40NTYgMTkwLjk3Ni03Mi44bDEuMDI0LTMuNjE2di03My44NTZ6IG0wLTU0LjE0NHYtNjYuNEM4NDguNzM2IDY4Ni43MiA3NzkuNzEyIDcwNCA3MDQuMDk2IDcwNGgtMC4xOTJjLTc1LjYxNiAwLTE0NC42NC0xNy4yOC0xOTEuOTA0LTQ2LjgxNnY2Ni40bDEuMDI0IDMuNjE2QzUyMy43MTIgNzY0LjU0NCA2MDQuODY0IDgwMCA3MDQgODAwYzk5LjE2OCAwIDE4MC4yODgtMzUuNDU2IDE5MC45NzYtNzIuOGwxLjAyNC0zLjYxNnpNNzA0IDY3MmMxMDguMzIgMCAxOTItNDEuODU2IDE5Mi04MFM4MTIuMzIgNTEyIDcwNCA1MTJzLTE5MiA0MS44NTYtMTkyIDgwIDgzLjY4IDgwIDE5MiA4MHoiLz48L3N2Zz4=;" parent="1" vertex="1">
          <mxGeometry x="2395.26" y="50" width="285.53" height="277.21" as="geometry" />
        </mxCell>
        <mxCell id="hg0nlkvwgH0ZP0_xZrHD-120" value="" style="shape=image;verticalLabelPosition=bottom;labelBackgroundColor=default;verticalAlign=top;aspect=fixed;imageAspect=0;image=data:image/svg+xml,PHN2ZyB4bWxuczp4bGluaz0iaHR0cDovL3d3dy53My5vcmcvMTk5OS94bGluayIgeG1sbnM9Imh0dHA6Ly93d3cudzMub3JnLzIwMDAvc3ZnIiBoZWlnaHQ9IjIwMCIgd2lkdGg9IjIwMCIgdmVyc2lvbj0iMS4xIiB2aWV3Qm94PSIwIDAgMTAyNCAxMDI0IiBjbGFzcz0iaWNvbiI+PGRlZnM+PHN0eWxlIHR5cGU9InRleHQvY3NzIj5AZm9udC1mYWNlIHsgZm9udC1mYW1pbHk6IGZlZWRiYWNrLWljb25mb250OyBzcmM6IHVybCgiLy9hdC5hbGljZG4uY29tL3QvZm9udF8xMDMxMTU4X3U2OXc4eWh4ZHUud29mZjI/dD0xNjMwMDMzNzU5OTQ0IikgZm9ybWF0KCJ3b2ZmMiIpLCB1cmwoIi8vYXQuYWxpY2RuLmNvbS90L2ZvbnRfMTAzMTE1OF91Njl3OHloeGR1LndvZmY/dD0xNjMwMDMzNzU5OTQ0IikgZm9ybWF0KCJ3b2ZmIiksIHVybCgiLy9hdC5hbGljZG4uY29tL3QvZm9udF8xMDMxMTU4X3U2OXc4eWh4ZHUudHRmP3Q9MTYzMDAzMzc1OTk0NCIpIGZvcm1hdCgidHJ1ZXR5cGUiKTsgfSYjeGE7PC9zdHlsZT48L2RlZnM+PHBhdGggZmlsbD0iIzA0MDAwMCIgZD0iTTk3OS4yIDQ2Ny4yaC0xOTguNGMtMjUuNiAwLTM4LjQgMTkuMi0zOC40IDM4LjRWNTEyYzAgMTkuMiAxOS4yIDM4LjQgMzguNCAzOC40aDE5OC40YzE5LjIgMCAzOC40LTE5LjIgMzguNC0zOC40di02LjRjMC0xOS4yLTE5LjItMzguNC0zOC40LTM4LjR6TTUyNC44IDEyOGMtNjQgNDQuOC0xOTIgMTE1LjItMjc1LjIgMTc5LjJ2Ni40Yy0xOS4yIDAtMjUuNiAxOS4yLTgzLjIgMTkuMkg1Ny42Yy0zMiAwLTUxLjIgMTIuOC01MS4yIDQ0LjhWNjQwYzAgMzIgMTkuMiA0NC44IDUxLjIgNDQuOGgxMTUuMmM1Ny42IDAgNjQgMTkuMiA3Ni44IDI1LjZ2Ni40Yzg5LjYgNjQgMjExLjIgMTM0LjQgMjc1LjIgMTc5LjIgMTkuMiAxMi44IDgzLjIgMzguNCA4My4yLTQ0LjhWMTY2LjRjMC03Ni44LTY0LTUxLjItODMuMi0zOC40ek03MDQgMzEzLjZjMTIuOCAxOS4yIDMyIDI1LjYgNDQuOCAxMi44TDkwOC44IDE5MmMxMi44LTEyLjggMTkuMi0zOC40IDYuNC01Ny42bC02LjQtMTIuOGMtMTIuOC0xOS4yLTMyLTI1LjYtNDQuOC0xMi44TDcwNCAyNDMuMmMtMTIuOCAxMi44LTE5LjIgMzguNC02LjQgNTcuNmw2LjQgMTIuOHogbTUxLjIgMzg0Yy0xMi44LTEyLjgtMzguNC02LjQtNDQuOCAxMi44bC02LjQgMTIuOGMtMTIuOCAxOS4yLTYuNCA0NC44IDYuNCA1Ny42bDE2Ni40IDEzNC40YzEyLjggMTIuOCAzOC40IDYuNCA0NC44LTEyLjhsNi40LTEyLjhjMTIuOC0xOS4yIDYuNC00NC44LTYuNC01Ny42bC0xNjYuNC0xMzQuNHoiLz48L3N2Zz4=;" parent="1" vertex="1">
          <mxGeometry x="2654.53" y="1065" width="131" height="131" as="geometry" />
        </mxCell>
        <mxCell id="hg0nlkvwgH0ZP0_xZrHD-121" value="" style="shape=image;verticalLabelPosition=bottom;labelBackgroundColor=default;verticalAlign=top;aspect=fixed;imageAspect=0;image=data:image/svg+xml,PHN2ZyB4bWxuczp4bGluaz0iaHR0cDovL3d3dy53My5vcmcvMTk5OS94bGluayIgeG1sbnM9Imh0dHA6Ly93d3cudzMub3JnLzIwMDAvc3ZnIiBoZWlnaHQ9IjIwMCIgd2lkdGg9IjIwMC4xOTUzMTI1IiB2ZXJzaW9uPSIxLjEiIHZpZXdCb3g9IjAgMCAxMDI1IDEwMjQiIGNsYXNzPSJpY29uIj48ZGVmcz48c3R5bGUgdHlwZT0idGV4dC9jc3MiPkBmb250LWZhY2UgeyBmb250LWZhbWlseTogZmVlZGJhY2staWNvbmZvbnQ7IHNyYzogdXJsKCIvL2F0LmFsaWNkbi5jb20vdC9mb250XzEwMzExNThfdTY5dzh5aHhkdS53b2ZmMj90PTE2MzAwMzM3NTk5NDQiKSBmb3JtYXQoIndvZmYyIiksIHVybCgiLy9hdC5hbGljZG4uY29tL3QvZm9udF8xMDMxMTU4X3U2OXc4eWh4ZHUud29mZj90PTE2MzAwMzM3NTk5NDQiKSBmb3JtYXQoIndvZmYiKSwgdXJsKCIvL2F0LmFsaWNkbi5jb20vdC9mb250XzEwMzExNThfdTY5dzh5aHhkdS50dGY/dD0xNjMwMDMzNzU5OTQ0IikgZm9ybWF0KCJ0cnVldHlwZSIpOyB9JiN4YTs8L3N0eWxlPjwvZGVmcz48cGF0aCBkPSJNOTI5LjY4NjM3NyA3MTEuNjkwMjAyVjYyNy45MTU3MDRhMTM0Ljc1MzgwMSAxMzQuNzUzODAxIDAgMCAwLTEzNC42MjYxOTMtMTM0LjYyNjE5M2gtMjI5LjY5Mzk3OHYtNjIuNDY0MDAxYTIxOC43ODM1MTQgMjE4Ljc4MzUxNCAwIDEgMC0xMDkuMzU5ODU2IDB2NjIuNDY0MDAxaC0yMjkuNjkzOTc4YTEzNC43NTM4MDEgMTM0Ljc1MzgwMSAwIDAgMC0xMzQuNjI2MTkyIDEzNC42MjYxOTN2ODMuNzc0NDk4YTE2My41MjkzNTIgMTYzLjUyOTM1MiAwIDEgMCAxMDkuMzU5ODU1LTEzLjM5ODgxNXYtNzAuMTg0MjcxYTI1LjUyMTU1MyAyNS41MjE1NTMgMCAwIDEgMjUuNTIxNTUzLTI1LjUyMTU1M2gyMjkuNjkzOTc4djEwMS4xOTI5NThhMTY0LjAzOTc4MyAxNjQuMDM5NzgzIDAgMSAwIDEwOS4zNTk4NTUgMFY2MDIuNzEzMTdoMjI5LjY5Mzk3OGEyNS41MjE1NTMgMjUuNTIxNTUzIDAgMCAxIDI1LjUyMTU1MyAyNS41MjE1NTR2NzAuMTg0MjcxYTE2NC43NDE2MjUgMTY0Ljc0MTYyNSAwIDEgMCAxMDkuMzU5ODU2IDEzLjM5ODgxNXpNNDAxLjA3MTIwNyAyMTkuODg5ODc0QTEwOS4zNTk4NTUgMTA5LjM1OTg1NSAwIDEgMSA1MTAuNDMxMDYzIDMyOS4yNDk3MjlhMTA5LjQ4NzQ2MyAxMDkuNDg3NDYzIDAgMCAxLTEwOS4zNTk4NTYtMTA5LjM1OTg1NXogbS0xODIuMjg3NjkzIDYzOC4wMzg4MjhhNTQuNjc5OTI4IDU0LjY3OTkyOCAwIDEgMS01NC42Nzk5MjctNTQuNjc5OTI4IDU0LjgwNzUzNSA1NC44MDc1MzUgMCAwIDEgNTQuNjc5OTI3IDU0LjY3OTkyOHpNNTEwLjQzMTA2MyA5MTIuNjA4NjI5YTU0LjY3OTkyOCA1NC42Nzk5MjggMCAxIDEgNTQuNjc5OTI3LTU0LjY3OTkyNyA1NC44MDc1MzUgNTQuODA3NTM1IDAgMCAxLTU0LjY3OTkyNyA1NC42Nzk5Mjd6IG0zNDYuMzkxMjc5IDBhNTQuNjc5OTI4IDU0LjY3OTkyOCAwIDEgMSA1NC42Nzk5MjgtNTQuNjc5OTI3IDU0LjgwNzUzNSA1NC44MDc1MzUgMCAwIDEtNTQuNjc5OTI4IDU0LjY3OTkyN3oiLz48L3N2Zz4=;" parent="1" vertex="1">
          <mxGeometry x="3310.53" y="1012" width="120" height="120" as="geometry" />
        </mxCell>
        <mxCell id="hg0nlkvwgH0ZP0_xZrHD-122" style="edgeStyle=orthogonalEdgeStyle;rounded=0;orthogonalLoop=1;jettySize=auto;html=1;fontSize=22;fontColor=#000000;strokeWidth=7;" parent="1" source="hg0nlkvwgH0ZP0_xZrHD-123" edge="1">
          <mxGeometry relative="1" as="geometry">
            <mxPoint x="1146.5299999999997" y="1226" as="targetPoint" />
          </mxGeometry>
        </mxCell>
        <mxCell id="hg0nlkvwgH0ZP0_xZrHD-123" value="" style="shape=image;verticalLabelPosition=bottom;labelBackgroundColor=default;verticalAlign=top;aspect=fixed;imageAspect=0;image=data:image/svg+xml,PHN2ZyB4bWxuczp4bGluaz0iaHR0cDovL3d3dy53My5vcmcvMTk5OS94bGluayIgeG1sbnM9Imh0dHA6Ly93d3cudzMub3JnLzIwMDAvc3ZnIiBoZWlnaHQ9IjIwMCIgd2lkdGg9IjI0OS4yMTg3NSIgdmVyc2lvbj0iMS4xIiB2aWV3Qm94PSIwIDAgMTI3NiAxMDI0IiBjbGFzcz0iaWNvbiI+PGRlZnM+PHN0eWxlIHR5cGU9InRleHQvY3NzIj5AZm9udC1mYWNlIHsgZm9udC1mYW1pbHk6IGZlZWRiYWNrLWljb25mb250OyBzcmM6IHVybCgiLy9hdC5hbGljZG4uY29tL3QvZm9udF8xMDMxMTU4X3U2OXc4eWh4ZHUud29mZjI/dD0xNjMwMDMzNzU5OTQ0IikgZm9ybWF0KCJ3b2ZmMiIpLCB1cmwoIi8vYXQuYWxpY2RuLmNvbS90L2ZvbnRfMTAzMTE1OF91Njl3OHloeGR1LndvZmY/dD0xNjMwMDMzNzU5OTQ0IikgZm9ybWF0KCJ3b2ZmIiksIHVybCgiLy9hdC5hbGljZG4uY29tL3QvZm9udF8xMDMxMTU4X3U2OXc4eWh4ZHUudHRmP3Q9MTYzMDAzMzc1OTk0NCIpIGZvcm1hdCgidHJ1ZXR5cGUiKTsgfSYjeGE7PC9zdHlsZT48L2RlZnM+PHBhdGggZmlsbD0iI0IwRTU1QyIgZD0iTTYxLjUzOTE2NSA2NTcuMzM1NTdoMTIwNy40MjAxOTl2MTYwLjc0NTgwNkg2MS41MzkxNjV6Ii8+PHBhdGggZmlsbD0iIzY5NDk0RCIgZD0iTTEyNjguNjU0OTIxIDYyNS44NzY0NzlIOC4wNTg3MTFhNy4yMDUxNDcgNy4yMDUxNDcgMCAxIDEgMC0xNC4zMDg4MTJIMTI2OC42NTQ5MjFhNy4yMDUxNDcgNy4yMDUxNDcgMCAxIDEgMCAxNC4zMDg4MTJ6TTg1OS40ODM3OCA5MjYuMjYwMDU1SDQxNy41MzQyOTVhNy42MTEwNyA3LjYxMTA3IDAgMCAxLTcuOTE1NTEzLTcuMjA1MTQ2di0xMDEuNDgwOTM4YTcuNjExMDcgNy42MTEwNyAwIDAgMSA3LjkxNTUxMy03LjIwNTE0N2g0NDEuOTQ5NDg1YTcuNjExMDcgNy42MTEwNyAwIDAgMSA3LjkxNTUxMyA3LjIwNTE0N3YxMDEuNDgwOTM4YTcuNjExMDcgNy42MTEwNyAwIDAgMS03LjkxNTUxMyA3LjIwNTE0NnogbS00MzQuMDMzOTcyLTE0LjQxMDI5M2g0MjYuMjE5OTM5di04Ni42NjQ3MjFoLTQyNi4yMTk5Mzl6Ii8+PHBhdGggZmlsbD0iIzY5NDk0RCIgZD0iTTkyNi4yNTgyMzcgMTAyMy45ODYxOTloLTU3NS4zOTY5MThhOC4xMTg0NzUgOC4xMTg0NzUgMCAwIDEtNi43OTkyMjMtMy41NTE4MzMgNi41OTYyNjEgNi41OTYyNjEgMCAwIDEgMC03LjEwMzY2Nkw0MDUuNDU4MDY0IDkxMy4zNzE5NzZhOC4xMTg0NzUgOC4xMTg0NzUgMCAwIDEgNi45MDA3MDMtMy42NTMzMTNoNDUyLjMwMDU0YTguMTE4NDc1IDguMTE4NDc1IDAgMCAxIDYuOTAwNzA0IDMuNjUzMzEzbDYxLjU5ODkzIDEwMC4zNjQ2NDhhNi41OTYyNjEgNi41OTYyNjEgMCAwIDEgMCA3LjEwMzY2NiA4LjExODQ3NSA4LjExODQ3NSAwIDAgMS02LjkwMDcwNCAzLjE0NTkwOXogbS01NjEuODk5OTUzLTE0LjQxMDI5NGg1NDcuOTk3MDY0TDg1OS45OTExODQgOTIzLjUyMDA3SDQxNy4xMjgzNzF6TTEyMzMuMjM4MDc0IDgyNS4xODUwNDFINDMuNzgwMDAxQTQxLjgxMDE0NiA0MS44MTAxNDYgMCAwIDEgMC4xNDMxOTggNzg1LjcwODk1NlYzOS41MTk2MkE0MS44MTAxNDYgNDEuODEwMTQ2IDAgMCAxIDQzLjc4MDAwMSAwLjA0MzUzNWgxMTg5LjQ1ODA3M2E0MS44MTAxNDYgNDEuODEwMTQ2IDAgMCAxIDQzLjYzNjgwMyAzOS40NzYwODV2NzQ2LjE4OTMzNmE0MS44MTAxNDYgNDEuODEwMTQ2IDAgMCAxLTQzLjYzNjgwMyAzOS40NzYwODV6TTQzLjc4MDAwMSAxNC4zNTIzNDhhMjYuNTg4MDA2IDI2LjU4ODAwNiAwIDAgMC0yNy44MDU3NzcgMjUuMTY3Mjcydjc0Ni4xODkzMzZBMjYuNTg4MDA2IDI2LjU4ODAwNiAwIDAgMCA0My43ODAwMDEgODEwLjg3NjIyOWgxMTg5LjQ1ODA3M2EyNi41ODgwMDYgMjYuNTg4MDA2IDAgMCAwIDI3LjgwNTc3Ny0yNS4xNjcyNzNWMzkuNTE5NjJhMjYuNTg4MDA2IDI2LjU4ODAwNiAwIDAgMC0yNy44MDU3NzctMjUuMTY3MjcyeiIvPjxwYXRoIGZpbGw9IiM2OTQ5NEQiIGQ9Ik02MzguNTU5Nzc4IDczNy43MDg0NzNtLTIzLjc0NjU0IDBhMjMuNzQ2NTM5IDIzLjc0NjUzOSAwIDEgMCA0Ny40OTMwNzkgMCAyMy43NDY1MzkgMjMuNzQ2NTM5IDAgMSAwLTQ3LjQ5MzA3OSAwWiIvPjwvc3ZnPg==;" parent="1" vertex="1">
          <mxGeometry x="1009.48" y="1545" width="273.09" height="219.35" as="geometry" />
        </mxCell>
        <mxCell id="hg0nlkvwgH0ZP0_xZrHD-124" value="&lt;font style=&quot;font-size: 49px;&quot;&gt;设备上线(e.g., PC)&lt;/font&gt;" style="text;html=1;strokeColor=none;fillColor=none;align=center;verticalAlign=middle;whiteSpace=wrap;rounded=0;labelBackgroundColor=none;fontSize=22;fontColor=#000000;" parent="1" vertex="1">
          <mxGeometry x="1027.53" y="1805" width="250.09" height="95" as="geometry" />
        </mxCell>
        <mxCell id="hg0nlkvwgH0ZP0_xZrHD-125" value="" style="shape=image;verticalLabelPosition=bottom;labelBackgroundColor=default;verticalAlign=top;aspect=fixed;imageAspect=0;image=data:image/svg+xml,PHN2ZyB4bWxuczp4bGluaz0iaHR0cDovL3d3dy53My5vcmcvMTk5OS94bGluayIgeG1sbnM9Imh0dHA6Ly93d3cudzMub3JnLzIwMDAvc3ZnIiBoZWlnaHQ9IjIwMCIgd2lkdGg9IjIwMCIgdmVyc2lvbj0iMS4xIiB2aWV3Qm94PSIwIDAgMTAyNCAxMDI0IiBjbGFzcz0iaWNvbiI+PGRlZnM+PHN0eWxlIHR5cGU9InRleHQvY3NzIj5AZm9udC1mYWNlIHsgZm9udC1mYW1pbHk6IGZlZWRiYWNrLWljb25mb250OyBzcmM6IHVybCgiLy9hdC5hbGljZG4uY29tL3QvZm9udF8xMDMxMTU4X3U2OXc4eWh4ZHUud29mZjI/dD0xNjMwMDMzNzU5OTQ0IikgZm9ybWF0KCJ3b2ZmMiIpLCB1cmwoIi8vYXQuYWxpY2RuLmNvbS90L2ZvbnRfMTAzMTE1OF91Njl3OHloeGR1LndvZmY/dD0xNjMwMDMzNzU5OTQ0IikgZm9ybWF0KCJ3b2ZmIiksIHVybCgiLy9hdC5hbGljZG4uY29tL3QvZm9udF8xMDMxMTU4X3U2OXc4eWh4ZHUudHRmP3Q9MTYzMDAzMzc1OTk0NCIpIGZvcm1hdCgidHJ1ZXR5cGUiKTsgfSYjeGE7PC9zdHlsZT48L2RlZnM+PHBhdGggZD0iTTk2MCA0Mi42NjY2NjdINjRjLTEyLjggMC0yMS4zMzMzMzMgOC41MzMzMzMtMjEuMzMzMzMzIDIxLjMzMzMzM3Y4OTZjMCAxMi44IDguNTMzMzMzIDIxLjMzMzMzMyAyMS4zMzMzMzMgMjEuMzMzMzMzaDg5NmMxMi44IDAgMjEuMzMzMzMzLTguNTMzMzMzIDIxLjMzMzMzMy0yMS4zMzMzMzNWNjRjMC0xMi44LTguNTMzMzMzLTIxLjMzMzMzMy0yMS4zMzMzMzMtMjEuMzMzMzMzeiBtLTIxLjMzMzMzMyA4OTZIODUuMzMzMzMzVjY4Mi42NjY2NjdoODUzLjMzMzMzNHYyNTZ6IG0wLTI5OC42NjY2NjdIODUuMzMzMzMzVjM4NGg4NTMuMzMzMzM0djI1NnogbTAtMjk4LjY2NjY2N0g4NS4zMzMzMzNWODUuMzMzMzMzaDg1My4zMzMzMzR2MjU2ek0yOTguNjY2NjY3IDc2OGgtNDIuNjY2NjY3djg1LjMzMzMzM2g0Mi42NjY2Njd2LTg1LjMzMzMzM3ogbS04NS4zMzMzMzQgMEgxNzAuNjY2NjY3djg1LjMzMzMzM2g0Mi42NjY2NjZ2LTg1LjMzMzMzM3ogbTY2MS4zMzMzMzQgMjEuMzMzMzMzaC0xNzAuNjY2NjY3djQyLjY2NjY2N2gxNzAuNjY2NjY3di00Mi42NjY2Njd6TTI5OC42NjY2NjcgNDY5LjMzMzMzM2gtNDIuNjY2NjY3djg1LjMzMzMzNGg0Mi42NjY2Njd2LTg1LjMzMzMzNHogbS04NS4zMzMzMzQgMEgxNzAuNjY2NjY3djg1LjMzMzMzNGg0Mi42NjY2NjZ2LTg1LjMzMzMzNHogbTY2MS4zMzMzMzQgMjEuMzMzMzM0aC0xNzAuNjY2NjY3djQyLjY2NjY2NmgxNzAuNjY2NjY3di00Mi42NjY2NjZ6TTI5OC42NjY2NjcgMTcwLjY2NjY2N2gtNDIuNjY2NjY3djg1LjMzMzMzM2g0Mi42NjY2NjdWMTcwLjY2NjY2N3ogbS04NS4zMzMzMzQgMEgxNzAuNjY2NjY3djg1LjMzMzMzM2g0Mi42NjY2NjZWMTcwLjY2NjY2N3ogbTY2MS4zMzMzMzQgMjEuMzMzMzMzaC0xNzAuNjY2NjY3djQyLjY2NjY2N2gxNzAuNjY2NjY3VjE5MnoiLz48L3N2Zz4=;" parent="1" vertex="1">
          <mxGeometry x="3100.53" y="833.1100000000001" width="278" height="278" as="geometry" />
        </mxCell>
        <mxCell id="hg0nlkvwgH0ZP0_xZrHD-126" value="" style="shape=image;verticalLabelPosition=bottom;labelBackgroundColor=default;verticalAlign=top;aspect=fixed;imageAspect=0;image=data:image/svg+xml,PHN2ZyB4bWxuczp4bGluaz0iaHR0cDovL3d3dy53My5vcmcvMTk5OS94bGluayIgeG1sbnM9Imh0dHA6Ly93d3cudzMub3JnLzIwMDAvc3ZnIiBoZWlnaHQ9IjIwMCIgd2lkdGg9IjIwMC4xOTUzMTI1IiB2ZXJzaW9uPSIxLjEiIHZpZXdCb3g9IjAgMCAxMDI1IDEwMjQiIGNsYXNzPSJpY29uIj48ZGVmcz48c3R5bGUgdHlwZT0idGV4dC9jc3MiPkBmb250LWZhY2UgeyBmb250LWZhbWlseTogZmVlZGJhY2staWNvbmZvbnQ7IHNyYzogdXJsKCIvL2F0LmFsaWNkbi5jb20vdC9mb250XzEwMzExNThfdTY5dzh5aHhkdS53b2ZmMj90PTE2MzAwMzM3NTk5NDQiKSBmb3JtYXQoIndvZmYyIiksIHVybCgiLy9hdC5hbGljZG4uY29tL3QvZm9udF8xMDMxMTU4X3U2OXc4eWh4ZHUud29mZj90PTE2MzAwMzM3NTk5NDQiKSBmb3JtYXQoIndvZmYiKSwgdXJsKCIvL2F0LmFsaWNkbi5jb20vdC9mb250XzEwMzExNThfdTY5dzh5aHhkdS50dGY/dD0xNjMwMDMzNzU5OTQ0IikgZm9ybWF0KCJ0cnVldHlwZSIpOyB9JiN4YTs8L3N0eWxlPjwvZGVmcz48cGF0aCBkPSJNOTI5LjY4NjM3NyA3MTEuNjkwMjAyVjYyNy45MTU3MDRhMTM0Ljc1MzgwMSAxMzQuNzUzODAxIDAgMCAwLTEzNC42MjYxOTMtMTM0LjYyNjE5M2gtMjI5LjY5Mzk3OHYtNjIuNDY0MDAxYTIxOC43ODM1MTQgMjE4Ljc4MzUxNCAwIDEgMC0xMDkuMzU5ODU2IDB2NjIuNDY0MDAxaC0yMjkuNjkzOTc4YTEzNC43NTM4MDEgMTM0Ljc1MzgwMSAwIDAgMC0xMzQuNjI2MTkyIDEzNC42MjYxOTN2ODMuNzc0NDk4YTE2My41MjkzNTIgMTYzLjUyOTM1MiAwIDEgMCAxMDkuMzU5ODU1LTEzLjM5ODgxNXYtNzAuMTg0MjcxYTI1LjUyMTU1MyAyNS41MjE1NTMgMCAwIDEgMjUuNTIxNTUzLTI1LjUyMTU1M2gyMjkuNjkzOTc4djEwMS4xOTI5NThhMTY0LjAzOTc4MyAxNjQuMDM5NzgzIDAgMSAwIDEwOS4zNTk4NTUgMFY2MDIuNzEzMTdoMjI5LjY5Mzk3OGEyNS41MjE1NTMgMjUuNTIxNTUzIDAgMCAxIDI1LjUyMTU1MyAyNS41MjE1NTR2NzAuMTg0MjcxYTE2NC43NDE2MjUgMTY0Ljc0MTYyNSAwIDEgMCAxMDkuMzU5ODU2IDEzLjM5ODgxNXpNNDAxLjA3MTIwNyAyMTkuODg5ODc0QTEwOS4zNTk4NTUgMTA5LjM1OTg1NSAwIDEgMSA1MTAuNDMxMDYzIDMyOS4yNDk3MjlhMTA5LjQ4NzQ2MyAxMDkuNDg3NDYzIDAgMCAxLTEwOS4zNTk4NTYtMTA5LjM1OTg1NXogbS0xODIuMjg3NjkzIDYzOC4wMzg4MjhhNTQuNjc5OTI4IDU0LjY3OTkyOCAwIDEgMS01NC42Nzk5MjctNTQuNjc5OTI4IDU0LjgwNzUzNSA1NC44MDc1MzUgMCAwIDEgNTQuNjc5OTI3IDU0LjY3OTkyOHpNNTEwLjQzMTA2MyA5MTIuNjA4NjI5YTU0LjY3OTkyOCA1NC42Nzk5MjggMCAxIDEgNTQuNjc5OTI3LTU0LjY3OTkyNyA1NC44MDc1MzUgNTQuODA3NTM1IDAgMCAxLTU0LjY3OTkyNyA1NC42Nzk5Mjd6IG0zNDYuMzkxMjc5IDBhNTQuNjc5OTI4IDU0LjY3OTkyOCAwIDEgMSA1NC42Nzk5MjgtNTQuNjc5OTI3IDU0LjgwNzUzNSA1NC44MDc1MzUgMCAwIDEtNTQuNjc5OTI4IDU0LjY3OTkyN3oiLz48L3N2Zz4=;" parent="1" vertex="1">
          <mxGeometry x="3722.53" y="1009" width="120" height="120" as="geometry" />
        </mxCell>
        <mxCell id="hg0nlkvwgH0ZP0_xZrHD-127" value="" style="shape=image;verticalLabelPosition=bottom;labelBackgroundColor=default;verticalAlign=top;aspect=fixed;imageAspect=0;image=data:image/svg+xml,PHN2ZyB4bWxuczp4bGluaz0iaHR0cDovL3d3dy53My5vcmcvMTk5OS94bGluayIgeG1sbnM9Imh0dHA6Ly93d3cudzMub3JnLzIwMDAvc3ZnIiBoZWlnaHQ9IjIwMCIgd2lkdGg9IjIwMCIgdmVyc2lvbj0iMS4xIiB2aWV3Qm94PSIwIDAgMTAyNCAxMDI0IiBjbGFzcz0iaWNvbiI+PGRlZnM+PHN0eWxlIHR5cGU9InRleHQvY3NzIj5AZm9udC1mYWNlIHsgZm9udC1mYW1pbHk6IGZlZWRiYWNrLWljb25mb250OyBzcmM6IHVybCgiLy9hdC5hbGljZG4uY29tL3QvZm9udF8xMDMxMTU4X3U2OXc4eWh4ZHUud29mZjI/dD0xNjMwMDMzNzU5OTQ0IikgZm9ybWF0KCJ3b2ZmMiIpLCB1cmwoIi8vYXQuYWxpY2RuLmNvbS90L2ZvbnRfMTAzMTE1OF91Njl3OHloeGR1LndvZmY/dD0xNjMwMDMzNzU5OTQ0IikgZm9ybWF0KCJ3b2ZmIiksIHVybCgiLy9hdC5hbGljZG4uY29tL3QvZm9udF8xMDMxMTU4X3U2OXc4eWh4ZHUudHRmP3Q9MTYzMDAzMzc1OTk0NCIpIGZvcm1hdCgidHJ1ZXR5cGUiKTsgfSYjeGE7PC9zdHlsZT48L2RlZnM+PHBhdGggZD0iTTk2MCA0Mi42NjY2NjdINjRjLTEyLjggMC0yMS4zMzMzMzMgOC41MzMzMzMtMjEuMzMzMzMzIDIxLjMzMzMzM3Y4OTZjMCAxMi44IDguNTMzMzMzIDIxLjMzMzMzMyAyMS4zMzMzMzMgMjEuMzMzMzMzaDg5NmMxMi44IDAgMjEuMzMzMzMzLTguNTMzMzMzIDIxLjMzMzMzMy0yMS4zMzMzMzNWNjRjMC0xMi44LTguNTMzMzMzLTIxLjMzMzMzMy0yMS4zMzMzMzMtMjEuMzMzMzMzeiBtLTIxLjMzMzMzMyA4OTZIODUuMzMzMzMzVjY4Mi42NjY2NjdoODUzLjMzMzMzNHYyNTZ6IG0wLTI5OC42NjY2NjdIODUuMzMzMzMzVjM4NGg4NTMuMzMzMzM0djI1NnogbTAtMjk4LjY2NjY2N0g4NS4zMzMzMzNWODUuMzMzMzMzaDg1My4zMzMzMzR2MjU2ek0yOTguNjY2NjY3IDc2OGgtNDIuNjY2NjY3djg1LjMzMzMzM2g0Mi42NjY2Njd2LTg1LjMzMzMzM3ogbS04NS4zMzMzMzQgMEgxNzAuNjY2NjY3djg1LjMzMzMzM2g0Mi42NjY2NjZ2LTg1LjMzMzMzM3ogbTY2MS4zMzMzMzQgMjEuMzMzMzMzaC0xNzAuNjY2NjY3djQyLjY2NjY2N2gxNzAuNjY2NjY3di00Mi42NjY2Njd6TTI5OC42NjY2NjcgNDY5LjMzMzMzM2gtNDIuNjY2NjY3djg1LjMzMzMzNGg0Mi42NjY2Njd2LTg1LjMzMzMzNHogbS04NS4zMzMzMzQgMEgxNzAuNjY2NjY3djg1LjMzMzMzNGg0Mi42NjY2NjZ2LTg1LjMzMzMzNHogbTY2MS4zMzMzMzQgMjEuMzMzMzM0aC0xNzAuNjY2NjY3djQyLjY2NjY2NmgxNzAuNjY2NjY3di00Mi42NjY2NjZ6TTI5OC42NjY2NjcgMTcwLjY2NjY2N2gtNDIuNjY2NjY3djg1LjMzMzMzM2g0Mi42NjY2NjdWMTcwLjY2NjY2N3ogbS04NS4zMzMzMzQgMEgxNzAuNjY2NjY3djg1LjMzMzMzM2g0Mi42NjY2NjZWMTcwLjY2NjY2N3ogbTY2MS4zMzMzMzQgMjEuMzMzMzMzaC0xNzAuNjY2NjY3djQyLjY2NjY2N2gxNzAuNjY2NjY3VjE5MnoiLz48L3N2Zz4=;" parent="1" vertex="1">
          <mxGeometry x="3512.53" y="830.1100000000001" width="278" height="278" as="geometry" />
        </mxCell>
        <mxCell id="hg0nlkvwgH0ZP0_xZrHD-128" value="&lt;font style=&quot;font-size: 49px;&quot;&gt;&lt;b&gt;...&lt;/b&gt;&lt;/font&gt;" style="text;html=1;strokeColor=none;fillColor=none;align=center;verticalAlign=middle;whiteSpace=wrap;rounded=0;labelBackgroundColor=none;fontSize=34;fontColor=#000000;spacing=9;" parent="1" vertex="1">
          <mxGeometry x="3419.53" y="896" width="87" height="110" as="geometry" />
        </mxCell>
        <mxCell id="hg0nlkvwgH0ZP0_xZrHD-129" style="edgeStyle=orthogonalEdgeStyle;rounded=0;orthogonalLoop=1;jettySize=auto;html=1;fontSize=49;fontColor=#000000;strokeWidth=7;" parent="1" source="hg0nlkvwgH0ZP0_xZrHD-130" edge="1">
          <mxGeometry relative="1" as="geometry">
            <mxPoint x="4113.529999999997" y="983" as="targetPoint" />
          </mxGeometry>
        </mxCell>
        <mxCell id="hg0nlkvwgH0ZP0_xZrHD-130" value="" style="rounded=0;whiteSpace=wrap;html=1;labelBackgroundColor=none;fontSize=49;fontColor=#000000;strokeColor=default;strokeWidth=2;fillColor=none;dashed=1;" parent="1" vertex="1">
          <mxGeometry x="3083.53" y="807" width="774" height="352" as="geometry" />
        </mxCell>
        <mxCell id="hg0nlkvwgH0ZP0_xZrHD-131" style="edgeStyle=orthogonalEdgeStyle;rounded=0;orthogonalLoop=1;jettySize=auto;html=1;fontSize=49;fontColor=#000000;strokeWidth=7;" parent="1" edge="1">
          <mxGeometry relative="1" as="geometry">
            <mxPoint x="2503.5300000000007" y="785" as="sourcePoint" />
            <mxPoint x="2503.5300000000007" y="428" as="targetPoint" />
            <Array as="points">
              <mxPoint x="2503.53" y="653" />
              <mxPoint x="2503.53" y="653" />
            </Array>
          </mxGeometry>
        </mxCell>
        <mxCell id="hg0nlkvwgH0ZP0_xZrHD-132" value="" style="shape=image;verticalLabelPosition=bottom;labelBackgroundColor=default;verticalAlign=top;aspect=fixed;imageAspect=0;image=data:image/svg+xml,PHN2ZyB4bWxuczp4bGluaz0iaHR0cDovL3d3dy53My5vcmcvMTk5OS94bGluayIgeG1sbnM9Imh0dHA6Ly93d3cudzMub3JnLzIwMDAvc3ZnIiBoZWlnaHQ9IjIwMCIgd2lkdGg9IjIwMCIgdmVyc2lvbj0iMS4xIiB2aWV3Qm94PSIwIDAgMTAyNCAxMDI0IiBjbGFzcz0iaWNvbiI+PGRlZnM+PHN0eWxlIHR5cGU9InRleHQvY3NzIj5AZm9udC1mYWNlIHsgZm9udC1mYW1pbHk6IGZlZWRiYWNrLWljb25mb250OyBzcmM6IHVybCgiLy9hdC5hbGljZG4uY29tL3QvZm9udF8xMDMxMTU4X3U2OXc4eWh4ZHUud29mZjI/dD0xNjMwMDMzNzU5OTQ0IikgZm9ybWF0KCJ3b2ZmMiIpLCB1cmwoIi8vYXQuYWxpY2RuLmNvbS90L2ZvbnRfMTAzMTE1OF91Njl3OHloeGR1LndvZmY/dD0xNjMwMDMzNzU5OTQ0IikgZm9ybWF0KCJ3b2ZmIiksIHVybCgiLy9hdC5hbGljZG4uY29tL3QvZm9udF8xMDMxMTU4X3U2OXc4eWh4ZHUudHRmP3Q9MTYzMDAzMzc1OTk0NCIpIGZvcm1hdCgidHJ1ZXR5cGUiKTsgfSYjeGE7PC9zdHlsZT48L2RlZnM+PHBhdGggZD0iTTk2MCA0Mi42NjY2NjdINjRjLTEyLjggMC0yMS4zMzMzMzMgOC41MzMzMzMtMjEuMzMzMzMzIDIxLjMzMzMzM3Y4OTZjMCAxMi44IDguNTMzMzMzIDIxLjMzMzMzMyAyMS4zMzMzMzMgMjEuMzMzMzMzaDg5NmMxMi44IDAgMjEuMzMzMzMzLTguNTMzMzMzIDIxLjMzMzMzMy0yMS4zMzMzMzNWNjRjMC0xMi44LTguNTMzMzMzLTIxLjMzMzMzMy0yMS4zMzMzMzMtMjEuMzMzMzMzeiBtLTIxLjMzMzMzMyA4OTZIODUuMzMzMzMzVjY4Mi42NjY2NjdoODUzLjMzMzMzNHYyNTZ6IG0wLTI5OC42NjY2NjdIODUuMzMzMzMzVjM4NGg4NTMuMzMzMzM0djI1NnogbTAtMjk4LjY2NjY2N0g4NS4zMzMzMzNWODUuMzMzMzMzaDg1My4zMzMzMzR2MjU2ek0yOTguNjY2NjY3IDc2OGgtNDIuNjY2NjY3djg1LjMzMzMzM2g0Mi42NjY2Njd2LTg1LjMzMzMzM3ogbS04NS4zMzMzMzQgMEgxNzAuNjY2NjY3djg1LjMzMzMzM2g0Mi42NjY2NjZ2LTg1LjMzMzMzM3ogbTY2MS4zMzMzMzQgMjEuMzMzMzMzaC0xNzAuNjY2NjY3djQyLjY2NjY2N2gxNzAuNjY2NjY3di00Mi42NjY2Njd6TTI5OC42NjY2NjcgNDY5LjMzMzMzM2gtNDIuNjY2NjY3djg1LjMzMzMzNGg0Mi42NjY2Njd2LTg1LjMzMzMzNHogbS04NS4zMzMzMzQgMEgxNzAuNjY2NjY3djg1LjMzMzMzNGg0Mi42NjY2NjZ2LTg1LjMzMzMzNHogbTY2MS4zMzMzMzQgMjEuMzMzMzM0aC0xNzAuNjY2NjY3djQyLjY2NjY2NmgxNzAuNjY2NjY3di00Mi42NjY2NjZ6TTI5OC42NjY2NjcgMTcwLjY2NjY2N2gtNDIuNjY2NjY3djg1LjMzMzMzM2g0Mi42NjY2NjdWMTcwLjY2NjY2N3ogbS04NS4zMzMzMzQgMEgxNzAuNjY2NjY3djg1LjMzMzMzM2g0Mi42NjY2NjZWMTcwLjY2NjY2N3ogbTY2MS4zMzMzMzQgMjEuMzMzMzMzaC0xNzAuNjY2NjY3djQyLjY2NjY2N2gxNzAuNjY2NjY3VjE5MnoiLz48L3N2Zz4=;" parent="1" vertex="1">
          <mxGeometry x="2351.53" y="796" width="373" height="373" as="geometry" />
        </mxCell>
        <mxCell id="hg0nlkvwgH0ZP0_xZrHD-133" value="" style="shape=image;verticalLabelPosition=bottom;labelBackgroundColor=default;verticalAlign=top;aspect=fixed;imageAspect=0;image=data:image/svg+xml,PHN2ZyB4bWxuczp4bGluaz0iaHR0cDovL3d3dy53My5vcmcvMTk5OS94bGluayIgeG1sbnM9Imh0dHA6Ly93d3cudzMub3JnLzIwMDAvc3ZnIiBoZWlnaHQ9IjIwMCIgd2lkdGg9IjIwMCIgdmVyc2lvbj0iMS4xIiB2aWV3Qm94PSIwIDAgMTAyNCAxMDI0IiBjbGFzcz0iaWNvbiI+PGRlZnM+PHN0eWxlIHR5cGU9InRleHQvY3NzIj5AZm9udC1mYWNlIHsgZm9udC1mYW1pbHk6IGZlZWRiYWNrLWljb25mb250OyBzcmM6IHVybCgiLy9hdC5hbGljZG4uY29tL3QvZm9udF8xMDMxMTU4X3U2OXc4eWh4ZHUud29mZjI/dD0xNjMwMDMzNzU5OTQ0IikgZm9ybWF0KCJ3b2ZmMiIpLCB1cmwoIi8vYXQuYWxpY2RuLmNvbS90L2ZvbnRfMTAzMTE1OF91Njl3OHloeGR1LndvZmY/dD0xNjMwMDMzNzU5OTQ0IikgZm9ybWF0KCJ3b2ZmIiksIHVybCgiLy9hdC5hbGljZG4uY29tL3QvZm9udF8xMDMxMTU4X3U2OXc4eWh4ZHUudHRmP3Q9MTYzMDAzMzc1OTk0NCIpIGZvcm1hdCgidHJ1ZXR5cGUiKTsgfSYjeGE7PC9zdHlsZT48L2RlZnM+PHBhdGggY2xhc3M9InNlbGVjdGVkIiBkYXRhLXNwbS1hbmNob3ItaWQ9ImEzMTN4Ljc3ODEwNjkuMC5pMjAiIGZpbGw9IiMyYzJjMmMiIGQ9Ik05NiA0MTQuMjcyaDgyMS45NTJ2NDY2LjY1Nkg5NnoiLz48cGF0aCBjbGFzcz0ic2VsZWN0ZWQiIGRhdGEtc3BtLWFuY2hvci1pZD0iYTMxM3guNzc4MTA2OS4wLmkyMiIgZmlsbD0iIzJjMmMyYyIgZD0iTTg4OC4zODQgOTI2LjE0NEgxMzUuNjE2YTcxLjQ1NiA3MS40NTYgMCAwIDEtNzEuNTItNzEuMjMyVjE4MS42MzJhODcuMjY0IDg3LjI2NCAwIDAgMSA4MS4wNTYtODYuNzUyIDIyLjc1MiAyMi43NTIgMCAwIDEgNS45Mi0wLjQ4aDE3Mi4yODhjMzcuNDcyIDAgNzguMTQ0IDIxLjc2IDk4LjkxMiA1Mi44OTZsMzIuODk2IDQ5LjM0NGMyLjQzMiAzLjIgMTEuMjMyIDcuOTA0IDE1LjIzMiA4LjEyOGw0MDIuNDk2IDAuMTZjNDggMCA4Ny4wNCAzOS4wMDggODcuMDQgODYuOTc2djU2My4wNGE3MS40ODggNzEuNDg4IDAgMCAxLTcxLjU1MiA3MS4yek0xNTEuMDcyIDE1OC4yMDhjLTEzLjY2NCAxLjE1Mi0yMy4xNjggMTEuMjk2LTIzLjE2OCAyMy40MjR2NjczLjMxMmMwIDQuMDk2IDMuNDU2IDcuMzkyIDcuNzEyIDcuMzkyaDc1Mi43NjhhNy41ODQgNy41ODQgMCAwIDAgNy43MTItNy4zOTJWMjkxLjkwNGEyMy4yMzIgMjMuMjMyIDAgMCAwLTIzLjIzMi0yMy4xNjhsLTQwMi42MjQtMC4xNmMtMjQuNzM2IDAtNTQuNzUyLTE2LjEyOC02OC4yODgtMzYuNjcyTDM2OS4xODQgMTgyLjcyYy04LjgzMi0xMy4yOC0yOS44MjQtMjQuNTEyLTQ1LjgyNC0yNC41MTJIMTUxLjA3MnoiLz48cGF0aCBjbGFzcz0ic2VsZWN0ZWQiIGRhdGEtc3BtLWFuY2hvci1pZD0iYTMxM3guNzc4MTA2OS4wLmkyMyIgZmlsbD0iIzJjMmMyYyIgZD0iTTkyOCA0NDYuMjcySDk2YTMyIDMyIDAgMCAxIDAtNjRoODMyYTMyIDMyIDAgMSAxIDAgNjR6Ii8+PHBhdGggY2xhc3M9IiIgZGF0YS1zcG0tYW5jaG9yLWlkPSJhMzEzeC43NzgxMDY5LjAuaTIxIiBmaWxsPSIjNDBEMUU3IiBkPSJNMjM1LjcxMiA3MzQuMjRWNTk2LjhoNzAuNzg0YzEzLjEyIDAgMjMuMTY4IDEuMTIgMzAuMDggMy4zNmEzMiAzMiAwIDAgMSAxNi43NjggMTIuNTEyYzQuMjI0IDYuMDggNi4zNjggMTMuNTA0IDYuMzY4IDIyLjI3MiAwIDcuNjE2LTEuNjMyIDE0LjIwOC00Ljg2NCAxOS43NDRzLTcuNzQ0IDEwLjAxNi0xMy40MDggMTMuNDRhNTEuNzc2IDUxLjc3NiAwIDAgMS0xNC45MTIgNS40NGM1LjA1NiAxLjcyOCA4LjczNiAzLjMyOCAxMS4wNCA1LjA1NiAxLjU2OCAxLjEyIDMuODQgMy41MiA2Ljc4NCA3LjIzMiAyLjk3NiAzLjY4IDQuOTYgNi41NiA1Ljk1MiA4LjU3NmwyMC41NzYgMzkuODA4aC00OGwtMjIuNjg4LTQyLjAxNmMtMi44OC01LjQ0LTUuNDQtOC45MjgtNy42OC0xMC41OTJhMTguMTc2IDE4LjE3NiAwIDAgMC0xMC40LTMuMmgtMy43NDR2NTUuNzc2SDIzNS43MTJ2MC4wMzJ6IG00Mi42NTYtODEuNjY0aDE3LjkyYzEuOTUyIDAgNS42OTYtMC42NzIgMTEuMjY0LTEuOTJhMTEuMzkyIDExLjM5MiAwIDAgMCA2Ljg4LTQuMzIgMTIuOCAxMi44IDAgMCAwIDIuNjU2LTcuOTY4YzAtNC40NDgtMS40MDgtNy44NC00LjIyNC0xMC4yMDgtMi44MTYtMi4zMzYtOC4wOTYtMy41Mi0xNS44NC0zLjUyaC0xOC42NTZ2MjcuOTM2ek00ODguMDY0IDY5NC4wMTZoLTc2LjUxMmMwLjY3MiA2LjA4IDIuMzM2IDEwLjY4OCA0Ljk2IDEzLjY5NmExOC4wNDggMTguMDQ4IDAgMCAwIDE0LjQzMiA2LjQzMiAyMS4xODQgMjEuMTg0IDAgMCAwIDEwLjY4OC0yLjgxNiAyNS45MiAyNS45MiAwIDAgMCA2LjY1Ni02LjI0bDM3LjYgMy40MjRjLTUuNzYgMTAuMDE2LTEyLjY3MiAxNy4xODQtMjAuOCAyMS41MDQtOC4xMjggNC4zNTItMTkuNzc2IDYuNTYtMzQuOTc2IDYuNTYtMTMuMTg0IDAtMjMuNTUyLTEuODg4LTMxLjEzNi01LjZhNDUuNDQgNDUuNDQgMCAwIDEtMTguNzg0LTE3LjcyOCA1My41NjggNTMuNTY4IDAgMCAxLTcuNDU2LTI4LjU3NmMwLTE1LjUyIDQuOTkyLTI4LjEyOCAxNC45NDQtMzcuNzkyIDkuOTUyLTkuNjMyIDIzLjc0NC0xNC40IDQxLjMxMi0xNC40IDE0LjI0IDAgMjUuNTA0IDIuMTEyIDMzLjc2IDYuNDMyczE0LjUyOCAxMC41NiAxOC44NDggMTguNzUyYzQuMzIgOC4xOTIgNi40NjQgMTguODggNi40NjQgMzEuOTY4djQuMzg0eiBtLTM4LjgxNi0xOC4zMzZjLTAuNzM2LTcuMzYtMi43Mi0xMi42NzItNS45NTItMTUuODRzLTcuNDU2LTQuNzY4LTEyLjcwNC00Ljc2OGExNy4xODQgMTcuMTg0IDAgMCAwLTE0LjUyOCA3LjI2NGMtMi4zMDQgMy4wMDgtMy43NzYgNy40MjQtNC40MTYgMTMuNDA4bDM3LjYtMC4wNjR6TTYwNi4wMTYgNTk2Ljh2MTM3LjQ0aC0zNS42OHYtMTQuNjg4Yy00Ljk5MiA2LjI0LTkuNTY4IDEwLjQzMi0xMy42OTYgMTIuNjcyYTM4LjYyNCAzOC42MjQgMCAwIDEtMTguMzY4IDQuMzUyYy0xMy41NjggMC0yMy45NjgtNS4xODQtMzEuMDcyLTE1LjQ1Ni03LjEzNi0xMC4zMDQtMTAuNzItMjIuODQ4LTEwLjcyLTM3LjYgMC0xNi41NDQgMy45NjgtMjkuMTIgMTEuODcyLTM3LjkyYTM4LjcyIDM4LjcyIDAgMCAxIDMwLjE0NC0xMy4wODhjNS45ODQgMCAxMS4zMjggMC45NiAxNi4xNiAzLjAwOCA0LjggMi4wMTYgOS4xNTIgNC45OTIgMTIuODY0IDguOTkydi00Ny42MTZoMzguNDk2di0wLjA5NnogbS0zOC4yNzIgODcuNDI0YzAtNy43NzYtMS42OTYtMTMuNjMyLTQuOTYtMTcuNDcycy03LjQ1Ni01Ljc2LTEyLjYwOC01Ljc2YTEzLjgyNCAxMy44MjQgMCAwIDAtMTEuMTM2IDUuNTM2Yy0zLjA0IDMuNjQ4LTQuNTQ0IDkuOTItNC41NDQgMTguNTYgMCA4LjEyOCAxLjUzNiAxNC4wOCA0LjY3MiAxNy44NTZhMTQuMjQgMTQuMjQgMCAwIDAgMTEuNDU2IDUuNjk2YzQuODMyIDAgOC44OTYtMS45NTIgMTIuMTkyLTUuNzZzNC45MjgtMTAuMDggNC45MjgtMTguNjU2ek02MjYuMjQgNTk2LjhoMzguMTEydjI2LjAxNkg2MjYuMjR2LTI2LjAxNnogbTAgMzcuOTJoMzguMTEydjk5LjUySDYyNi4yNHYtOTkuNTJ6TTY3Ny40MDggNzA2LjYyNGwzNy45Mi0zLjU1MmExOC45NzYgMTguOTc2IDAgMCAwIDYuNTYgOS42OTYgMTkuMzkyIDE5LjM5MiAwIDAgMCAxMS4yNjQgMi45MTJjNS4xMiAwIDkuMDU2LTEuMDg4IDExLjkwNC0zLjMyOGE3LjQ1NiA3LjQ1NiAwIDAgMCAzLjI5Ni02LjA4YzAtMi43NTItMS40NC00LjgzMi00LjMyLTYuMzM2LTIuMDQ4LTEuMDU2LTcuNDg4LTIuMzY4LTE2LjQ0OC0zLjkzNi0xMy4yMTYtMi4zMDQtMjIuNDMyLTQuNDgtMjcuNTg0LTYuNDMycy05LjUwNC01LjI4LTEzLjAyNC05Ljk4NGEyNi4yMDggMjYuMjA4IDAgMCAxLTUuMzEyLTE2YzAtNi41NiAxLjk1Mi0xMi4xOTIgNS43Ni0xNi45NnM5LjA1Ni04LjI4OCAxNS43NDQtMTAuNjI0IDE1LjYxNi0zLjUyIDI2Ljg4LTMuNTJjMTEuODcyIDAgMjAuNjcyIDAuODk2IDI2LjMwNCAyLjc1MiA1LjY5NiAxLjgyNCAxMC4zNjggNC42NCAxNC4xNDQgOC40NDhzNi45MTIgOC45MjggOS40MDggMTUuNDI0bC0zNi4xOTIgMy41NTJhMTIuNTQ0IDEyLjU0NCAwIDAgMC00LjY3Mi03LjA3MiAxOS4wNzIgMTkuMDcyIDAgMCAwLTEwLjg4LTMuMDA4Yy00LjMyIDAtNy40MjQgMC43NjgtOS40MDggMi4zMDQtMS45ODQgMS41NjgtMi45NDQgMy4zNi0yLjk0NCA1LjU2OCAwIDIuNDMyIDEuMjQ4IDQuMzIgMy43MTIgNS41NjggMi40OTYgMS4yNDggNy45MzYgMi4zMzYgMTYuMzUyIDMuMzI4IDEyLjY3MiAxLjQ0IDIyLjA4IDMuMzkyIDI4LjMyIDYuMDE2YTMxLjA0IDMxLjA0IDAgMCAxIDE0LjIwOCAxMC45NDQgMjYuODE2IDI2LjgxNiAwIDAgMSA0LjkyOCAxNS42MTYgMzAuNTkyIDMwLjU5MiAwIDAgMS01LjI0OCAxNi43NjhjLTMuNDI0IDUuNDQtOC44OTYgOS43OTItMTYuNDE2IDEyLjk2LTcuNDU2IDMuMjMyLTE3LjYzMiA0LjgtMzAuNTI4IDQuOC0xOC4xNzYgMC0zMS4xMzYtMi41Ni0zOC44NDgtNy43NDRzLTEyLjczNi0xMi41MTItMTQuODgtMjIuMDh6Ii8+PC9zdmc+;" parent="1" vertex="1">
          <mxGeometry x="3345.53" y="128" width="250" height="250" as="geometry" />
        </mxCell>
        <mxCell id="hg0nlkvwgH0ZP0_xZrHD-134" value="" style="endArrow=classic;html=1;rounded=0;fontSize=49;fontColor=#000000;strokeWidth=7;" parent="1" edge="1">
          <mxGeometry width="50" height="50" relative="1" as="geometry">
            <mxPoint x="2782.5300000000007" y="786" as="sourcePoint" />
            <mxPoint x="3260.5300000000007" y="348" as="targetPoint" />
          </mxGeometry>
        </mxCell>
        <mxCell id="hg0nlkvwgH0ZP0_xZrHD-135" value="&lt;font style=&quot;font-size: 49px;&quot;&gt;上线队列服务器&lt;/font&gt;" style="text;html=1;strokeColor=none;fillColor=none;align=center;verticalAlign=middle;whiteSpace=wrap;rounded=0;labelBackgroundColor=none;fontSize=22;fontColor=#000000;" parent="1" vertex="1">
          <mxGeometry x="930" y="1129" width="432.04" height="95" as="geometry" />
        </mxCell>
        <mxCell id="hg0nlkvwgH0ZP0_xZrHD-136" value="&lt;font style=&quot;font-size: 49px;&quot;&gt;OIDB&lt;/font&gt;" style="text;html=1;strokeColor=none;fillColor=none;align=center;verticalAlign=middle;whiteSpace=wrap;rounded=0;labelBackgroundColor=none;fontSize=22;fontColor=#000000;" parent="1" vertex="1">
          <mxGeometry x="2322.01" y="315" width="432.04" height="95" as="geometry" />
        </mxCell>
        <mxCell id="hg0nlkvwgH0ZP0_xZrHD-137" value="&lt;font style=&quot;font-size: 49px;&quot;&gt;PUSH服务器&lt;/font&gt;" style="text;html=1;strokeColor=none;fillColor=none;align=center;verticalAlign=middle;whiteSpace=wrap;rounded=0;labelBackgroundColor=none;fontSize=22;fontColor=#CC0000;fontStyle=1" parent="1" vertex="1">
          <mxGeometry x="2323.53" y="1187" width="432.04" height="95" as="geometry" />
        </mxCell>
        <mxCell id="hg0nlkvwgH0ZP0_xZrHD-138" value="&lt;font style=&quot;font-size: 49px;&quot;&gt;msgAgents&lt;/font&gt;" style="text;html=1;strokeColor=none;fillColor=none;align=center;verticalAlign=middle;whiteSpace=wrap;rounded=0;labelBackgroundColor=none;fontSize=22;fontColor=#000000;" parent="1" vertex="1">
          <mxGeometry x="3272.53" y="1159" width="432.04" height="95" as="geometry" />
        </mxCell>
        <mxCell id="hg0nlkvwgH0ZP0_xZrHD-139" value="&lt;span style=&quot;font-size: 49px;&quot;&gt;Android&lt;/span&gt;" style="text;html=1;strokeColor=none;fillColor=none;align=center;verticalAlign=middle;whiteSpace=wrap;rounded=0;labelBackgroundColor=none;fontSize=22;fontColor=#000000;" parent="1" vertex="1">
          <mxGeometry x="4013.5299999999997" y="1106" width="432.04" height="95" as="geometry" />
        </mxCell>
        <mxCell id="hg0nlkvwgH0ZP0_xZrHD-140" value="" style="endArrow=classic;html=1;rounded=0;fontSize=49;fontColor=#CC0000;strokeWidth=7;" parent="1" edge="1">
          <mxGeometry width="50" height="50" relative="1" as="geometry">
            <mxPoint x="3752.5300000000007" y="781" as="sourcePoint" />
            <mxPoint x="4081.529999999999" y="429" as="targetPoint" />
          </mxGeometry>
        </mxCell>
        <mxCell id="hg0nlkvwgH0ZP0_xZrHD-141" value="" style="shape=image;verticalLabelPosition=bottom;labelBackgroundColor=default;verticalAlign=top;aspect=fixed;imageAspect=0;image=data:image/svg+xml,PHN2ZyB4bWxuczp4bGluaz0iaHR0cDovL3d3dy53My5vcmcvMTk5OS94bGluayIgeG1sbnM9Imh0dHA6Ly93d3cudzMub3JnLzIwMDAvc3ZnIiBoZWlnaHQ9IjIwMCIgd2lkdGg9IjIwMCIgdmVyc2lvbj0iMS4xIiB2aWV3Qm94PSIwIDAgMTAyNCAxMDI0IiBjbGFzcz0iaWNvbiI+PGRlZnM+PHN0eWxlIHR5cGU9InRleHQvY3NzIj5AZm9udC1mYWNlIHsgZm9udC1mYW1pbHk6IGZlZWRiYWNrLWljb25mb250OyBzcmM6IHVybCgiLy9hdC5hbGljZG4uY29tL3QvZm9udF8xMDMxMTU4X3U2OXc4eWh4ZHUud29mZjI/dD0xNjMwMDMzNzU5OTQ0IikgZm9ybWF0KCJ3b2ZmMiIpLCB1cmwoIi8vYXQuYWxpY2RuLmNvbS90L2ZvbnRfMTAzMTE1OF91Njl3OHloeGR1LndvZmY/dD0xNjMwMDMzNzU5OTQ0IikgZm9ybWF0KCJ3b2ZmIiksIHVybCgiLy9hdC5hbGljZG4uY29tL3QvZm9udF8xMDMxMTU4X3U2OXc4eWh4ZHUudHRmP3Q9MTYzMDAzMzc1OTk0NCIpIGZvcm1hdCgidHJ1ZXR5cGUiKTsgfSYjeGE7PC9zdHlsZT48L2RlZnM+PHBhdGggZD0iTTc1NS40NzI5NjEgNTQ1LjY0ODYzOGMtMS4xMjU2MTItMTY2LjA3ODk0NSA5Mi4xOTc4NjEtMTcwLjM3NjczNiA5Ni4zOTMzMjUtMTczLjAzNzI3NC01Mi40OTQ0NTQtNzYuNzQ2Mjc4LTEzNC4xNTI0OTMtODguODIxMDI1LTE2My4yMTM3NS04OS45NDY2MzctNjkuNDgwOTYzLTcuMDYwNjU4LTEzNS41ODUwOSA0MC4xMTI3MjEtMTcwLjg4ODM3OCA0MC4xMTI3MjEtMzUuMjAwOTU5IDAtODkuNjM5NjUyLTQwLjIxNTA0OS0xNDcuMjUwNTI1LTM5LjE5MTc2Ni03NS43MjI5OTQgMS4xMjU2MTItMTQ1LjYxMzI3MSA0My44OTg4NzEtMTg0LjcwMjcwOCAxMTEuNzQyNTgtNzguNjkwNTE3IDEzNi42MDgzNzQtMjAuMTU4Njg5IDMzOC45MTE1NjIgNTYuNTg3NTg5IDQ0OS42MzA4NTggMzcuNDUyMTgzIDU0LjIzNDAzNiA4Mi4xNjk2ODEgMTE1LjExOTQxNiAxNDAuOTA2MTY2IDExMi45NzA1MjEgNTYuNDg1MjYtMi4yNTEyMjQgNzcuODcxODktMzYuNjMzNTU3IDE0Ni4yMjcyNDEtMzYuNjMzNTU3czg3LjQ5MDc1NiAzNi42MzM1NTcgMTQ3LjM1Mjg1MyAzNS40MDU2MTZjNjAuNzgzMDUyLTEuMTI1NjEyIDk5LjM2MDg0Ny01NS4yNTczMiAxMzYuNTA2MDQ2LTEwOS42OTYwMTMgNDMuMDgwMjQ0LTYyLjkzMTk0OCA2MC43ODMwNTItMTIwLjc0NzQ3NyA2MS44MDYzMzYtMTIzLjgxNzMyOC0xLjMzMDI2OS0wLjYxMzk3LTExOC41OTg1ODEtNjYuODIwNDI2LTExOS44MjY1MjEtMTc3LjUzOTcyMkw3NTUuNDcyOTYxIDU0NS42NDg2MzggNzU1LjQ3Mjk2MSA1NDUuNjQ4NjM4eiIvPjxwYXRoIGQ9Ik01MTEuODI5MTEyIDI4OC4zOTUxMTVjMC0xMjMuMjAzMzU4IDk5Ljg3MjQ4OS0yMjMuMTc4MTc1IDIyMy4xNzgxNzUtMjIzLjE3ODE3NUM3MzUuMDA3Mjg3IDE4OC41MjI2MjYgNjM1LjAzMjQ2OSAyODguMzk1MTE1IDUxMS44MjkxMTIgMjg4LjM5NTExNXoiLz48L3N2Zz4=;" parent="1" vertex="1">
          <mxGeometry x="4146.48" y="400.9499999999998" width="108.1" height="108.1" as="geometry" />
        </mxCell>
        <mxCell id="hg0nlkvwgH0ZP0_xZrHD-142" value="" style="shape=image;verticalLabelPosition=bottom;labelBackgroundColor=default;verticalAlign=top;aspect=fixed;imageAspect=0;image=data:image/svg+xml,PHN2ZyB4bWxuczp4bGluaz0iaHR0cDovL3d3dy53My5vcmcvMTk5OS94bGluayIgeG1sbnM9Imh0dHA6Ly93d3cudzMub3JnLzIwMDAvc3ZnIiBoZWlnaHQ9IjIwMCIgd2lkdGg9IjIwMCIgdmVyc2lvbj0iMS4xIiB2aWV3Qm94PSIwIDAgMTAyNCAxMDI0IiBjbGFzcz0iaWNvbiI+PGRlZnM+PHN0eWxlIHR5cGU9InRleHQvY3NzIj5AZm9udC1mYWNlIHsgZm9udC1mYW1pbHk6IGZlZWRiYWNrLWljb25mb250OyBzcmM6IHVybCgiLy9hdC5hbGljZG4uY29tL3QvZm9udF8xMDMxMTU4X3U2OXc4eWh4ZHUud29mZjI/dD0xNjMwMDMzNzU5OTQ0IikgZm9ybWF0KCJ3b2ZmMiIpLCB1cmwoIi8vYXQuYWxpY2RuLmNvbS90L2ZvbnRfMTAzMTE1OF91Njl3OHloeGR1LndvZmY/dD0xNjMwMDMzNzU5OTQ0IikgZm9ybWF0KCJ3b2ZmIiksIHVybCgiLy9hdC5hbGljZG4uY29tL3QvZm9udF8xMDMxMTU4X3U2OXc4eWh4ZHUudHRmP3Q9MTYzMDAzMzc1OTk0NCIpIGZvcm1hdCgidHJ1ZXR5cGUiKTsgfSYjeGE7PC9zdHlsZT48L2RlZnM+PHBhdGggZD0iTTcyNC4zNTA3MDcgNjMuMzUzNTM1SDI5Ny43ODc0NzVDMjUzLjMxMDcwNyA2My4zNTM1MzUgMjE3LjIxMjEyMSA5OS41NTU1NTYgMjE3LjIxMjEyMSAxNDMuOTI4ODg5djczNi4yNDU2NTZjMCA0NC40NzY3NjggMzYuMjAyMDIgODAuNTc1MzU0IDgwLjU3NTM1NCA4MC41NzUzNTRoNDI2LjU2MzIzMmM0NC40NzY3NjggMCA4MC41NzUzNTQtMzYuMjAyMDIgODAuNTc1MzU0LTgwLjU3NTM1NFYxNDMuOTI4ODg5YzAtNDQuNDc2NzY4LTM2LjA5ODU4Ni04MC41NzUzNTQtODAuNTc1MzU0LTgwLjU3NTM1NHpNMjk3Ljc4NzQ3NSAxMDQuNzI3MjczaDQyNi41NjMyMzJjMjEuNjE3Nzc4IDAgMzkuMjAxNjE2IDE3LjU4MzgzOCAzOS4yMDE2MTYgMzkuMjAxNjE2VjE3OS43MTcxNzJIMjU4LjU4NTg1OXYtMzUuNzg4MjgzQzI1OC41ODU4NTkgMTIyLjMxMTExMSAyNzYuMTY5Njk3IDEwNC43MjcyNzMgMjk3Ljc4NzQ3NSAxMDQuNzI3Mjczek0yNTguNTg1ODU5IDIyMS4wOTA5MDloNTA1LjA2OTg5OXY1MjcuNzIyMDJIMjU4LjU4NTg1OVYyMjEuMDkwOTA5eiBtNDY1Ljc2NDg0OCA2OTguMjg1MjUzSDI5Ny43ODc0NzVjLTIxLjYxNzc3OCAwLTM5LjIwMTYxNi0xNy41ODM4MzgtMzkuMjAxNjE2LTM5LjIwMTYxN3YtODkuOTg3ODc4aDUwNS4wNjk4OTl2ODkuOTg3ODc4Yy0wLjEwMzQzNCAyMS42MTc3NzgtMTcuNjg3MjczIDM5LjIwMTYxNi0zOS4zMDUwNTEgMzkuMjAxNjE3eiBtMCAwIi8+PHBhdGggZD0iTTQzNS45NzU3NTggMTQ5LjcyMTIxMmgxNTAuMDgzMjMyYzguMjc0NzQ3IDAgMTQuOTk3OTgtNi43MjMyMzIgMTQuOTk3OTgtMTQuOTk3OTggMC04LjI3NDc0Ny02LjcyMzIzMi0xNC45OTc5OC0xNC45OTc5OC0xNC45OTc5NzlINDM1Ljk3NTc1OGMtOC4yNzQ3NDcgMC0xNC45OTc5OCA2LjcyMzIzMi0xNC45OTc5OCAxNC45OTc5NzkgMCA4LjI3NDc0NyA2LjcyMzIzMiAxNC45OTc5OCAxNC45OTc5OCAxNC45OTc5OHogbTAgME00NTcuNDkwMTAxIDg1NS42NjA2MDZjMCAxOS4xMzUzNTQgMTAuMjE0MTQxIDM2LjgyMjYyNiAyNi43ODk0OTUgNDYuNDAzMjMyIDE2LjU3NTM1NCA5LjU2NzY3NyAzNy4wMDM2MzYgOS41Njc2NzcgNTMuNTc4OTkgMGE1My41NzUxMTEgNTMuNTc1MTExIDAgMCAwIDI2Ljc4OTQ5NS00Ni40MDMyMzJjMC0yOS41OTUxNTItMjMuOTgzODM4LTUzLjU3ODk5LTUzLjU3ODk5LTUzLjU3ODk5LTI5LjU5NTE1MiAwLTUzLjU3ODk5IDIzLjk4MzgzOC01My41Nzg5OSA1My41Nzg5OXogbTAgMCIvPjwvc3ZnPg==;" parent="1" vertex="1">
          <mxGeometry x="4067.5299999999997" y="331.5" width="261" height="261" as="geometry" />
        </mxCell>
        <mxCell id="hg0nlkvwgH0ZP0_xZrHD-143" value="&lt;span style=&quot;font-size: 49px;&quot;&gt;iOS MQQ&lt;/span&gt;" style="text;html=1;strokeColor=none;fillColor=none;align=center;verticalAlign=middle;whiteSpace=wrap;rounded=0;labelBackgroundColor=none;fontSize=22;fontColor=#000000;" parent="1" vertex="1">
          <mxGeometry x="3996.53" y="592.5" width="432.04" height="95" as="geometry" />
        </mxCell>
        <mxCell id="hg0nlkvwgH0ZP0_xZrHD-144" value="" style="endArrow=classic;html=1;rounded=0;fontSize=49;fontColor=#CC0000;strokeWidth=7;exitX=1;exitY=0.5;exitDx=0;exitDy=0;" parent="1" source="hg0nlkvwgH0ZP0_xZrHD-138" edge="1">
          <mxGeometry width="50" height="50" relative="1" as="geometry">
            <mxPoint x="3833.53" y="1222" as="sourcePoint" />
            <mxPoint x="4086.529999999999" y="1633" as="targetPoint" />
          </mxGeometry>
        </mxCell>
        <mxCell id="hg0nlkvwgH0ZP0_xZrHD-145" value="" style="shape=image;verticalLabelPosition=bottom;labelBackgroundColor=default;verticalAlign=top;aspect=fixed;imageAspect=0;image=data:image/svg+xml,PHN2ZyB4bWxuczp4bGluaz0iaHR0cDovL3d3dy53My5vcmcvMTk5OS94bGluayIgeG1sbnM9Imh0dHA6Ly93d3cudzMub3JnLzIwMDAvc3ZnIiBoZWlnaHQ9IjIwMCIgd2lkdGg9IjI0OS4yMTg3NSIgdmVyc2lvbj0iMS4xIiB2aWV3Qm94PSIwIDAgMTI3NiAxMDI0IiBjbGFzcz0iaWNvbiI+PGRlZnM+PHN0eWxlIHR5cGU9InRleHQvY3NzIj5AZm9udC1mYWNlIHsgZm9udC1mYW1pbHk6IGZlZWRiYWNrLWljb25mb250OyBzcmM6IHVybCgiLy9hdC5hbGljZG4uY29tL3QvZm9udF8xMDMxMTU4X3U2OXc4eWh4ZHUud29mZjI/dD0xNjMwMDMzNzU5OTQ0IikgZm9ybWF0KCJ3b2ZmMiIpLCB1cmwoIi8vYXQuYWxpY2RuLmNvbS90L2ZvbnRfMTAzMTE1OF91Njl3OHloeGR1LndvZmY/dD0xNjMwMDMzNzU5OTQ0IikgZm9ybWF0KCJ3b2ZmIiksIHVybCgiLy9hdC5hbGljZG4uY29tL3QvZm9udF8xMDMxMTU4X3U2OXc4eWh4ZHUudHRmP3Q9MTYzMDAzMzc1OTk0NCIpIGZvcm1hdCgidHJ1ZXR5cGUiKTsgfSYjeGE7PC9zdHlsZT48L2RlZnM+PHBhdGggZmlsbD0iI0IwRTU1QyIgZD0iTTYxLjUzOTE2NSA2NTcuMzM1NTdoMTIwNy40MjAxOTl2MTYwLjc0NTgwNkg2MS41MzkxNjV6Ii8+PHBhdGggZmlsbD0iIzY5NDk0RCIgZD0iTTEyNjguNjU0OTIxIDYyNS44NzY0NzlIOC4wNTg3MTFhNy4yMDUxNDcgNy4yMDUxNDcgMCAxIDEgMC0xNC4zMDg4MTJIMTI2OC42NTQ5MjFhNy4yMDUxNDcgNy4yMDUxNDcgMCAxIDEgMCAxNC4zMDg4MTJ6TTg1OS40ODM3OCA5MjYuMjYwMDU1SDQxNy41MzQyOTVhNy42MTEwNyA3LjYxMTA3IDAgMCAxLTcuOTE1NTEzLTcuMjA1MTQ2di0xMDEuNDgwOTM4YTcuNjExMDcgNy42MTEwNyAwIDAgMSA3LjkxNTUxMy03LjIwNTE0N2g0NDEuOTQ5NDg1YTcuNjExMDcgNy42MTEwNyAwIDAgMSA3LjkxNTUxMyA3LjIwNTE0N3YxMDEuNDgwOTM4YTcuNjExMDcgNy42MTEwNyAwIDAgMS03LjkxNTUxMyA3LjIwNTE0NnogbS00MzQuMDMzOTcyLTE0LjQxMDI5M2g0MjYuMjE5OTM5di04Ni42NjQ3MjFoLTQyNi4yMTk5Mzl6Ii8+PHBhdGggZmlsbD0iIzY5NDk0RCIgZD0iTTkyNi4yNTgyMzcgMTAyMy45ODYxOTloLTU3NS4zOTY5MThhOC4xMTg0NzUgOC4xMTg0NzUgMCAwIDEtNi43OTkyMjMtMy41NTE4MzMgNi41OTYyNjEgNi41OTYyNjEgMCAwIDEgMC03LjEwMzY2Nkw0MDUuNDU4MDY0IDkxMy4zNzE5NzZhOC4xMTg0NzUgOC4xMTg0NzUgMCAwIDEgNi45MDA3MDMtMy42NTMzMTNoNDUyLjMwMDU0YTguMTE4NDc1IDguMTE4NDc1IDAgMCAxIDYuOTAwNzA0IDMuNjUzMzEzbDYxLjU5ODkzIDEwMC4zNjQ2NDhhNi41OTYyNjEgNi41OTYyNjEgMCAwIDEgMCA3LjEwMzY2NiA4LjExODQ3NSA4LjExODQ3NSAwIDAgMS02LjkwMDcwNCAzLjE0NTkwOXogbS01NjEuODk5OTUzLTE0LjQxMDI5NGg1NDcuOTk3MDY0TDg1OS45OTExODQgOTIzLjUyMDA3SDQxNy4xMjgzNzF6TTEyMzMuMjM4MDc0IDgyNS4xODUwNDFINDMuNzgwMDAxQTQxLjgxMDE0NiA0MS44MTAxNDYgMCAwIDEgMC4xNDMxOTggNzg1LjcwODk1NlYzOS41MTk2MkE0MS44MTAxNDYgNDEuODEwMTQ2IDAgMCAxIDQzLjc4MDAwMSAwLjA0MzUzNWgxMTg5LjQ1ODA3M2E0MS44MTAxNDYgNDEuODEwMTQ2IDAgMCAxIDQzLjYzNjgwMyAzOS40NzYwODV2NzQ2LjE4OTMzNmE0MS44MTAxNDYgNDEuODEwMTQ2IDAgMCAxLTQzLjYzNjgwMyAzOS40NzYwODV6TTQzLjc4MDAwMSAxNC4zNTIzNDhhMjYuNTg4MDA2IDI2LjU4ODAwNiAwIDAgMC0yNy44MDU3NzcgMjUuMTY3Mjcydjc0Ni4xODkzMzZBMjYuNTg4MDA2IDI2LjU4ODAwNiAwIDAgMCA0My43ODAwMDEgODEwLjg3NjIyOWgxMTg5LjQ1ODA3M2EyNi41ODgwMDYgMjYuNTg4MDA2IDAgMCAwIDI3LjgwNTc3Ny0yNS4xNjcyNzNWMzkuNTE5NjJhMjYuNTg4MDA2IDI2LjU4ODAwNiAwIDAgMC0yNy44MDU3NzctMjUuMTY3MjcyeiIvPjxwYXRoIGZpbGw9IiM2OTQ5NEQiIGQ9Ik02MzguNTU5Nzc4IDczNy43MDg0NzNtLTIzLjc0NjU0IDBhMjMuNzQ2NTM5IDIzLjc0NjUzOSAwIDEgMCA0Ny40OTMwNzkgMCAyMy43NDY1MzkgMjMuNzQ2NTM5IDAgMSAwLTQ3LjQ5MzA3OSAwWiIvPjwvc3ZnPg==;" parent="1" vertex="1">
          <mxGeometry x="4098.53" y="1510" width="273.09" height="219.35" as="geometry" />
        </mxCell>
        <mxCell id="hg0nlkvwgH0ZP0_xZrHD-146" value="&lt;font style=&quot;font-size: 49px;&quot;&gt;PC&lt;/font&gt;" style="text;html=1;strokeColor=none;fillColor=none;align=center;verticalAlign=middle;whiteSpace=wrap;rounded=0;labelBackgroundColor=none;fontSize=22;fontColor=#000000;" parent="1" vertex="1">
          <mxGeometry x="4127.53" y="1749" width="250.09" height="95" as="geometry" />
        </mxCell>
        <mxCell id="hg0nlkvwgH0ZP0_xZrHD-147" value="&lt;font color=&quot;#000000&quot;&gt;登录信息(uin)&lt;/font&gt;" style="text;html=1;strokeColor=none;fillColor=none;align=center;verticalAlign=middle;whiteSpace=wrap;rounded=0;dashed=1;labelBackgroundColor=none;fontSize=49;fontColor=#CC0000;" parent="1" vertex="1">
          <mxGeometry x="2088" y="865" width="207" height="99" as="geometry" />
        </mxCell>
        <mxCell id="hg0nlkvwgH0ZP0_xZrHD-148" value="&lt;font style=&quot;font-size: 30px;&quot; color=&quot;#000000&quot;&gt;0X860 拉取讨论组信息&lt;br&gt;0X5d5 拉取群信息&lt;br&gt;&lt;/font&gt;" style="text;html=1;strokeColor=none;fillColor=none;align=center;verticalAlign=middle;whiteSpace=wrap;rounded=0;dashed=1;labelBackgroundColor=none;fontSize=49;fontColor=#CC0000;" parent="1" vertex="1">
          <mxGeometry x="2159.53" y="505" width="354" height="99" as="geometry" />
        </mxCell>
        <mxCell id="hg0nlkvwgH0ZP0_xZrHD-149" style="edgeStyle=orthogonalEdgeStyle;rounded=0;orthogonalLoop=1;jettySize=auto;html=1;fontSize=49;fontColor=#000000;strokeWidth=7;verticalAlign=top;" parent="1" edge="1">
          <mxGeometry relative="1" as="geometry">
            <mxPoint x="2560.5300000000007" y="427.0000000000009" as="sourcePoint" />
            <mxPoint x="2560.5300000000007" y="796" as="targetPoint" />
            <Array as="points">
              <mxPoint x="2560.53" y="427" />
            </Array>
          </mxGeometry>
        </mxCell>
        <mxCell id="hg0nlkvwgH0ZP0_xZrHD-150" value="" style="endArrow=classic;html=1;rounded=0;fontSize=49;fontColor=#000000;strokeWidth=7;" parent="1" edge="1">
          <mxGeometry width="50" height="50" relative="1" as="geometry">
            <mxPoint x="3281.5300000000007" y="390" as="sourcePoint" />
            <mxPoint x="2801.5300000000007" y="822.0000000000009" as="targetPoint" />
          </mxGeometry>
        </mxCell>
        <mxCell id="hg0nlkvwgH0ZP0_xZrHD-151" value="&lt;font style=&quot;font-size: 30px;&quot; color=&quot;#000000&quot;&gt;遍历roomInfoVec(多人)查询room_state_read()&lt;br&gt;&lt;/font&gt;" style="text;html=1;strokeColor=none;fillColor=none;align=center;verticalAlign=middle;whiteSpace=wrap;rounded=0;dashed=1;labelBackgroundColor=none;fontSize=49;fontColor=#CC0000;" parent="1" vertex="1">
          <mxGeometry x="2687.53" y="356" width="512" height="99" as="geometry" />
        </mxCell>
        <mxCell id="hg0nlkvwgH0ZP0_xZrHD-152" value="&lt;font style=&quot;font-size: 30px; line-height: 1;&quot; color=&quot;#000000&quot;&gt;返回roomInfoVec&lt;br&gt;&lt;/font&gt;" style="text;html=1;strokeColor=none;fillColor=none;align=center;verticalAlign=middle;whiteSpace=wrap;rounded=0;dashed=1;labelBackgroundColor=none;fontSize=49;fontColor=#CC0000;spacing=0;spacingTop=0;" parent="1" vertex="1">
          <mxGeometry x="2565.53" y="540" width="199.5" height="99" as="geometry" />
        </mxCell>
        <mxCell id="hg0nlkvwgH0ZP0_xZrHD-153" value="&lt;font style=&quot;font-size: 46px;&quot;&gt;①&lt;/font&gt;" style="text;html=1;strokeColor=none;fillColor=none;align=center;verticalAlign=middle;whiteSpace=wrap;rounded=0;dashed=1;labelBackgroundColor=none;fontSize=30;fontColor=#000000;" parent="1" vertex="1">
          <mxGeometry x="2285.53" y="467" width="60" height="30" as="geometry" />
        </mxCell>
        <mxCell id="hg0nlkvwgH0ZP0_xZrHD-154" value="&lt;font style=&quot;font-size: 46px;&quot;&gt;②&lt;/font&gt;" style="text;html=1;strokeColor=none;fillColor=none;align=center;verticalAlign=middle;whiteSpace=wrap;rounded=0;dashed=1;labelBackgroundColor=none;fontSize=30;fontColor=#000000;" parent="1" vertex="1">
          <mxGeometry x="2633.28" y="494" width="60" height="30" as="geometry" />
        </mxCell>
        <mxCell id="hg0nlkvwgH0ZP0_xZrHD-155" value="&lt;font style=&quot;font-size: 46px;&quot;&gt;⑤&lt;/font&gt;" style="text;html=1;strokeColor=none;fillColor=none;align=center;verticalAlign=middle;whiteSpace=wrap;rounded=0;dashed=1;labelBackgroundColor=none;fontSize=30;fontColor=#000000;" parent="1" vertex="1">
          <mxGeometry x="2755.57" y="1538" width="60" height="77" as="geometry" />
        </mxCell>
        <mxCell id="hg0nlkvwgH0ZP0_xZrHD-156" value="&lt;font style=&quot;font-size: 46px;&quot;&gt;④&lt;/font&gt;" style="text;html=1;strokeColor=none;fillColor=none;align=center;verticalAlign=middle;whiteSpace=wrap;rounded=0;dashed=1;labelBackgroundColor=none;fontSize=30;fontColor=#000000;" parent="1" vertex="1">
          <mxGeometry x="3277.53" y="473" width="60" height="72" as="geometry" />
        </mxCell>
        <mxCell id="hg0nlkvwgH0ZP0_xZrHD-157" value="&lt;font style=&quot;font-size: 46px;&quot;&gt;⑦&lt;/font&gt;" style="text;html=1;strokeColor=none;fillColor=none;align=center;verticalAlign=middle;whiteSpace=wrap;rounded=0;dashed=1;labelBackgroundColor=none;fontSize=30;fontColor=#000000;" parent="1" vertex="1">
          <mxGeometry x="2899.53" y="1004" width="60" height="30" as="geometry" />
        </mxCell>
        <mxCell id="hg0nlkvwgH0ZP0_xZrHD-158" value="&lt;font style=&quot;&quot; color=&quot;#000000&quot;&gt;&lt;span style=&quot;font-size: 30px;&quot;&gt;返回有音视频房间的群号列表&lt;/span&gt;&lt;br&gt;&lt;/font&gt;" style="text;html=1;strokeColor=none;fillColor=none;align=center;verticalAlign=middle;whiteSpace=wrap;rounded=0;dashed=1;labelBackgroundColor=none;fontSize=49;fontColor=#CC0000;" parent="1" vertex="1">
          <mxGeometry x="3096.53" y="540" width="416" height="125" as="geometry" />
        </mxCell>
        <mxCell id="hg0nlkvwgH0ZP0_xZrHD-159" value="&lt;font style=&quot;&quot; color=&quot;#000000&quot;&gt;&lt;span style=&quot;font-size: 30px;&quot;&gt;组包、下发S2C消息&lt;/span&gt;&lt;br&gt;&lt;span style=&quot;font-size: 30px;&quot;&gt;0X95(PC/手机)&lt;br&gt;0x91(手机并且带讨论组)&lt;/span&gt;&lt;br&gt;&lt;/font&gt;" style="text;html=1;strokeColor=none;fillColor=none;align=center;verticalAlign=middle;whiteSpace=wrap;rounded=0;dashed=1;labelBackgroundColor=none;fontSize=49;fontColor=#CC0000;" parent="1" vertex="1">
          <mxGeometry x="2737.53" y="779" width="330" height="215.5" as="geometry" />
        </mxCell>
        <mxCell id="hg0nlkvwgH0ZP0_xZrHD-160" value="" style="shape=image;verticalLabelPosition=bottom;labelBackgroundColor=default;verticalAlign=top;aspect=fixed;imageAspect=0;image=data:image/svg+xml,PHN2ZyB4bWxuczp4bGluaz0iaHR0cDovL3d3dy53My5vcmcvMTk5OS94bGluayIgeG1sbnM9Imh0dHA6Ly93d3cudzMub3JnLzIwMDAvc3ZnIiBoZWlnaHQ9IjIwMCIgd2lkdGg9IjIwMCIgdmVyc2lvbj0iMS4xIiB2aWV3Qm94PSIwIDAgMTAyNCAxMDI0IiBjbGFzcz0iaWNvbiI+PGRlZnM+PHN0eWxlIHR5cGU9InRleHQvY3NzIj5AZm9udC1mYWNlIHsgZm9udC1mYW1pbHk6IGZlZWRiYWNrLWljb25mb250OyBzcmM6IHVybCgiLy9hdC5hbGljZG4uY29tL3QvZm9udF8xMDMxMTU4X3U2OXc4eWh4ZHUud29mZjI/dD0xNjMwMDMzNzU5OTQ0IikgZm9ybWF0KCJ3b2ZmMiIpLCB1cmwoIi8vYXQuYWxpY2RuLmNvbS90L2ZvbnRfMTAzMTE1OF91Njl3OHloeGR1LndvZmY/dD0xNjMwMDMzNzU5OTQ0IikgZm9ybWF0KCJ3b2ZmIiksIHVybCgiLy9hdC5hbGljZG4uY29tL3QvZm9udF8xMDMxMTU4X3U2OXc4eWh4ZHUudHRmP3Q9MTYzMDAzMzc1OTk0NCIpIGZvcm1hdCgidHJ1ZXR5cGUiKTsgfSYjeGE7PC9zdHlsZT48L2RlZnM+PHBhdGggY2xhc3M9InNlbGVjdGVkIiBkYXRhLXNwbS1hbmNob3ItaWQ9ImEzMTN4Ljc3ODEwNjkuMC5pMjAiIGZpbGw9IiMyYzJjMmMiIGQ9Ik05NiA0MTQuMjcyaDgyMS45NTJ2NDY2LjY1Nkg5NnoiLz48cGF0aCBjbGFzcz0ic2VsZWN0ZWQiIGRhdGEtc3BtLWFuY2hvci1pZD0iYTMxM3guNzc4MTA2OS4wLmkyMiIgZmlsbD0iIzJjMmMyYyIgZD0iTTg4OC4zODQgOTI2LjE0NEgxMzUuNjE2YTcxLjQ1NiA3MS40NTYgMCAwIDEtNzEuNTItNzEuMjMyVjE4MS42MzJhODcuMjY0IDg3LjI2NCAwIDAgMSA4MS4wNTYtODYuNzUyIDIyLjc1MiAyMi43NTIgMCAwIDEgNS45Mi0wLjQ4aDE3Mi4yODhjMzcuNDcyIDAgNzguMTQ0IDIxLjc2IDk4LjkxMiA1Mi44OTZsMzIuODk2IDQ5LjM0NGMyLjQzMiAzLjIgMTEuMjMyIDcuOTA0IDE1LjIzMiA4LjEyOGw0MDIuNDk2IDAuMTZjNDggMCA4Ny4wNCAzOS4wMDggODcuMDQgODYuOTc2djU2My4wNGE3MS40ODggNzEuNDg4IDAgMCAxLTcxLjU1MiA3MS4yek0xNTEuMDcyIDE1OC4yMDhjLTEzLjY2NCAxLjE1Mi0yMy4xNjggMTEuMjk2LTIzLjE2OCAyMy40MjR2NjczLjMxMmMwIDQuMDk2IDMuNDU2IDcuMzkyIDcuNzEyIDcuMzkyaDc1Mi43NjhhNy41ODQgNy41ODQgMCAwIDAgNy43MTItNy4zOTJWMjkxLjkwNGEyMy4yMzIgMjMuMjMyIDAgMCAwLTIzLjIzMi0yMy4xNjhsLTQwMi42MjQtMC4xNmMtMjQuNzM2IDAtNTQuNzUyLTE2LjEyOC02OC4yODgtMzYuNjcyTDM2OS4xODQgMTgyLjcyYy04LjgzMi0xMy4yOC0yOS44MjQtMjQuNTEyLTQ1LjgyNC0yNC41MTJIMTUxLjA3MnoiLz48cGF0aCBjbGFzcz0ic2VsZWN0ZWQiIGRhdGEtc3BtLWFuY2hvci1pZD0iYTMxM3guNzc4MTA2OS4wLmkyMyIgZmlsbD0iIzJjMmMyYyIgZD0iTTkyOCA0NDYuMjcySDk2YTMyIDMyIDAgMCAxIDAtNjRoODMyYTMyIDMyIDAgMSAxIDAgNjR6Ii8+PHBhdGggY2xhc3M9IiIgZGF0YS1zcG0tYW5jaG9yLWlkPSJhMzEzeC43NzgxMDY5LjAuaTIxIiBmaWxsPSIjNDBEMUU3IiBkPSJNMjM1LjcxMiA3MzQuMjRWNTk2LjhoNzAuNzg0YzEzLjEyIDAgMjMuMTY4IDEuMTIgMzAuMDggMy4zNmEzMiAzMiAwIDAgMSAxNi43NjggMTIuNTEyYzQuMjI0IDYuMDggNi4zNjggMTMuNTA0IDYuMzY4IDIyLjI3MiAwIDcuNjE2LTEuNjMyIDE0LjIwOC00Ljg2NCAxOS43NDRzLTcuNzQ0IDEwLjAxNi0xMy40MDggMTMuNDRhNTEuNzc2IDUxLjc3NiAwIDAgMS0xNC45MTIgNS40NGM1LjA1NiAxLjcyOCA4LjczNiAzLjMyOCAxMS4wNCA1LjA1NiAxLjU2OCAxLjEyIDMuODQgMy41MiA2Ljc4NCA3LjIzMiAyLjk3NiAzLjY4IDQuOTYgNi41NiA1Ljk1MiA4LjU3NmwyMC41NzYgMzkuODA4aC00OGwtMjIuNjg4LTQyLjAxNmMtMi44OC01LjQ0LTUuNDQtOC45MjgtNy42OC0xMC41OTJhMTguMTc2IDE4LjE3NiAwIDAgMC0xMC40LTMuMmgtMy43NDR2NTUuNzc2SDIzNS43MTJ2MC4wMzJ6IG00Mi42NTYtODEuNjY0aDE3LjkyYzEuOTUyIDAgNS42OTYtMC42NzIgMTEuMjY0LTEuOTJhMTEuMzkyIDExLjM5MiAwIDAgMCA2Ljg4LTQuMzIgMTIuOCAxMi44IDAgMCAwIDIuNjU2LTcuOTY4YzAtNC40NDgtMS40MDgtNy44NC00LjIyNC0xMC4yMDgtMi44MTYtMi4zMzYtOC4wOTYtMy41Mi0xNS44NC0zLjUyaC0xOC42NTZ2MjcuOTM2ek00ODguMDY0IDY5NC4wMTZoLTc2LjUxMmMwLjY3MiA2LjA4IDIuMzM2IDEwLjY4OCA0Ljk2IDEzLjY5NmExOC4wNDggMTguMDQ4IDAgMCAwIDE0LjQzMiA2LjQzMiAyMS4xODQgMjEuMTg0IDAgMCAwIDEwLjY4OC0yLjgxNiAyNS45MiAyNS45MiAwIDAgMCA2LjY1Ni02LjI0bDM3LjYgMy40MjRjLTUuNzYgMTAuMDE2LTEyLjY3MiAxNy4xODQtMjAuOCAyMS41MDQtOC4xMjggNC4zNTItMTkuNzc2IDYuNTYtMzQuOTc2IDYuNTYtMTMuMTg0IDAtMjMuNTUyLTEuODg4LTMxLjEzNi01LjZhNDUuNDQgNDUuNDQgMCAwIDEtMTguNzg0LTE3LjcyOCA1My41NjggNTMuNTY4IDAgMCAxLTcuNDU2LTI4LjU3NmMwLTE1LjUyIDQuOTkyLTI4LjEyOCAxNC45NDQtMzcuNzkyIDkuOTUyLTkuNjMyIDIzLjc0NC0xNC40IDQxLjMxMi0xNC40IDE0LjI0IDAgMjUuNTA0IDIuMTEyIDMzLjc2IDYuNDMyczE0LjUyOCAxMC41NiAxOC44NDggMTguNzUyYzQuMzIgOC4xOTIgNi40NjQgMTguODggNi40NjQgMzEuOTY4djQuMzg0eiBtLTM4LjgxNi0xOC4zMzZjLTAuNzM2LTcuMzYtMi43Mi0xMi42NzItNS45NTItMTUuODRzLTcuNDU2LTQuNzY4LTEyLjcwNC00Ljc2OGExNy4xODQgMTcuMTg0IDAgMCAwLTE0LjUyOCA3LjI2NGMtMi4zMDQgMy4wMDgtMy43NzYgNy40MjQtNC40MTYgMTMuNDA4bDM3LjYtMC4wNjR6TTYwNi4wMTYgNTk2Ljh2MTM3LjQ0aC0zNS42OHYtMTQuNjg4Yy00Ljk5MiA2LjI0LTkuNTY4IDEwLjQzMi0xMy42OTYgMTIuNjcyYTM4LjYyNCAzOC42MjQgMCAwIDEtMTguMzY4IDQuMzUyYy0xMy41NjggMC0yMy45NjgtNS4xODQtMzEuMDcyLTE1LjQ1Ni03LjEzNi0xMC4zMDQtMTAuNzItMjIuODQ4LTEwLjcyLTM3LjYgMC0xNi41NDQgMy45NjgtMjkuMTIgMTEuODcyLTM3LjkyYTM4LjcyIDM4LjcyIDAgMCAxIDMwLjE0NC0xMy4wODhjNS45ODQgMCAxMS4zMjggMC45NiAxNi4xNiAzLjAwOCA0LjggMi4wMTYgOS4xNTIgNC45OTIgMTIuODY0IDguOTkydi00Ny42MTZoMzguNDk2di0wLjA5NnogbS0zOC4yNzIgODcuNDI0YzAtNy43NzYtMS42OTYtMTMuNjMyLTQuOTYtMTcuNDcycy03LjQ1Ni01Ljc2LTEyLjYwOC01Ljc2YTEzLjgyNCAxMy44MjQgMCAwIDAtMTEuMTM2IDUuNTM2Yy0zLjA0IDMuNjQ4LTQuNTQ0IDkuOTItNC41NDQgMTguNTYgMCA4LjEyOCAxLjUzNiAxNC4wOCA0LjY3MiAxNy44NTZhMTQuMjQgMTQuMjQgMCAwIDAgMTEuNDU2IDUuNjk2YzQuODMyIDAgOC44OTYtMS45NTIgMTIuMTkyLTUuNzZzNC45MjgtMTAuMDggNC45MjgtMTguNjU2ek02MjYuMjQgNTk2LjhoMzguMTEydjI2LjAxNkg2MjYuMjR2LTI2LjAxNnogbTAgMzcuOTJoMzguMTEydjk5LjUySDYyNi4yNHYtOTkuNTJ6TTY3Ny40MDggNzA2LjYyNGwzNy45Mi0zLjU1MmExOC45NzYgMTguOTc2IDAgMCAwIDYuNTYgOS42OTYgMTkuMzkyIDE5LjM5MiAwIDAgMCAxMS4yNjQgMi45MTJjNS4xMiAwIDkuMDU2LTEuMDg4IDExLjkwNC0zLjMyOGE3LjQ1NiA3LjQ1NiAwIDAgMCAzLjI5Ni02LjA4YzAtMi43NTItMS40NC00LjgzMi00LjMyLTYuMzM2LTIuMDQ4LTEuMDU2LTcuNDg4LTIuMzY4LTE2LjQ0OC0zLjkzNi0xMy4yMTYtMi4zMDQtMjIuNDMyLTQuNDgtMjcuNTg0LTYuNDMycy05LjUwNC01LjI4LTEzLjAyNC05Ljk4NGEyNi4yMDggMjYuMjA4IDAgMCAxLTUuMzEyLTE2YzAtNi41NiAxLjk1Mi0xMi4xOTIgNS43Ni0xNi45NnM5LjA1Ni04LjI4OCAxNS43NDQtMTAuNjI0IDE1LjYxNi0zLjUyIDI2Ljg4LTMuNTJjMTEuODcyIDAgMjAuNjcyIDAuODk2IDI2LjMwNCAyLjc1MiA1LjY5NiAxLjgyNCAxMC4zNjggNC42NCAxNC4xNDQgOC40NDhzNi45MTIgOC45MjggOS40MDggMTUuNDI0bC0zNi4xOTIgMy41NTJhMTIuNTQ0IDEyLjU0NCAwIDAgMC00LjY3Mi03LjA3MiAxOS4wNzIgMTkuMDcyIDAgMCAwLTEwLjg4LTMuMDA4Yy00LjMyIDAtNy40MjQgMC43NjgtOS40MDggMi4zMDQtMS45ODQgMS41NjgtMi45NDQgMy4zNi0yLjk0NCA1LjU2OCAwIDIuNDMyIDEuMjQ4IDQuMzIgMy43MTIgNS41NjggMi40OTYgMS4yNDggNy45MzYgMi4zMzYgMTYuMzUyIDMuMzI4IDEyLjY3MiAxLjQ0IDIyLjA4IDMuMzkyIDI4LjMyIDYuMDE2YTMxLjA0IDMxLjA0IDAgMCAxIDE0LjIwOCAxMC45NDQgMjYuODE2IDI2LjgxNiAwIDAgMSA0LjkyOCAxNS42MTYgMzAuNTkyIDMwLjU5MiAwIDAgMS01LjI0OCAxNi43NjhjLTMuNDI0IDUuNDQtOC44OTYgOS43OTItMTYuNDE2IDEyLjk2LTcuNDU2IDMuMjMyLTE3LjYzMiA0LjgtMzAuNTI4IDQuOC0xOC4xNzYgMC0zMS4xMzYtMi41Ni0zOC44NDgtNy43NDRzLTEyLjczNi0xMi41MTItMTQuODgtMjIuMDh6Ii8+PC9zdmc+;" parent="1" vertex="1">
          <mxGeometry x="3310.53" y="1700" width="250" height="250" as="geometry" />
        </mxCell>
        <mxCell id="hg0nlkvwgH0ZP0_xZrHD-161" value="" style="endArrow=classic;html=1;rounded=0;fontSize=49;fontColor=#000000;strokeWidth=7;" parent="1" edge="1">
          <mxGeometry width="50" height="50" relative="1" as="geometry">
            <mxPoint x="2801" y="1199" as="sourcePoint" />
            <mxPoint x="3342" y="1719" as="targetPoint" />
          </mxGeometry>
        </mxCell>
        <mxCell id="hg0nlkvwgH0ZP0_xZrHD-162" value="" style="endArrow=classic;html=1;rounded=0;fontSize=49;fontColor=#000000;strokeWidth=7;exitX=0;exitY=0.25;exitDx=0;exitDy=0;entryX=1;entryY=0.5;entryDx=0;entryDy=0;" parent="1" source="hg0nlkvwgH0ZP0_xZrHD-160" target="hg0nlkvwgH0ZP0_xZrHD-137" edge="1">
          <mxGeometry width="50" height="50" relative="1" as="geometry">
            <mxPoint x="3274.040000000001" y="1391" as="sourcePoint" />
            <mxPoint x="2794.040000000001" y="1823" as="targetPoint" />
          </mxGeometry>
        </mxCell>
        <mxCell id="hg0nlkvwgH0ZP0_xZrHD-163" value="&lt;span style=&quot;color: rgb(0, 0, 0); font-family: Helvetica; font-size: 30px; font-style: normal; font-variant-ligatures: normal; font-variant-caps: normal; font-weight: 400; letter-spacing: normal; orphans: 2; text-indent: 0px; text-transform: none; widows: 2; word-spacing: 0px; -webkit-text-stroke-width: 0px; background-color: rgb(255, 255, 255); text-decoration-style: initial; text-decoration-color: initial; float: none; display: inline !important;&quot;&gt;1. 根据uin拉取roomid；&lt;/span&gt;&lt;br style=&quot;color: rgb(0, 0, 0); font-family: Helvetica; font-size: 30px; font-style: normal; font-variant-ligatures: normal; font-variant-caps: normal; font-weight: 400; letter-spacing: normal; orphans: 2; text-indent: 0px; text-transform: none; widows: 2; word-spacing: 0px; -webkit-text-stroke-width: 0px; background-color: rgb(255, 255, 255); text-decoration-style: initial; text-decoration-color: initial;&quot;&gt;&lt;span style=&quot;color: rgb(0, 0, 0); font-family: Helvetica; font-size: 30px; font-style: normal; font-variant-ligatures: normal; font-variant-caps: normal; font-weight: 400; letter-spacing: normal; orphans: 2; text-indent: 0px; text-transform: none; widows: 2; word-spacing: 0px; -webkit-text-stroke-width: 0px; background-color: rgb(255, 255, 255); text-decoration-style: initial; text-decoration-color: initial; float: none; display: inline !important;&quot;&gt;2. 根据roomid(双人)查询redis的SyncRoomInfoBody&lt;/span&gt;" style="text;whiteSpace=wrap;html=1;fontSize=46;fontColor=#000000;align=center;" parent="1" vertex="1">
          <mxGeometry x="2561" y="1609" width="439" height="134" as="geometry" />
        </mxCell>
        <mxCell id="hg0nlkvwgH0ZP0_xZrHD-164" value="&lt;span style=&quot;font-size: 49px;&quot;&gt;room_state_read()&lt;/span&gt;" style="text;html=1;strokeColor=none;fillColor=none;align=center;verticalAlign=middle;whiteSpace=wrap;rounded=0;labelBackgroundColor=none;fontSize=22;fontColor=#000000;" parent="1" vertex="1">
          <mxGeometry x="3281" y="362" width="432.04" height="95" as="geometry" />
        </mxCell>
        <mxCell id="hg0nlkvwgH0ZP0_xZrHD-165" value="&lt;font style=&quot;font-size: 46px;&quot;&gt;⑥&lt;/font&gt;" style="text;html=1;strokeColor=none;fillColor=none;align=center;verticalAlign=middle;whiteSpace=wrap;rounded=0;dashed=1;labelBackgroundColor=none;fontSize=30;fontColor=#000000;" parent="1" vertex="1">
          <mxGeometry x="3272.53" y="1375" width="60" height="77" as="geometry" />
        </mxCell>
        <mxCell id="hg0nlkvwgH0ZP0_xZrHD-166" value="&lt;span style=&quot;font-size: 30px;&quot;&gt;返回双人房间信息&lt;/span&gt;" style="text;whiteSpace=wrap;html=1;fontSize=46;fontColor=#000000;align=center;" parent="1" vertex="1">
          <mxGeometry x="3156.53" y="1444" width="307.47" height="75" as="geometry" />
        </mxCell>
        <mxCell id="hg0nlkvwgH0ZP0_xZrHD-167" value="" style="shape=image;verticalLabelPosition=bottom;labelBackgroundColor=default;verticalAlign=top;aspect=fixed;imageAspect=0;image=data:image/svg+xml,PHN2ZyB4bWxuczp4bGluaz0iaHR0cDovL3d3dy53My5vcmcvMTk5OS94bGluayIgeG1sbnM9Imh0dHA6Ly93d3cudzMub3JnLzIwMDAvc3ZnIiBoZWlnaHQ9IjIwMCIgd2lkdGg9IjIwMCIgdmVyc2lvbj0iMS4xIiB2aWV3Qm94PSIwIDAgMTAyNCAxMDI0IiBjbGFzcz0iaWNvbiI+PGRlZnM+PHN0eWxlIHR5cGU9InRleHQvY3NzIj5AZm9udC1mYWNlIHsgZm9udC1mYW1pbHk6IGZlZWRiYWNrLWljb25mb250OyBzcmM6IHVybCgiLy9hdC5hbGljZG4uY29tL3QvZm9udF8xMDMxMTU4X3U2OXc4eWh4ZHUud29mZjI/dD0xNjMwMDMzNzU5OTQ0IikgZm9ybWF0KCJ3b2ZmMiIpLCB1cmwoIi8vYXQuYWxpY2RuLmNvbS90L2ZvbnRfMTAzMTE1OF91Njl3OHloeGR1LndvZmY/dD0xNjMwMDMzNzU5OTQ0IikgZm9ybWF0KCJ3b2ZmIiksIHVybCgiLy9hdC5hbGljZG4uY29tL3QvZm9udF8xMDMxMTU4X3U2OXc4eWh4ZHUudHRmP3Q9MTYzMDAzMzc1OTk0NCIpIGZvcm1hdCgidHJ1ZXR5cGUiKTsgfSYjeGE7PC9zdHlsZT48L2RlZnM+PHBhdGggZD0iTTk2MCA0Mi42NjY2NjdINjRjLTEyLjggMC0yMS4zMzMzMzMgOC41MzMzMzMtMjEuMzMzMzMzIDIxLjMzMzMzM3Y4OTZjMCAxMi44IDguNTMzMzMzIDIxLjMzMzMzMyAyMS4zMzMzMzMgMjEuMzMzMzMzaDg5NmMxMi44IDAgMjEuMzMzMzMzLTguNTMzMzMzIDIxLjMzMzMzMy0yMS4zMzMzMzNWNjRjMC0xMi44LTguNTMzMzMzLTIxLjMzMzMzMy0yMS4zMzMzMzMtMjEuMzMzMzMzeiBtLTIxLjMzMzMzMyA4OTZIODUuMzMzMzMzVjY4Mi42NjY2NjdoODUzLjMzMzMzNHYyNTZ6IG0wLTI5OC42NjY2NjdIODUuMzMzMzMzVjM4NGg4NTMuMzMzMzM0djI1NnogbTAtMjk4LjY2NjY2N0g4NS4zMzMzMzNWODUuMzMzMzMzaDg1My4zMzMzMzR2MjU2ek0yOTguNjY2NjY3IDc2OGgtNDIuNjY2NjY3djg1LjMzMzMzM2g0Mi42NjY2Njd2LTg1LjMzMzMzM3ogbS04NS4zMzMzMzQgMEgxNzAuNjY2NjY3djg1LjMzMzMzM2g0Mi42NjY2NjZ2LTg1LjMzMzMzM3ogbTY2MS4zMzMzMzQgMjEuMzMzMzMzaC0xNzAuNjY2NjY3djQyLjY2NjY2N2gxNzAuNjY2NjY3di00Mi42NjY2Njd6TTI5OC42NjY2NjcgNDY5LjMzMzMzM2gtNDIuNjY2NjY3djg1LjMzMzMzNGg0Mi42NjY2Njd2LTg1LjMzMzMzNHogbS04NS4zMzMzMzQgMEgxNzAuNjY2NjY3djg1LjMzMzMzNGg0Mi42NjY2NjZ2LTg1LjMzMzMzNHogbTY2MS4zMzMzMzQgMjEuMzMzMzM0aC0xNzAuNjY2NjY3djQyLjY2NjY2NmgxNzAuNjY2NjY3di00Mi42NjY2NjZ6TTI5OC42NjY2NjcgMTcwLjY2NjY2N2gtNDIuNjY2NjY3djg1LjMzMzMzM2g0Mi42NjY2NjdWMTcwLjY2NjY2N3ogbS04NS4zMzMzMzQgMEgxNzAuNjY2NjY3djg1LjMzMzMzM2g0Mi42NjY2NjZWMTcwLjY2NjY2N3ogbTY2MS4zMzMzMzQgMjEuMzMzMzMzaC0xNzAuNjY2NjY3djQyLjY2NjY2N2gxNzAuNjY2NjY3VjE5MnoiLz48L3N2Zz4=;" parent="1" vertex="1">
          <mxGeometry x="1723" y="839" width="287" height="287" as="geometry" />
        </mxCell>
        <mxCell id="hg0nlkvwgH0ZP0_xZrHD-168" value="&lt;font style=&quot;font-size: 49px;&quot;&gt;分发器&lt;/font&gt;" style="text;html=1;strokeColor=none;fillColor=none;align=center;verticalAlign=middle;whiteSpace=wrap;rounded=0;labelBackgroundColor=none;fontSize=22;fontColor=#CC0000;fontStyle=1" parent="1" vertex="1">
          <mxGeometry x="1650.4800000000002" y="1150" width="432.04" height="95" as="geometry" />
        </mxCell>
        <mxCell id="hg0nlkvwgH0ZP0_xZrHD-169" value="" style="shape=image;verticalLabelPosition=bottom;labelBackgroundColor=default;verticalAlign=top;aspect=fixed;imageAspect=0;image=data:image/svg+xml,PHN2ZyB4bWxuczp4bGluaz0iaHR0cDovL3d3dy53My5vcmcvMTk5OS94bGluayIgeG1sbnM9Imh0dHA6Ly93d3cudzMub3JnLzIwMDAvc3ZnIiBoZWlnaHQ9IjIwMCIgd2lkdGg9IjQ5MC44MjAzMTI1IiB2ZXJzaW9uPSIxLjEiIHZpZXdCb3g9IjAgMCAyNTEzIDEwMjQiIGNsYXNzPSJpY29uIj48ZGVmcz48c3R5bGUgdHlwZT0idGV4dC9jc3MiPkBmb250LWZhY2UgeyBmb250LWZhbWlseTogZmVlZGJhY2staWNvbmZvbnQ7IHNyYzogdXJsKCIvL2F0LmFsaWNkbi5jb20vdC9mb250XzEwMzExNThfdTY5dzh5aHhkdS53b2ZmMj90PTE2MzAwMzM3NTk5NDQiKSBmb3JtYXQoIndvZmYyIiksIHVybCgiLy9hdC5hbGljZG4uY29tL3QvZm9udF8xMDMxMTU4X3U2OXc4eWh4ZHUud29mZj90PTE2MzAwMzM3NTk5NDQiKSBmb3JtYXQoIndvZmYiKSwgdXJsKCIvL2F0LmFsaWNkbi5jb20vdC9mb250XzEwMzExNThfdTY5dzh5aHhkdS50dGY/dD0xNjMwMDMzNzU5OTQ0IikgZm9ybWF0KCJ0cnVldHlwZSIpOyB9JiN4YTs8L3N0eWxlPjwvZGVmcz48cGF0aCBmaWxsPSIjNjY2NjY2IiBkPSJNNjk2LjQxMzUxNiA0NTUuMTExMTExdjM5OS4wMDE1MjJIMjE5LjQ4MjAwOVYxNzEuNDQ1OTY3aDQ3Ni45MzE1MDd2MTA0LjQyNjE3OWgzNC4yODkxOTN2LTE5MC4xNDkxNjNjMC00Ni43NTc5OTEtMzguOTY0OTkyLTg1LjcyMjk4My04NS43MjI5ODMtODUuNzIyOTgzSDI3MC45MTU3OTljLTQ2Ljc1Nzk5MSAwLTg1LjcyMjk4MyAzOC45NjQ5OTItODUuNzIyOTgzIDg1LjcyMjk4M1Y5MzguMjc3MDE3YzAgNDYuNzU3OTkxIDM4Ljk2NDk5MiA4NS43MjI5ODMgODUuNzIyOTgzIDg1LjcyMjk4M2gzNzUuNjIyNTI3YzQ2Ljc1Nzk5MSAwIDg1LjcyMjk4My0zOC45NjQ5OTIgODUuNzIyOTgzLTg1LjcyMjk4M1Y0NTUuMTExMTExaC0zNS44NDc3OTN6TTQwNi41MTM5NzMgNjguNTc4Mzg3aDEwMi44Njc1OGM5LjM1MTU5OCAwIDE3LjE0NDU5NyA3Ljc5Mjk5OCAxNy4xNDQ1OTYgMTcuMTQ0NTk2IDAgOS4zNTE1OTgtNy43OTI5OTggMTcuMTQ0NTk3LTE3LjE0NDU5NiAxNy4xNDQ1OTdINDA2LjUxMzk3M2MtOS4zNTE1OTggMC0xNy4xNDQ1OTctNy43OTI5OTgtMTcuMTQ0NTk3LTE3LjE0NDU5NyAwLTkuMzUxNTk4IDcuNzkyOTk4LTE3LjE0NDU5NyAxNy4xNDQ1OTctMTcuMTQ0NTk2eiBtNTEuNDMzNzkgOTIxLjEzMjQyQzQyOS44OTI5NjggOTg5LjcxMDgwNyA0MDYuNTEzOTczIDk2Ny44OTA0MTEgNDA2LjUxMzk3MyA5MzguMjc3MDE3YzAtMjguMDU0Nzk1IDIzLjM3ODk5NS01MS40MzM3OSA1MS40MzM3OS01MS40MzM3OSAyOC4wNTQ3OTUgMCA1MS40MzM3OSAyMy4zNzg5OTUgNTEuNDMzNzkgNTEuNDMzNzkgMCAyOS42MTMzOTQtMjMuMzc4OTk1IDUxLjQzMzc5LTUxLjQzMzc5IDUxLjQzMzc5eiIvPjxwYXRoIGZpbGw9IiNGRkEyMDAiIGQ9Ik05MDMuNzA3Mjc1IDIzNS4zNDg1NTRoLTI5Ni4xMzM5NDJjLTMxLjE3MTk5NCAwLTQ2Ljc1Nzk5MSAxNS41ODU5OTctNDYuNzU3OTkxIDQ2Ljc1Nzk5MXYxODcuMDMxOTYzYzAgMzEuMTcxOTk0IDE0LjAyNzM5NyA0Ni43NTc5OTEgNDUuMTk5MzkyIDQ2Ljc1Nzk5MWg0NS4xOTkzOTFsLTYuMjM0Mzk5IDQ4LjMxNjU5MWMwIDYuMjM0Mzk5IDMuMTE3MTk5IDEwLjkxMDE5OCA3Ljc5Mjk5OSAxNC4wMjczOTcgMS41NTg2IDEuNTU4NiA0LjY3NTc5OSAxLjU1ODYgNy43OTI5OTggMS41NTg2czYuMjM0Mzk5LTEuNTU4NiA5LjM1MTU5OC0zLjExNzJsOTAuMzk4NzgzLTYwLjc4NTM4OEg5MDUuMjY1ODc1YzMxLjE3MTk5NCAwIDQ1LjE5OTM5MS0xNC4wMjczOTcgNDUuMTk5MzkxLTQ2Ljc1Nzk5MXYtMTg3LjAzMTk2M2MwLTMxLjE3MTk5NC0xNS41ODU5OTctNDYuNzU3OTkxLTQ2Ljc1Nzk5MS00Ni43NTc5OTFNNjY1LjI0MTUyMiAzOTcuNDQyOTIyYy0xMi40Njg3OTggMC0yMy4zNzg5OTUtMTAuOTEwMTk4LTIzLjM3ODk5NS0yMS44MjAzOTUgMC0xMi40Njg3OTggMTAuOTEwMTk4LTIzLjM3ODk5NSAyMy4zNzg5OTUtMjMuMzc4OTk2czIzLjM3ODk5NSAxMC45MTAxOTggMjMuMzc4OTk2IDIzLjM3ODk5Ni0xMC45MTAxOTggMjEuODIwMzk2LTIzLjM3ODk5NiAyMS44MjAzOTVtOTAuMzk4NzgyIDBjLTEyLjQ2ODc5OCAwLTIzLjM3ODk5NS0xMC45MTAxOTgtMjMuMzc4OTk1LTIxLjgyMDM5NSAwLTEyLjQ2ODc5OCAxMC45MTAxOTgtMjMuMzc4OTk1IDIzLjM3ODk5NS0yMy4zNzg5OTZzMjMuMzc4OTk1IDEwLjkxMDE5OCAyMy4zNzg5OTYgMjMuMzc4OTk2LTEwLjkxMDE5OCAyMS44MjAzOTYtMjMuMzc4OTk2IDIxLjgyMDM5NW05MC4zOTg3ODMgMGMtMTIuNDY4Nzk4IDAtMjMuMzc4OTk1LTEwLjkxMDE5OC0yMy4zNzg5OTYtMjEuODIwMzk1IDAtMTIuNDY4Nzk4IDEwLjkxMDE5OC0yMy4zNzg5OTUgMjMuMzc4OTk2LTIzLjM3ODk5NnMyMy4zNzg5OTUgMTAuOTEwMTk4IDIzLjM3ODk5NSAyMy4zNzg5OTYtMTAuOTEwMTk4IDIxLjgyMDM5Ni0yMy4zNzg5OTUgMjEuODIwMzk1bTAgMHoiLz48L3N2Zz4=;" parent="1" vertex="1">
          <mxGeometry x="4098.53" y="868.4500000000003" width="545.28" height="222.11" as="geometry" />
        </mxCell>
        <mxCell id="hg0nlkvwgH0ZP0_xZrHD-170" value="" style="shape=image;verticalLabelPosition=bottom;labelBackgroundColor=default;verticalAlign=top;aspect=fixed;imageAspect=0;image=data:image/svg+xml,PHN2ZyB4bWxuczp4bGluaz0iaHR0cDovL3d3dy53My5vcmcvMTk5OS94bGluayIgeG1sbnM9Imh0dHA6Ly93d3cudzMub3JnLzIwMDAvc3ZnIiBoZWlnaHQ9IjIwMCIgd2lkdGg9IjQ5MC44MjAzMTI1IiB2ZXJzaW9uPSIxLjEiIHZpZXdCb3g9IjAgMCAyNTEzIDEwMjQiIGNsYXNzPSJpY29uIj48ZGVmcz48c3R5bGUgdHlwZT0idGV4dC9jc3MiPkBmb250LWZhY2UgeyBmb250LWZhbWlseTogZmVlZGJhY2staWNvbmZvbnQ7IHNyYzogdXJsKCIvL2F0LmFsaWNkbi5jb20vdC9mb250XzEwMzExNThfdTY5dzh5aHhkdS53b2ZmMj90PTE2MzAwMzM3NTk5NDQiKSBmb3JtYXQoIndvZmYyIiksIHVybCgiLy9hdC5hbGljZG4uY29tL3QvZm9udF8xMDMxMTU4X3U2OXc4eWh4ZHUud29mZj90PTE2MzAwMzM3NTk5NDQiKSBmb3JtYXQoIndvZmYiKSwgdXJsKCIvL2F0LmFsaWNkbi5jb20vdC9mb250XzEwMzExNThfdTY5dzh5aHhkdS50dGY/dD0xNjMwMDMzNzU5OTQ0IikgZm9ybWF0KCJ0cnVldHlwZSIpOyB9JiN4YTs8L3N0eWxlPjwvZGVmcz48cGF0aCBmaWxsPSIjNjY2NjY2IiBkPSJNNjk2LjQxMzUxNiA0NTUuMTExMTExdjM5OS4wMDE1MjJIMjE5LjQ4MjAwOVYxNzEuNDQ1OTY3aDQ3Ni45MzE1MDd2MTA0LjQyNjE3OWgzNC4yODkxOTN2LTE5MC4xNDkxNjNjMC00Ni43NTc5OTEtMzguOTY0OTkyLTg1LjcyMjk4My04NS43MjI5ODMtODUuNzIyOTgzSDI3MC45MTU3OTljLTQ2Ljc1Nzk5MSAwLTg1LjcyMjk4MyAzOC45NjQ5OTItODUuNzIyOTgzIDg1LjcyMjk4M1Y5MzguMjc3MDE3YzAgNDYuNzU3OTkxIDM4Ljk2NDk5MiA4NS43MjI5ODMgODUuNzIyOTgzIDg1LjcyMjk4M2gzNzUuNjIyNTI3YzQ2Ljc1Nzk5MSAwIDg1LjcyMjk4My0zOC45NjQ5OTIgODUuNzIyOTgzLTg1LjcyMjk4M1Y0NTUuMTExMTExaC0zNS44NDc3OTN6TTQwNi41MTM5NzMgNjguNTc4Mzg3aDEwMi44Njc1OGM5LjM1MTU5OCAwIDE3LjE0NDU5NyA3Ljc5Mjk5OCAxNy4xNDQ1OTYgMTcuMTQ0NTk2IDAgOS4zNTE1OTgtNy43OTI5OTggMTcuMTQ0NTk3LTE3LjE0NDU5NiAxNy4xNDQ1OTdINDA2LjUxMzk3M2MtOS4zNTE1OTggMC0xNy4xNDQ1OTctNy43OTI5OTgtMTcuMTQ0NTk3LTE3LjE0NDU5NyAwLTkuMzUxNTk4IDcuNzkyOTk4LTE3LjE0NDU5NyAxNy4xNDQ1OTctMTcuMTQ0NTk2eiBtNTEuNDMzNzkgOTIxLjEzMjQyQzQyOS44OTI5NjggOTg5LjcxMDgwNyA0MDYuNTEzOTczIDk2Ny44OTA0MTEgNDA2LjUxMzk3MyA5MzguMjc3MDE3YzAtMjguMDU0Nzk1IDIzLjM3ODk5NS01MS40MzM3OSA1MS40MzM3OS01MS40MzM3OSAyOC4wNTQ3OTUgMCA1MS40MzM3OSAyMy4zNzg5OTUgNTEuNDMzNzkgNTEuNDMzNzkgMCAyOS42MTMzOTQtMjMuMzc4OTk1IDUxLjQzMzc5LTUxLjQzMzc5IDUxLjQzMzc5eiIvPjxwYXRoIGZpbGw9IiNGRkEyMDAiIGQ9Ik05MDMuNzA3Mjc1IDIzNS4zNDg1NTRoLTI5Ni4xMzM5NDJjLTMxLjE3MTk5NCAwLTQ2Ljc1Nzk5MSAxNS41ODU5OTctNDYuNzU3OTkxIDQ2Ljc1Nzk5MXYxODcuMDMxOTYzYzAgMzEuMTcxOTk0IDE0LjAyNzM5NyA0Ni43NTc5OTEgNDUuMTk5MzkyIDQ2Ljc1Nzk5MWg0NS4xOTkzOTFsLTYuMjM0Mzk5IDQ4LjMxNjU5MWMwIDYuMjM0Mzk5IDMuMTE3MTk5IDEwLjkxMDE5OCA3Ljc5Mjk5OSAxNC4wMjczOTcgMS41NTg2IDEuNTU4NiA0LjY3NTc5OSAxLjU1ODYgNy43OTI5OTggMS41NTg2czYuMjM0Mzk5LTEuNTU4NiA5LjM1MTU5OC0zLjExNzJsOTAuMzk4NzgzLTYwLjc4NTM4OEg5MDUuMjY1ODc1YzMxLjE3MTk5NCAwIDQ1LjE5OTM5MS0xNC4wMjczOTcgNDUuMTk5MzkxLTQ2Ljc1Nzk5MXYtMTg3LjAzMTk2M2MwLTMxLjE3MTk5NC0xNS41ODU5OTctNDYuNzU3OTkxLTQ2Ljc1Nzk5MS00Ni43NTc5OTFNNjY1LjI0MTUyMiAzOTcuNDQyOTIyYy0xMi40Njg3OTggMC0yMy4zNzg5OTUtMTAuOTEwMTk4LTIzLjM3ODk5NS0yMS44MjAzOTUgMC0xMi40Njg3OTggMTAuOTEwMTk4LTIzLjM3ODk5NSAyMy4zNzg5OTUtMjMuMzc4OTk2czIzLjM3ODk5NSAxMC45MTAxOTggMjMuMzc4OTk2IDIzLjM3ODk5Ni0xMC45MTAxOTggMjEuODIwMzk2LTIzLjM3ODk5NiAyMS44MjAzOTVtOTAuMzk4NzgyIDBjLTEyLjQ2ODc5OCAwLTIzLjM3ODk5NS0xMC45MTAxOTgtMjMuMzc4OTk1LTIxLjgyMDM5NSAwLTEyLjQ2ODc5OCAxMC45MTAxOTgtMjMuMzc4OTk1IDIzLjM3ODk5NS0yMy4zNzg5OTZzMjMuMzc4OTk1IDEwLjkxMDE5OCAyMy4zNzg5OTYgMjMuMzc4OTk2LTEwLjkxMDE5OCAyMS44MjAzOTYtMjMuMzc4OTk2IDIxLjgyMDM5NW05MC4zOTg3ODMgMGMtMTIuNDY4Nzk4IDAtMjMuMzc4OTk1LTEwLjkxMDE5OC0yMy4zNzg5OTYtMjEuODIwMzk1IDAtMTIuNDY4Nzk4IDEwLjkxMDE5OC0yMy4zNzg5OTUgMjMuMzc4OTk2LTIzLjM3ODk5NnMyMy4zNzg5OTUgMTAuOTEwMTk4IDIzLjM3ODk5NSAyMy4zNzg5OTYtMTAuOTEwMTk4IDIxLjgyMDM5Ni0yMy4zNzg5OTUgMjEuODIwMzk1bTAgMHoiLz48L3N2Zz4=;" parent="1" vertex="1">
          <mxGeometry x="4117.53" y="2887" width="545.28" height="222.11" as="geometry" />
        </mxCell>
        <mxCell id="hg0nlkvwgH0ZP0_xZrHD-171" value="&lt;font style=&quot;font-size: 46px;&quot;&gt;③&lt;/font&gt;" style="text;html=1;strokeColor=none;fillColor=none;align=center;verticalAlign=middle;whiteSpace=wrap;rounded=0;dashed=1;labelBackgroundColor=none;fontSize=30;fontColor=#000000;" parent="1" vertex="1">
          <mxGeometry x="2291.5299999999997" y="3582" width="60" height="72" as="geometry" />
        </mxCell>
        <mxCell id="hg0nlkvwgH0ZP0_xZrHD-173" style="edgeStyle=orthogonalEdgeStyle;rounded=0;orthogonalLoop=1;jettySize=auto;html=1;fontSize=30;strokeWidth=7;" parent="1" target="hg0nlkvwgH0ZP0_xZrHD-21" edge="1">
          <mxGeometry relative="1" as="geometry">
            <mxPoint x="2961.47" y="3878" as="sourcePoint" />
          </mxGeometry>
        </mxCell>
        <mxCell id="hg0nlkvwgH0ZP0_xZrHD-226" style="edgeStyle=orthogonalEdgeStyle;rounded=0;orthogonalLoop=1;jettySize=auto;html=1;fontSize=36;strokeWidth=7;" parent="1" source="hg0nlkvwgH0ZP0_xZrHD-172" target="hg0nlkvwgH0ZP0_xZrHD-225" edge="1">
          <mxGeometry relative="1" as="geometry" />
        </mxCell>
        <mxCell id="hg0nlkvwgH0ZP0_xZrHD-172" value="&lt;font style=&quot;font-size: 54px;&quot;&gt;流控&lt;/font&gt;" style="rounded=0;whiteSpace=wrap;html=1;fontSize=40;strokeWidth=4;" parent="1" vertex="1">
          <mxGeometry x="3884.5299999999997" y="3831.5" width="256.42" height="94" as="geometry" />
        </mxCell>
        <mxCell id="hg0nlkvwgH0ZP0_xZrHD-179" value="&lt;font style=&quot;font-size: 38px;&quot;&gt;OIDB&lt;/font&gt;" style="rounded=0;whiteSpace=wrap;html=1;fontSize=30;strokeWidth=4;" parent="1" vertex="1">
          <mxGeometry x="1346" y="4767" width="273" height="95" as="geometry" />
        </mxCell>
        <mxCell id="hg0nlkvwgH0ZP0_xZrHD-190" style="edgeStyle=orthogonalEdgeStyle;rounded=0;orthogonalLoop=1;jettySize=auto;html=1;entryX=1;entryY=0.5;entryDx=0;entryDy=0;fontSize=38;strokeWidth=7;" parent="1" source="hg0nlkvwgH0ZP0_xZrHD-180" target="hg0nlkvwgH0ZP0_xZrHD-179" edge="1">
          <mxGeometry relative="1" as="geometry" />
        </mxCell>
        <mxCell id="hg0nlkvwgH0ZP0_xZrHD-205" value="1. 拉群列表" style="edgeLabel;html=1;align=center;verticalAlign=middle;resizable=0;points=[];fontSize=38;" parent="hg0nlkvwgH0ZP0_xZrHD-190" vertex="1" connectable="0">
          <mxGeometry x="0.201" y="-10" relative="1" as="geometry">
            <mxPoint x="47" y="4" as="offset" />
          </mxGeometry>
        </mxCell>
        <mxCell id="hg0nlkvwgH0ZP0_xZrHD-180" value="&lt;font style=&quot;font-size: 38px;&quot;&gt;Push Server&lt;/font&gt;" style="rounded=0;whiteSpace=wrap;html=1;fontSize=30;strokeWidth=4;" parent="1" vertex="1">
          <mxGeometry x="2010" y="4767" width="273" height="95" as="geometry" />
        </mxCell>
        <mxCell id="hg0nlkvwgH0ZP0_xZrHD-184" value="" style="shape=actor;whiteSpace=wrap;html=1;fontSize=38;strokeWidth=4;" parent="1" vertex="1">
          <mxGeometry x="1457" y="4154" width="63" height="60" as="geometry" />
        </mxCell>
        <mxCell id="hg0nlkvwgH0ZP0_xZrHD-187" style="edgeStyle=orthogonalEdgeStyle;rounded=0;orthogonalLoop=1;jettySize=auto;html=1;entryX=0.5;entryY=0;entryDx=0;entryDy=0;fontSize=38;strokeWidth=7;" parent="1" source="hg0nlkvwgH0ZP0_xZrHD-184" target="hg0nlkvwgH0ZP0_xZrHD-186" edge="1">
          <mxGeometry relative="1" as="geometry" />
        </mxCell>
        <mxCell id="hg0nlkvwgH0ZP0_xZrHD-185" value="&lt;font style=&quot;font-size: 30px;&quot; color=&quot;#000000&quot;&gt;用户上线&lt;br&gt;&lt;/font&gt;" style="text;html=1;strokeColor=none;fillColor=none;align=center;verticalAlign=bottom;whiteSpace=wrap;rounded=0;dashed=1;labelBackgroundColor=none;fontSize=49;fontColor=#CC0000;spacing=0;" parent="1" vertex="1">
          <mxGeometry x="1468" y="4285" width="218" height="50" as="geometry" />
        </mxCell>
        <mxCell id="hg0nlkvwgH0ZP0_xZrHD-188" style="edgeStyle=orthogonalEdgeStyle;rounded=0;orthogonalLoop=1;jettySize=auto;html=1;entryX=0.5;entryY=0;entryDx=0;entryDy=0;fontSize=38;strokeWidth=7;" parent="1" source="hg0nlkvwgH0ZP0_xZrHD-186" target="hg0nlkvwgH0ZP0_xZrHD-180" edge="1">
          <mxGeometry relative="1" as="geometry" />
        </mxCell>
        <mxCell id="hg0nlkvwgH0ZP0_xZrHD-191" value="读取上线记录" style="edgeLabel;html=1;align=center;verticalAlign=middle;resizable=0;points=[];fontSize=38;" parent="hg0nlkvwgH0ZP0_xZrHD-188" vertex="1" connectable="0">
          <mxGeometry x="-0.0046" y="1" relative="1" as="geometry">
            <mxPoint x="-79" y="-3" as="offset" />
          </mxGeometry>
        </mxCell>
        <mxCell id="hg0nlkvwgH0ZP0_xZrHD-186" value="&lt;font style=&quot;font-size: 38px;&quot;&gt;上线队列服务器&lt;/font&gt;" style="rounded=0;whiteSpace=wrap;html=1;fontSize=30;strokeWidth=4;" parent="1" vertex="1">
          <mxGeometry x="1352" y="4416" width="273" height="95" as="geometry" />
        </mxCell>
        <mxCell id="hg0nlkvwgH0ZP0_xZrHD-192" value="&lt;font style=&quot;font-size: 43px;&quot;&gt;Redis2&lt;/font&gt;" style="rounded=0;whiteSpace=wrap;html=1;fontSize=30;strokeWidth=4;" parent="1" vertex="1">
          <mxGeometry x="2649.07" y="5172" width="273" height="95" as="geometry" />
        </mxCell>
        <mxCell id="hg0nlkvwgH0ZP0_xZrHD-214" style="edgeStyle=orthogonalEdgeStyle;rounded=0;orthogonalLoop=1;jettySize=auto;html=1;fontSize=38;strokeWidth=7;" parent="1" source="hg0nlkvwgH0ZP0_xZrHD-193" target="hg0nlkvwgH0ZP0_xZrHD-213" edge="1">
          <mxGeometry relative="1" as="geometry" />
        </mxCell>
        <mxCell id="hg0nlkvwgH0ZP0_xZrHD-193" value="&lt;font style=&quot;font-size: 38px;&quot;&gt;多人流控&lt;/font&gt;" style="rounded=0;whiteSpace=wrap;html=1;fontSize=30;strokeWidth=4;" parent="1" vertex="1">
          <mxGeometry x="2965" y="4767" width="273" height="95" as="geometry" />
        </mxCell>
        <mxCell id="hg0nlkvwgH0ZP0_xZrHD-197" value="&lt;font style=&quot;font-size: 38px;&quot;&gt;Redis1&lt;/font&gt;" style="rounded=0;whiteSpace=wrap;html=1;fontSize=30;strokeWidth=4;" parent="1" vertex="1">
          <mxGeometry x="2785.53" y="4307" width="273" height="95" as="geometry" />
        </mxCell>
        <mxCell id="hg0nlkvwgH0ZP0_xZrHD-200" value="" style="endArrow=classic;startArrow=classic;html=1;rounded=0;fontSize=38;strokeWidth=7;exitX=0.5;exitY=1;exitDx=0;exitDy=0;" parent="1" source="hg0nlkvwgH0ZP0_xZrHD-180" edge="1">
          <mxGeometry width="50" height="50" relative="1" as="geometry">
            <mxPoint x="2247" y="5033" as="sourcePoint" />
            <mxPoint x="2636" y="5209" as="targetPoint" />
          </mxGeometry>
        </mxCell>
        <mxCell id="hg0nlkvwgH0ZP0_xZrHD-202" value="" style="endArrow=classic;startArrow=classic;html=1;rounded=0;fontSize=38;strokeWidth=7;entryX=0;entryY=0.5;entryDx=0;entryDy=0;exitX=0.5;exitY=0;exitDx=0;exitDy=0;" parent="1" source="hg0nlkvwgH0ZP0_xZrHD-180" target="hg0nlkvwgH0ZP0_xZrHD-197" edge="1">
          <mxGeometry width="50" height="50" relative="1" as="geometry">
            <mxPoint x="2321" y="4715" as="sourcePoint" />
            <mxPoint x="2371" y="4665" as="targetPoint" />
          </mxGeometry>
        </mxCell>
        <mxCell id="hg0nlkvwgH0ZP0_xZrHD-203" value="" style="endArrow=classic;startArrow=classic;html=1;rounded=0;fontSize=38;strokeWidth=7;exitX=1;exitY=0.5;exitDx=0;exitDy=0;entryX=0;entryY=0.5;entryDx=0;entryDy=0;" parent="1" source="hg0nlkvwgH0ZP0_xZrHD-180" target="hg0nlkvwgH0ZP0_xZrHD-193" edge="1">
          <mxGeometry width="50" height="50" relative="1" as="geometry">
            <mxPoint x="2346" y="4822" as="sourcePoint" />
            <mxPoint x="2396" y="4772" as="targetPoint" />
          </mxGeometry>
        </mxCell>
        <mxCell id="hg0nlkvwgH0ZP0_xZrHD-207" value="&lt;span style=&quot;&quot;&gt;2. 去策略Redis中查询房间ID和流控IP&lt;/span&gt;" style="text;html=1;strokeColor=none;fillColor=none;align=center;verticalAlign=middle;whiteSpace=wrap;rounded=0;fontSize=38;" parent="1" vertex="1">
          <mxGeometry x="2255" y="4387" width="360" height="124" as="geometry" />
        </mxCell>
        <mxCell id="hg0nlkvwgH0ZP0_xZrHD-208" value="&lt;span style=&quot;&quot;&gt;3. 查有音视频通话的房间信息&lt;/span&gt;" style="text;html=1;strokeColor=none;fillColor=none;align=center;verticalAlign=middle;whiteSpace=wrap;rounded=0;fontSize=38;" parent="1" vertex="1">
          <mxGeometry x="2476" y="4682" width="316" height="128" as="geometry" />
        </mxCell>
        <mxCell id="hg0nlkvwgH0ZP0_xZrHD-211" style="edgeStyle=orthogonalEdgeStyle;rounded=0;orthogonalLoop=1;jettySize=auto;html=1;fontSize=38;strokeWidth=7;" parent="1" source="hg0nlkvwgH0ZP0_xZrHD-210" target="hg0nlkvwgH0ZP0_xZrHD-197" edge="1">
          <mxGeometry relative="1" as="geometry" />
        </mxCell>
        <mxCell id="hg0nlkvwgH0ZP0_xZrHD-210" value="&lt;font style=&quot;font-size: 38px;&quot;&gt;调度服务&lt;/font&gt;" style="rounded=0;whiteSpace=wrap;html=1;fontSize=30;strokeWidth=4;" parent="1" vertex="1">
          <mxGeometry x="3440.04" y="4307" width="273" height="95" as="geometry" />
        </mxCell>
        <mxCell id="hg0nlkvwgH0ZP0_xZrHD-216" style="edgeStyle=orthogonalEdgeStyle;rounded=0;orthogonalLoop=1;jettySize=auto;html=1;fontSize=38;strokeWidth=7;entryX=1;entryY=0.5;entryDx=0;entryDy=0;" parent="1" source="hg0nlkvwgH0ZP0_xZrHD-213" target="hg0nlkvwgH0ZP0_xZrHD-192" edge="1">
          <mxGeometry relative="1" as="geometry">
            <mxPoint x="3295" y="5213" as="targetPoint" />
            <Array as="points">
              <mxPoint x="3568" y="5220" />
            </Array>
          </mxGeometry>
        </mxCell>
        <mxCell id="hg0nlkvwgH0ZP0_xZrHD-213" value="&lt;font style=&quot;font-size: 38px;&quot;&gt;跑马灯&lt;/font&gt;" style="rounded=0;whiteSpace=wrap;html=1;fontSize=30;strokeWidth=4;" parent="1" vertex="1">
          <mxGeometry x="3431.5699999999997" y="4767" width="273" height="95" as="geometry" />
        </mxCell>
        <mxCell id="hg0nlkvwgH0ZP0_xZrHD-218" value="&lt;span style=&quot;&quot;&gt;每次有开房/关房信息，写入房间状态信息Room_state_write()&lt;/span&gt;" style="text;html=1;strokeColor=none;fillColor=none;align=center;verticalAlign=middle;whiteSpace=wrap;rounded=0;fontSize=38;" parent="1" vertex="1">
          <mxGeometry x="3573.53" y="5036" width="398" height="128" as="geometry" />
        </mxCell>
        <mxCell id="hg0nlkvwgH0ZP0_xZrHD-220" value="&lt;span style=&quot;&quot;&gt;1-1. 判断群列表是否存在房间&lt;/span&gt;Room_state_read()" style="text;html=1;strokeColor=none;fillColor=none;align=center;verticalAlign=middle;whiteSpace=wrap;rounded=0;fontSize=38;" parent="1" vertex="1">
          <mxGeometry x="2333.07" y="4954" width="316" height="128" as="geometry" />
        </mxCell>
        <mxCell id="hg0nlkvwgH0ZP0_xZrHD-221" value="&lt;font style=&quot;font-size: 38px;&quot;&gt;MsgAgent/SharpSvr&lt;/font&gt;" style="rounded=0;whiteSpace=wrap;html=1;fontSize=30;strokeWidth=4;" parent="1" vertex="1">
          <mxGeometry x="1209" y="5201" width="491" height="95" as="geometry" />
        </mxCell>
        <mxCell id="hg0nlkvwgH0ZP0_xZrHD-222" value="" style="endArrow=classic;html=1;rounded=0;fontSize=43;strokeWidth=7;exitX=0;exitY=1;exitDx=0;exitDy=0;entryX=0.5;entryY=0;entryDx=0;entryDy=0;" parent="1" source="hg0nlkvwgH0ZP0_xZrHD-180" target="hg0nlkvwgH0ZP0_xZrHD-221" edge="1">
          <mxGeometry width="50" height="50" relative="1" as="geometry">
            <mxPoint x="2208" y="5320" as="sourcePoint" />
            <mxPoint x="2258" y="5270" as="targetPoint" />
          </mxGeometry>
        </mxCell>
        <mxCell id="hg0nlkvwgH0ZP0_xZrHD-223" value="&lt;font style=&quot;font-size: 36px;&quot;&gt;&lt;span style=&quot;&quot;&gt;4.&lt;/span&gt;组包、下发S2C消息&lt;br style=&quot;&quot;&gt;0X95(PC/手机)&lt;br&gt;0x91(手机并且带讨论组)&lt;/font&gt;" style="text;html=1;strokeColor=none;fillColor=none;align=center;verticalAlign=middle;whiteSpace=wrap;rounded=0;fontSize=38;" parent="1" vertex="1">
          <mxGeometry x="1686" y="5042" width="414" height="130" as="geometry" />
        </mxCell>
        <mxCell id="hg0nlkvwgH0ZP0_xZrHD-224" value="&lt;font style=&quot;font-size: 36px;&quot;&gt;room_info_write()&lt;/font&gt;" style="rounded=0;whiteSpace=wrap;html=1;fontSize=36;strokeWidth=4;" parent="1" vertex="1">
          <mxGeometry x="2785.53" y="3844" width="339" height="69" as="geometry" />
        </mxCell>
        <mxCell id="hg0nlkvwgH0ZP0_xZrHD-227" style="edgeStyle=orthogonalEdgeStyle;rounded=0;orthogonalLoop=1;jettySize=auto;html=1;entryX=1;entryY=0.5;entryDx=0;entryDy=0;fontSize=36;strokeWidth=7;" parent="1" source="hg0nlkvwgH0ZP0_xZrHD-225" target="hg0nlkvwgH0ZP0_xZrHD-224" edge="1">
          <mxGeometry relative="1" as="geometry" />
        </mxCell>
        <mxCell id="hg0nlkvwgH0ZP0_xZrHD-225" value="&lt;font style=&quot;font-size: 36px;&quot;&gt;跑马灯&lt;/font&gt;" style="rounded=0;whiteSpace=wrap;html=1;fontSize=36;strokeWidth=4;" parent="1" vertex="1">
          <mxGeometry x="3351.9999999999995" y="3844" width="339" height="69" as="geometry" />
        </mxCell>
        <mxCell id="hg0nlkvwgH0ZP0_xZrHD-229" style="edgeStyle=orthogonalEdgeStyle;rounded=0;orthogonalLoop=1;jettySize=auto;html=1;fontSize=36;strokeWidth=7;" parent="1" source="hg0nlkvwgH0ZP0_xZrHD-228" target="hg0nlkvwgH0ZP0_xZrHD-21" edge="1">
          <mxGeometry relative="1" as="geometry" />
        </mxCell>
        <mxCell id="hg0nlkvwgH0ZP0_xZrHD-228" value="&lt;font style=&quot;font-size: 36px;&quot;&gt;room_info_read()&lt;/font&gt;" style="rounded=0;whiteSpace=wrap;html=1;fontSize=36;strokeWidth=4;" parent="1" vertex="1">
          <mxGeometry x="2360.05" y="3450" width="339" height="69" as="geometry" />
        </mxCell>
        <mxCell id="hg0nlkvwgH0ZP0_xZrHD-231" value="&lt;font style=&quot;&quot; color=&quot;#000000&quot;&gt;&lt;span style=&quot;font-size: 30px;&quot;&gt;房间人员变动&lt;br&gt;（包含建房/退房）&lt;/span&gt;&lt;br&gt;&lt;/font&gt;" style="text;html=1;strokeColor=none;fillColor=none;align=center;verticalAlign=middle;whiteSpace=wrap;rounded=0;dashed=1;labelBackgroundColor=none;fontSize=49;fontColor=#CC0000;" parent="1" vertex="1">
          <mxGeometry x="3658" y="3713" width="252.21" height="125" as="geometry" />
        </mxCell>
        <mxCell id="zO9z0KWeAWTrWtClQLV5-1" value="&lt;font style=&quot;font-size: 38px;&quot;&gt;OIDB&lt;/font&gt;" style="rounded=0;whiteSpace=wrap;html=1;fontSize=30;strokeWidth=4;fillColor=#e1d5e7;strokeColor=#9673a6;" vertex="1" parent="1">
          <mxGeometry x="2657" y="5958" width="371" height="127" as="geometry" />
        </mxCell>
        <mxCell id="zO9z0KWeAWTrWtClQLV5-4" value="&lt;font style=&quot;font-size: 58px;&quot;&gt;Push Server&lt;/font&gt;" style="rounded=0;whiteSpace=wrap;html=1;fontSize=30;strokeWidth=4;fillColor=#990000;strokeColor=#A50040;fontColor=#ffffff;" vertex="1" parent="1">
          <mxGeometry x="1736.28" y="6606" width="460.72" height="221" as="geometry" />
        </mxCell>
        <mxCell id="zO9z0KWeAWTrWtClQLV5-5" value="" style="shape=actor;whiteSpace=wrap;html=1;fontSize=38;strokeWidth=4;" vertex="1" parent="1">
          <mxGeometry x="1906" y="5569" width="114" height="156" as="geometry" />
        </mxCell>
        <mxCell id="zO9z0KWeAWTrWtClQLV5-6" style="edgeStyle=orthogonalEdgeStyle;rounded=0;orthogonalLoop=1;jettySize=auto;html=1;entryX=0.5;entryY=0;entryDx=0;entryDy=0;fontSize=38;strokeWidth=7;" edge="1" parent="1" source="zO9z0KWeAWTrWtClQLV5-5" target="zO9z0KWeAWTrWtClQLV5-10">
          <mxGeometry relative="1" as="geometry" />
        </mxCell>
        <mxCell id="zO9z0KWeAWTrWtClQLV5-30" value="&lt;font style=&quot;font-size: 38px;&quot;&gt;用户上线&lt;/font&gt;" style="edgeLabel;html=1;align=center;verticalAlign=middle;resizable=0;points=[];fontSize=30;" vertex="1" connectable="0" parent="zO9z0KWeAWTrWtClQLV5-6">
          <mxGeometry x="-0.2789" relative="1" as="geometry">
            <mxPoint x="2" y="37" as="offset" />
          </mxGeometry>
        </mxCell>
        <mxCell id="zO9z0KWeAWTrWtClQLV5-7" value="&lt;font style=&quot;font-size: 30px;&quot; color=&quot;#000000&quot;&gt;&lt;br&gt;&lt;/font&gt;" style="text;html=1;strokeColor=none;fillColor=none;align=center;verticalAlign=bottom;whiteSpace=wrap;rounded=0;dashed=1;labelBackgroundColor=none;fontSize=49;fontColor=#CC0000;spacing=0;" vertex="1" parent="1">
          <mxGeometry x="1345.28" y="5841" width="218" height="50" as="geometry" />
        </mxCell>
        <mxCell id="zO9z0KWeAWTrWtClQLV5-10" value="&lt;font style=&quot;font-size: 38px;&quot;&gt;上线队列服务器&lt;/font&gt;" style="rounded=0;whiteSpace=wrap;html=1;fontSize=30;strokeWidth=4;fillColor=#e1d5e7;strokeColor=#9673a6;" vertex="1" parent="1">
          <mxGeometry x="1793.64" y="5951" width="346" height="141" as="geometry" />
        </mxCell>
        <mxCell id="zO9z0KWeAWTrWtClQLV5-11" value="&lt;font style=&quot;font-size: 43px;&quot;&gt;Redis2&lt;/font&gt;" style="rounded=0;whiteSpace=wrap;html=1;fontSize=30;strokeWidth=4;fillColor=#f8cecc;gradientColor=#ea6b66;strokeColor=#b85450;" vertex="1" parent="1">
          <mxGeometry x="2537" y="7404" width="355" height="95" as="geometry" />
        </mxCell>
        <mxCell id="zO9z0KWeAWTrWtClQLV5-12" style="edgeStyle=orthogonalEdgeStyle;rounded=0;orthogonalLoop=1;jettySize=auto;html=1;fontSize=38;strokeWidth=7;" edge="1" parent="1" source="zO9z0KWeAWTrWtClQLV5-13" target="zO9z0KWeAWTrWtClQLV5-23">
          <mxGeometry relative="1" as="geometry" />
        </mxCell>
        <mxCell id="zO9z0KWeAWTrWtClQLV5-13" value="&lt;font style=&quot;font-size: 38px;&quot;&gt;多人流控&lt;/font&gt;" style="rounded=0;whiteSpace=wrap;html=1;fontSize=30;strokeWidth=4;fillColor=#e1d5e7;strokeColor=#9673a6;" vertex="1" parent="1">
          <mxGeometry x="1113.9999999999998" y="7055" width="273" height="95" as="geometry" />
        </mxCell>
        <mxCell id="zO9z0KWeAWTrWtClQLV5-14" value="&lt;font style=&quot;font-size: 38px;&quot;&gt;Redis1&lt;/font&gt;" style="rounded=0;whiteSpace=wrap;html=1;fontSize=30;strokeWidth=4;fillColor=#f8cecc;strokeColor=#b85450;gradientColor=#ea6b66;" vertex="1" parent="1">
          <mxGeometry x="2697" y="6661" width="275.57" height="111" as="geometry" />
        </mxCell>
        <mxCell id="zO9z0KWeAWTrWtClQLV5-15" value="&lt;span style=&quot;color: rgb(0, 0, 0); font-family: Helvetica; font-size: 38px; font-style: normal; font-variant-ligatures: normal; font-variant-caps: normal; font-weight: 400; letter-spacing: normal; orphans: 2; text-align: center; text-indent: 0px; text-transform: none; widows: 2; word-spacing: 0px; -webkit-text-stroke-width: 0px; background-color: rgb(255, 255, 255); text-decoration-style: initial; text-decoration-color: initial; float: none; display: inline !important;&quot;&gt;4. 查房间状态信息&lt;/span&gt;" style="endArrow=classic;startArrow=classic;html=1;rounded=0;fontSize=38;strokeWidth=7;exitX=0;exitY=1;exitDx=0;exitDy=0;entryX=0.5;entryY=0;entryDx=0;entryDy=0;" edge="1" parent="1" source="zO9z0KWeAWTrWtClQLV5-4" target="zO9z0KWeAWTrWtClQLV5-13">
          <mxGeometry width="50" height="50" relative="1" as="geometry">
            <mxPoint x="1973.28" y="6872" as="sourcePoint" />
            <mxPoint x="1967" y="7156" as="targetPoint" />
          </mxGeometry>
        </mxCell>
        <mxCell id="zO9z0KWeAWTrWtClQLV5-16" value="" style="endArrow=classic;startArrow=classic;html=1;rounded=0;fontSize=38;strokeWidth=7;entryX=0;entryY=0.5;entryDx=0;entryDy=0;exitX=1;exitY=0.5;exitDx=0;exitDy=0;" edge="1" parent="1" source="zO9z0KWeAWTrWtClQLV5-4" target="zO9z0KWeAWTrWtClQLV5-14">
          <mxGeometry width="50" height="50" relative="1" as="geometry">
            <mxPoint x="2047.28" y="6554" as="sourcePoint" />
            <mxPoint x="2097.2799999999997" y="6504" as="targetPoint" />
          </mxGeometry>
        </mxCell>
        <mxCell id="zO9z0KWeAWTrWtClQLV5-47" value="&lt;span style=&quot;&quot;&gt;2. 查房间ID&amp;amp;流控IP&lt;/span&gt;" style="edgeLabel;html=1;align=center;verticalAlign=middle;resizable=0;points=[];fontSize=38;" vertex="1" connectable="0" parent="zO9z0KWeAWTrWtClQLV5-16">
          <mxGeometry x="-0.1939" y="-1" relative="1" as="geometry">
            <mxPoint x="65" y="-2" as="offset" />
          </mxGeometry>
        </mxCell>
        <mxCell id="zO9z0KWeAWTrWtClQLV5-20" style="edgeStyle=orthogonalEdgeStyle;rounded=0;orthogonalLoop=1;jettySize=auto;html=1;fontSize=38;strokeWidth=7;" edge="1" parent="1" source="zO9z0KWeAWTrWtClQLV5-21" target="zO9z0KWeAWTrWtClQLV5-14">
          <mxGeometry relative="1" as="geometry" />
        </mxCell>
        <mxCell id="zO9z0KWeAWTrWtClQLV5-21" value="&lt;font style=&quot;font-size: 38px;&quot;&gt;调度服务&lt;/font&gt;" style="rounded=0;whiteSpace=wrap;html=1;fontSize=30;strokeWidth=4;fillColor=#fff2cc;strokeColor=#d6b656;" vertex="1" parent="1">
          <mxGeometry x="3409.53" y="6666.5" width="275" height="100" as="geometry" />
        </mxCell>
        <mxCell id="zO9z0KWeAWTrWtClQLV5-36" style="edgeStyle=orthogonalEdgeStyle;rounded=0;orthogonalLoop=1;jettySize=auto;html=1;entryX=0;entryY=0.5;entryDx=0;entryDy=0;fontSize=38;strokeWidth=7;" edge="1" parent="1" source="zO9z0KWeAWTrWtClQLV5-23" target="zO9z0KWeAWTrWtClQLV5-35">
          <mxGeometry relative="1" as="geometry" />
        </mxCell>
        <mxCell id="zO9z0KWeAWTrWtClQLV5-43" value="&lt;span style=&quot;&quot;&gt;开房/关房&lt;/span&gt;" style="edgeLabel;html=1;align=center;verticalAlign=middle;resizable=0;points=[];fontSize=38;" vertex="1" connectable="0" parent="zO9z0KWeAWTrWtClQLV5-36">
          <mxGeometry x="-0.2108" y="-6" relative="1" as="geometry">
            <mxPoint x="33" y="-6" as="offset" />
          </mxGeometry>
        </mxCell>
        <mxCell id="zO9z0KWeAWTrWtClQLV5-23" value="&lt;font style=&quot;font-size: 38px;&quot;&gt;跑马灯&lt;/font&gt;" style="rounded=0;whiteSpace=wrap;html=1;fontSize=30;strokeWidth=4;fillColor=#e1d5e7;strokeColor=#9673a6;" vertex="1" parent="1">
          <mxGeometry x="1111.4999999999998" y="7404" width="278" height="95" as="geometry" />
        </mxCell>
        <mxCell id="zO9z0KWeAWTrWtClQLV5-53" style="edgeStyle=orthogonalEdgeStyle;rounded=0;orthogonalLoop=1;jettySize=auto;html=1;fontSize=38;strokeWidth=7;" edge="1" parent="1" source="zO9z0KWeAWTrWtClQLV5-26" target="zO9z0KWeAWTrWtClQLV5-50">
          <mxGeometry relative="1" as="geometry" />
        </mxCell>
        <mxCell id="zO9z0KWeAWTrWtClQLV5-26" value="&lt;span style=&quot;font-size: 38px;&quot;&gt;MsgAgent/&lt;/span&gt;&lt;br style=&quot;font-size: 38px;&quot;&gt;&lt;span style=&quot;font-size: 38px;&quot;&gt;SharpSvr/&lt;/span&gt;&lt;br style=&quot;font-size: 38px;&quot;&gt;&lt;span style=&quot;font-size: 38px;&quot;&gt;ImAgent&lt;/span&gt;" style="rounded=0;whiteSpace=wrap;html=1;fontSize=30;strokeWidth=4;fillColor=#e1d5e7;strokeColor=#9673a6;" vertex="1" parent="1">
          <mxGeometry x="702" y="6626.5" width="489" height="180" as="geometry" />
        </mxCell>
        <mxCell id="zO9z0KWeAWTrWtClQLV5-27" value="" style="endArrow=classic;html=1;rounded=0;fontSize=43;strokeWidth=7;exitX=0;exitY=0.5;exitDx=0;exitDy=0;entryX=1;entryY=0.5;entryDx=0;entryDy=0;" edge="1" parent="1" source="zO9z0KWeAWTrWtClQLV5-4" target="zO9z0KWeAWTrWtClQLV5-26">
          <mxGeometry width="50" height="50" relative="1" as="geometry">
            <mxPoint x="1934.28" y="7159" as="sourcePoint" />
            <mxPoint x="1984.28" y="7109" as="targetPoint" />
          </mxGeometry>
        </mxCell>
        <mxCell id="zO9z0KWeAWTrWtClQLV5-28" value="&lt;font style=&quot;font-size: 36px;&quot;&gt;&lt;span style=&quot;&quot;&gt;5.&lt;/span&gt;组包、下发S2C消息&lt;br&gt;&lt;/font&gt;" style="text;html=1;strokeColor=none;fillColor=none;align=center;verticalAlign=middle;whiteSpace=wrap;rounded=0;fontSize=38;" vertex="1" parent="1">
          <mxGeometry x="1263" y="6600" width="414" height="130" as="geometry" />
        </mxCell>
        <mxCell id="zO9z0KWeAWTrWtClQLV5-31" value="" style="endArrow=classic;startArrow=classic;html=1;rounded=0;fontSize=38;exitX=1;exitY=0;exitDx=0;exitDy=0;entryX=0.5;entryY=1;entryDx=0;entryDy=0;strokeWidth=7;" edge="1" parent="1" source="zO9z0KWeAWTrWtClQLV5-4" target="zO9z0KWeAWTrWtClQLV5-1">
          <mxGeometry width="50" height="50" relative="1" as="geometry">
            <mxPoint x="2404" y="6262" as="sourcePoint" />
            <mxPoint x="2454" y="6212" as="targetPoint" />
          </mxGeometry>
        </mxCell>
        <mxCell id="zO9z0KWeAWTrWtClQLV5-34" value="&lt;span style=&quot;&quot;&gt;1. 拉群列表(命令字+设备类型+信息)&lt;br&gt;&lt;/span&gt;&lt;span style=&quot;font-size: 36px;&quot;&gt;0x860 - PC/MQQ - 讨论组列表&lt;/span&gt;&lt;br style=&quot;font-size: 36px;&quot;&gt;&lt;span style=&quot;font-size: 36px;&quot;&gt;0x5d5 - PC/QQ - 群列表&lt;/span&gt;&lt;br style=&quot;font-size: 36px;&quot;&gt;&lt;span style=&quot;font-size: 36px;&quot;&gt;0x724 - 企业QQ - 多人会话列表&lt;/span&gt;&lt;br style=&quot;font-size: 36px;&quot;&gt;&lt;span style=&quot;font-size: 36px;&quot;&gt;0xa97 - 企业QQ - 组织列表&lt;/span&gt;&lt;br style=&quot;font-size: 36px;&quot;&gt;&lt;span style=&quot;font-size: 36px;&quot;&gt;0x911 - Qcall - 讨论组列表&lt;/span&gt;&lt;br style=&quot;font-size: 36px;&quot;&gt;" style="edgeLabel;html=1;align=center;verticalAlign=middle;resizable=0;points=[];fontSize=38;" vertex="1" connectable="0" parent="zO9z0KWeAWTrWtClQLV5-31">
          <mxGeometry x="-0.1675" y="1" relative="1" as="geometry">
            <mxPoint x="136" y="-53" as="offset" />
          </mxGeometry>
        </mxCell>
        <mxCell id="zO9z0KWeAWTrWtClQLV5-32" value="&lt;span style=&quot;color: rgb(0, 0, 0); font-family: Helvetica; font-size: 36px; font-style: normal; font-variant-ligatures: normal; font-variant-caps: normal; font-weight: 400; letter-spacing: normal; orphans: 2; text-align: center; text-indent: 0px; text-transform: none; widows: 2; word-spacing: 0px; -webkit-text-stroke-width: 0px; background-color: rgb(255, 255, 255); text-decoration-style: initial; text-decoration-color: initial; float: none; display: inline !important;&quot;&gt;0x207.0X95(PC/手机)&lt;/span&gt;&lt;br style=&quot;color: rgb(0, 0, 0); font-family: Helvetica; font-size: 36px; font-style: normal; font-variant-ligatures: normal; font-variant-caps: normal; font-weight: 400; letter-spacing: normal; orphans: 2; text-align: center; text-indent: 0px; text-transform: none; widows: 2; word-spacing: 0px; -webkit-text-stroke-width: 0px; background-color: rgb(255, 255, 255); text-decoration-style: initial; text-decoration-color: initial;&quot;&gt;" style="text;whiteSpace=wrap;html=1;fontSize=38;" vertex="1" parent="1">
          <mxGeometry x="1302" y="6689" width="497" height="113" as="geometry" />
        </mxCell>
        <mxCell id="zO9z0KWeAWTrWtClQLV5-37" style="edgeStyle=orthogonalEdgeStyle;rounded=0;orthogonalLoop=1;jettySize=auto;html=1;fontSize=38;strokeWidth=7;" edge="1" parent="1" source="zO9z0KWeAWTrWtClQLV5-35" target="zO9z0KWeAWTrWtClQLV5-11">
          <mxGeometry relative="1" as="geometry" />
        </mxCell>
        <mxCell id="zO9z0KWeAWTrWtClQLV5-44" value="全量的房间ID" style="edgeLabel;html=1;align=center;verticalAlign=middle;resizable=0;points=[];fontSize=38;" vertex="1" connectable="0" parent="zO9z0KWeAWTrWtClQLV5-37">
          <mxGeometry x="0.373" y="-6" relative="1" as="geometry">
            <mxPoint x="-59" y="-12" as="offset" />
          </mxGeometry>
        </mxCell>
        <mxCell id="zO9z0KWeAWTrWtClQLV5-35" value="&lt;font style=&quot;font-size: 43px;&quot;&gt;Room_state_write&lt;/font&gt;" style="rounded=0;whiteSpace=wrap;html=1;fontSize=30;strokeWidth=4;" vertex="1" parent="1">
          <mxGeometry x="1790" y="7404" width="414.47" height="95" as="geometry" />
        </mxCell>
        <mxCell id="zO9z0KWeAWTrWtClQLV5-42" style="edgeStyle=orthogonalEdgeStyle;rounded=0;orthogonalLoop=1;jettySize=auto;html=1;entryX=0.5;entryY=0;entryDx=0;entryDy=0;fontSize=38;strokeWidth=7;" edge="1" parent="1" source="zO9z0KWeAWTrWtClQLV5-38" target="zO9z0KWeAWTrWtClQLV5-11">
          <mxGeometry relative="1" as="geometry" />
        </mxCell>
        <mxCell id="zO9z0KWeAWTrWtClQLV5-45" value="查有音视频的群/讨论组房间ID" style="edgeLabel;html=1;align=center;verticalAlign=middle;resizable=0;points=[];fontSize=38;" vertex="1" connectable="0" parent="zO9z0KWeAWTrWtClQLV5-42">
          <mxGeometry x="-0.3224" y="-3" relative="1" as="geometry">
            <mxPoint y="38" as="offset" />
          </mxGeometry>
        </mxCell>
        <mxCell id="zO9z0KWeAWTrWtClQLV5-38" value="&lt;font style=&quot;font-size: 43px;&quot;&gt;Room_state_write&lt;/font&gt;" style="rounded=0;whiteSpace=wrap;html=1;fontSize=30;strokeWidth=4;" vertex="1" parent="1">
          <mxGeometry x="2502.8" y="7055" width="414.47" height="95" as="geometry" />
        </mxCell>
        <mxCell id="zO9z0KWeAWTrWtClQLV5-40" value="" style="endArrow=classic;startArrow=classic;html=1;rounded=0;fontSize=38;strokeWidth=7;exitX=1;exitY=1;exitDx=0;exitDy=0;entryX=0.5;entryY=0;entryDx=0;entryDy=0;" edge="1" parent="1" source="zO9z0KWeAWTrWtClQLV5-4" target="zO9z0KWeAWTrWtClQLV5-38">
          <mxGeometry width="50" height="50" relative="1" as="geometry">
            <mxPoint x="1766.48" y="6960" as="sourcePoint" />
            <mxPoint x="2197.0100000000007" y="7256" as="targetPoint" />
          </mxGeometry>
        </mxCell>
        <mxCell id="zO9z0KWeAWTrWtClQLV5-49" value="3. 查有音视频的群/讨论组列表" style="edgeLabel;html=1;align=center;verticalAlign=middle;resizable=0;points=[];fontSize=38;" vertex="1" connectable="0" parent="zO9z0KWeAWTrWtClQLV5-40">
          <mxGeometry x="-0.125" y="4" relative="1" as="geometry">
            <mxPoint as="offset" />
          </mxGeometry>
        </mxCell>
        <mxCell id="zO9z0KWeAWTrWtClQLV5-54" style="edgeStyle=orthogonalEdgeStyle;rounded=0;orthogonalLoop=1;jettySize=auto;html=1;fontSize=38;strokeWidth=7;" edge="1" parent="1" source="zO9z0KWeAWTrWtClQLV5-50" target="zO9z0KWeAWTrWtClQLV5-51">
          <mxGeometry relative="1" as="geometry" />
        </mxCell>
        <mxCell id="zO9z0KWeAWTrWtClQLV5-50" value="&lt;font style=&quot;font-size: 38px;&quot;&gt;TMB Server&lt;/font&gt;" style="rounded=0;whiteSpace=wrap;html=1;fontSize=30;strokeWidth=4;" vertex="1" parent="1">
          <mxGeometry x="702" y="6033" width="489" height="180" as="geometry" />
        </mxCell>
        <mxCell id="zO9z0KWeAWTrWtClQLV5-55" style="edgeStyle=orthogonalEdgeStyle;rounded=0;orthogonalLoop=1;jettySize=auto;html=1;entryX=0;entryY=0.75;entryDx=0;entryDy=0;fontSize=38;strokeWidth=7;" edge="1" parent="1" source="zO9z0KWeAWTrWtClQLV5-51" target="zO9z0KWeAWTrWtClQLV5-5">
          <mxGeometry relative="1" as="geometry" />
        </mxCell>
        <mxCell id="zO9z0KWeAWTrWtClQLV5-51" value="&lt;font style=&quot;font-size: 38px;&quot;&gt;MsgAgent/SharpSvr&lt;/font&gt;" style="rounded=0;whiteSpace=wrap;html=1;fontSize=30;strokeWidth=4;" vertex="1" parent="1">
          <mxGeometry x="702" y="5595" width="489" height="180" as="geometry" />
        </mxCell>
        <mxCell id="zO9z0KWeAWTrWtClQLV5-52" value="&lt;span style=&quot;color: rgb(0, 0, 0); font-family: Helvetica; font-size: 36px; font-style: normal; font-variant-ligatures: normal; font-variant-caps: normal; font-weight: 400; letter-spacing: normal; orphans: 2; text-align: center; text-indent: 0px; text-transform: none; widows: 2; word-spacing: 0px; -webkit-text-stroke-width: 0px; background-color: rgb(255, 255, 255); text-decoration-style: initial; text-decoration-color: initial; float: none; display: inline !important;&quot;&gt;0x207.0x91(手机并且带讨论组)&lt;/span&gt;" style="text;whiteSpace=wrap;html=1;fontSize=38;" vertex="1" parent="1">
          <mxGeometry x="1225.569951171875" y="6741.9998046875" width="527" height="68" as="geometry" />
        </mxCell>
        <mxCell id="zO9z0KWeAWTrWtClQLV5-56" value="&lt;font style=&quot;font-size: 38px;&quot;&gt;OIDB&lt;/font&gt;" style="rounded=0;whiteSpace=wrap;html=1;fontSize=30;strokeWidth=4;fillColor=#e1d5e7;strokeColor=#9673a6;" vertex="1" parent="1">
          <mxGeometry x="2625" y="8144" width="371" height="127" as="geometry" />
        </mxCell>
        <mxCell id="zO9z0KWeAWTrWtClQLV5-58" value="" style="shape=actor;whiteSpace=wrap;html=1;fontSize=38;strokeWidth=4;" vertex="1" parent="1">
          <mxGeometry x="1874" y="7755" width="114" height="156" as="geometry" />
        </mxCell>
        <mxCell id="zO9z0KWeAWTrWtClQLV5-59" style="edgeStyle=orthogonalEdgeStyle;rounded=0;orthogonalLoop=1;jettySize=auto;html=1;entryX=0.5;entryY=0;entryDx=0;entryDy=0;fontSize=38;strokeWidth=7;" edge="1" parent="1" source="zO9z0KWeAWTrWtClQLV5-58">
          <mxGeometry relative="1" as="geometry">
            <mxPoint x="1931" y="8167" as="targetPoint" />
          </mxGeometry>
        </mxCell>
        <mxCell id="zO9z0KWeAWTrWtClQLV5-60" value="&lt;font style=&quot;font-size: 38px;&quot;&gt;用户上线&lt;/font&gt;" style="edgeLabel;html=1;align=center;verticalAlign=middle;resizable=0;points=[];fontSize=30;" vertex="1" connectable="0" parent="zO9z0KWeAWTrWtClQLV5-59">
          <mxGeometry x="-0.2789" relative="1" as="geometry">
            <mxPoint x="2" y="37" as="offset" />
          </mxGeometry>
        </mxCell>
        <mxCell id="zO9z0KWeAWTrWtClQLV5-61" value="&lt;font style=&quot;font-size: 30px;&quot; color=&quot;#000000&quot;&gt;&lt;br&gt;&lt;/font&gt;" style="text;html=1;strokeColor=none;fillColor=none;align=center;verticalAlign=bottom;whiteSpace=wrap;rounded=0;dashed=1;labelBackgroundColor=none;fontSize=49;fontColor=#CC0000;spacing=0;" vertex="1" parent="1">
          <mxGeometry x="1313.28" y="8027" width="218" height="50" as="geometry" />
        </mxCell>
        <mxCell id="zO9z0KWeAWTrWtClQLV5-65" value="&lt;font style=&quot;font-size: 43px;&quot;&gt;Redis2&lt;/font&gt;" style="rounded=0;whiteSpace=wrap;html=1;fontSize=30;strokeWidth=4;fillColor=#f8cecc;gradientColor=#ea6b66;strokeColor=#b85450;" vertex="1" parent="1">
          <mxGeometry x="3167.0400000000013" y="9226" width="273" height="95" as="geometry" />
        </mxCell>
        <mxCell id="zO9z0KWeAWTrWtClQLV5-66" style="edgeStyle=orthogonalEdgeStyle;rounded=0;orthogonalLoop=1;jettySize=auto;html=1;fontSize=38;strokeWidth=7;" edge="1" parent="1" source="zO9z0KWeAWTrWtClQLV5-67" target="zO9z0KWeAWTrWtClQLV5-77">
          <mxGeometry relative="1" as="geometry" />
        </mxCell>
        <mxCell id="zO9z0KWeAWTrWtClQLV5-67" value="&lt;font style=&quot;font-size: 38px;&quot;&gt;多人流控&lt;/font&gt;" style="rounded=0;whiteSpace=wrap;html=1;fontSize=30;strokeWidth=4;" vertex="1" parent="1">
          <mxGeometry x="698.01" y="9230" width="273" height="95" as="geometry" />
        </mxCell>
        <mxCell id="zO9z0KWeAWTrWtClQLV5-75" style="edgeStyle=orthogonalEdgeStyle;rounded=0;orthogonalLoop=1;jettySize=auto;html=1;entryX=0;entryY=0.5;entryDx=0;entryDy=0;fontSize=38;strokeWidth=7;" edge="1" parent="1" source="zO9z0KWeAWTrWtClQLV5-77" target="zO9z0KWeAWTrWtClQLV5-87">
          <mxGeometry relative="1" as="geometry" />
        </mxCell>
        <mxCell id="zO9z0KWeAWTrWtClQLV5-101" value="旁路" style="edgeLabel;html=1;align=center;verticalAlign=middle;resizable=0;points=[];fontSize=38;" vertex="1" connectable="0" parent="zO9z0KWeAWTrWtClQLV5-75">
          <mxGeometry x="-0.1677" y="1" relative="1" as="geometry">
            <mxPoint x="1" as="offset" />
          </mxGeometry>
        </mxCell>
        <mxCell id="zO9z0KWeAWTrWtClQLV5-100" style="edgeStyle=orthogonalEdgeStyle;rounded=0;orthogonalLoop=1;jettySize=auto;html=1;entryX=0.5;entryY=0;entryDx=0;entryDy=0;fontSize=38;strokeWidth=7;" edge="1" parent="1" source="zO9z0KWeAWTrWtClQLV5-77" target="zO9z0KWeAWTrWtClQLV5-99">
          <mxGeometry relative="1" as="geometry" />
        </mxCell>
        <mxCell id="zO9z0KWeAWTrWtClQLV5-102" value="房间状态变化" style="edgeLabel;html=1;align=center;verticalAlign=middle;resizable=0;points=[];fontSize=38;" vertex="1" connectable="0" parent="zO9z0KWeAWTrWtClQLV5-100">
          <mxGeometry x="0.1481" relative="1" as="geometry">
            <mxPoint y="1" as="offset" />
          </mxGeometry>
        </mxCell>
        <mxCell id="zO9z0KWeAWTrWtClQLV5-77" value="&lt;font style=&quot;font-size: 38px;&quot;&gt;跑马灯&lt;/font&gt;" style="rounded=0;whiteSpace=wrap;html=1;fontSize=30;strokeWidth=4;fillColor=#e1d5e7;strokeColor=#9673a6;" vertex="1" parent="1">
          <mxGeometry x="1514.65" y="9230" width="278" height="95" as="geometry" />
        </mxCell>
        <mxCell id="zO9z0KWeAWTrWtClQLV5-78" style="edgeStyle=orthogonalEdgeStyle;rounded=0;orthogonalLoop=1;jettySize=auto;html=1;fontSize=38;strokeWidth=7;" edge="1" parent="1" source="zO9z0KWeAWTrWtClQLV5-79" target="zO9z0KWeAWTrWtClQLV5-94">
          <mxGeometry relative="1" as="geometry" />
        </mxCell>
        <mxCell id="zO9z0KWeAWTrWtClQLV5-79" value="&lt;font style=&quot;font-size: 38px;&quot;&gt;MsgAgent/SharpSvr&lt;br&gt;&lt;/font&gt;" style="rounded=0;whiteSpace=wrap;html=1;fontSize=30;strokeWidth=4;fillColor=#e1d5e7;strokeColor=#9673a6;" vertex="1" parent="1">
          <mxGeometry x="670" y="8812.5" width="489" height="180" as="geometry" />
        </mxCell>
        <mxCell id="zO9z0KWeAWTrWtClQLV5-80" value="" style="endArrow=classic;html=1;rounded=0;fontSize=43;strokeWidth=7;exitX=0;exitY=0.5;exitDx=0;exitDy=0;entryX=1;entryY=0.5;entryDx=0;entryDy=0;" edge="1" parent="1" target="zO9z0KWeAWTrWtClQLV5-79">
          <mxGeometry width="50" height="50" relative="1" as="geometry">
            <mxPoint x="1704.2800000000002" y="8905" as="sourcePoint" />
            <mxPoint x="1952.28" y="9295" as="targetPoint" />
          </mxGeometry>
        </mxCell>
        <mxCell id="zO9z0KWeAWTrWtClQLV5-81" value="&lt;font style=&quot;font-size: 36px;&quot;&gt;&lt;span style=&quot;&quot;&gt;3.&lt;/span&gt;组包、下发S2C消息&lt;br&gt;&lt;/font&gt;" style="text;html=1;strokeColor=none;fillColor=none;align=center;verticalAlign=middle;whiteSpace=wrap;rounded=0;fontSize=38;" vertex="1" parent="1">
          <mxGeometry x="1231" y="8786" width="414" height="130" as="geometry" />
        </mxCell>
        <mxCell id="zO9z0KWeAWTrWtClQLV5-82" value="" style="endArrow=classic;startArrow=classic;html=1;rounded=0;fontSize=38;exitX=1;exitY=0;exitDx=0;exitDy=0;entryX=0.5;entryY=1;entryDx=0;entryDy=0;strokeWidth=7;" edge="1" parent="1" target="zO9z0KWeAWTrWtClQLV5-56">
          <mxGeometry width="50" height="50" relative="1" as="geometry">
            <mxPoint x="2165.000000000001" y="8701" as="sourcePoint" />
            <mxPoint x="2422" y="8398" as="targetPoint" />
          </mxGeometry>
        </mxCell>
        <mxCell id="zO9z0KWeAWTrWtClQLV5-83" value="&lt;span style=&quot;&quot;&gt;1. 拉群列表(命令字+设备类型+信息)&lt;br&gt;&lt;/span&gt;&lt;span style=&quot;font-size: 36px;&quot;&gt;0x860 - PC/MQQ - 讨论组列表&lt;/span&gt;&lt;br style=&quot;font-size: 36px;&quot;&gt;&lt;span style=&quot;font-size: 36px;&quot;&gt;0x5d5 - PC/QQ - 群列表&lt;/span&gt;&lt;br style=&quot;font-size: 36px;&quot;&gt;" style="edgeLabel;html=1;align=center;verticalAlign=middle;resizable=0;points=[];fontSize=38;" vertex="1" connectable="0" parent="zO9z0KWeAWTrWtClQLV5-82">
          <mxGeometry x="-0.1675" y="1" relative="1" as="geometry">
            <mxPoint x="136" y="-53" as="offset" />
          </mxGeometry>
        </mxCell>
        <mxCell id="zO9z0KWeAWTrWtClQLV5-84" value="&lt;span style=&quot;color: rgb(0, 0, 0); font-family: Helvetica; font-size: 36px; font-style: normal; font-variant-ligatures: normal; font-variant-caps: normal; font-weight: 400; letter-spacing: normal; orphans: 2; text-align: center; text-indent: 0px; text-transform: none; widows: 2; word-spacing: 0px; -webkit-text-stroke-width: 0px; background-color: rgb(255, 255, 255); text-decoration-style: initial; text-decoration-color: initial; float: none; display: inline !important;&quot;&gt;0x207.0X95(PC/手机)&lt;/span&gt;&lt;br style=&quot;color: rgb(0, 0, 0); font-family: Helvetica; font-size: 36px; font-style: normal; font-variant-ligatures: normal; font-variant-caps: normal; font-weight: 400; letter-spacing: normal; orphans: 2; text-align: center; text-indent: 0px; text-transform: none; widows: 2; word-spacing: 0px; -webkit-text-stroke-width: 0px; background-color: rgb(255, 255, 255); text-decoration-style: initial; text-decoration-color: initial;&quot;&gt;" style="text;whiteSpace=wrap;html=1;fontSize=38;" vertex="1" parent="1">
          <mxGeometry x="1270" y="8875" width="497" height="113" as="geometry" />
        </mxCell>
        <mxCell id="zO9z0KWeAWTrWtClQLV5-85" style="edgeStyle=orthogonalEdgeStyle;rounded=0;orthogonalLoop=1;jettySize=auto;html=1;fontSize=38;strokeWidth=7;" edge="1" parent="1" source="zO9z0KWeAWTrWtClQLV5-87" target="zO9z0KWeAWTrWtClQLV5-65">
          <mxGeometry relative="1" as="geometry" />
        </mxCell>
        <mxCell id="zO9z0KWeAWTrWtClQLV5-98" value="同步房间状态信息" style="edgeLabel;html=1;align=center;verticalAlign=middle;resizable=0;points=[];fontSize=38;" vertex="1" connectable="0" parent="zO9z0KWeAWTrWtClQLV5-85">
          <mxGeometry x="-0.3333" y="-2" relative="1" as="geometry">
            <mxPoint x="62" y="-12" as="offset" />
          </mxGeometry>
        </mxCell>
        <mxCell id="zO9z0KWeAWTrWtClQLV5-87" value="&lt;font style=&quot;font-size: 43px;&quot;&gt;Room_state_write&lt;/font&gt;" style="rounded=0;whiteSpace=wrap;html=1;fontSize=30;strokeWidth=4;" vertex="1" parent="1">
          <mxGeometry x="2246.01" y="9233" width="414.47" height="95" as="geometry" />
        </mxCell>
        <mxCell id="zO9z0KWeAWTrWtClQLV5-88" style="edgeStyle=orthogonalEdgeStyle;rounded=0;orthogonalLoop=1;jettySize=auto;html=1;entryX=0.5;entryY=0;entryDx=0;entryDy=0;fontSize=38;strokeWidth=7;" edge="1" parent="1" source="zO9z0KWeAWTrWtClQLV5-90" target="zO9z0KWeAWTrWtClQLV5-65">
          <mxGeometry relative="1" as="geometry" />
        </mxCell>
        <mxCell id="zO9z0KWeAWTrWtClQLV5-89" value="查有音视频的群/讨论组房间状态信息" style="edgeLabel;html=1;align=center;verticalAlign=middle;resizable=0;points=[];fontSize=38;" vertex="1" connectable="0" parent="zO9z0KWeAWTrWtClQLV5-88">
          <mxGeometry x="-0.3224" y="-3" relative="1" as="geometry">
            <mxPoint x="-1" y="3" as="offset" />
          </mxGeometry>
        </mxCell>
        <mxCell id="zO9z0KWeAWTrWtClQLV5-90" value="&lt;font style=&quot;font-size: 43px;&quot;&gt;Room_state_write&lt;/font&gt;" style="rounded=0;whiteSpace=wrap;html=1;fontSize=30;strokeWidth=4;" vertex="1" parent="1">
          <mxGeometry x="3095.3" y="8855" width="414.47" height="95" as="geometry" />
        </mxCell>
        <mxCell id="zO9z0KWeAWTrWtClQLV5-91" value="" style="endArrow=classic;startArrow=classic;html=1;rounded=0;fontSize=38;strokeWidth=7;entryX=0;entryY=0.5;entryDx=0;entryDy=0;" edge="1" parent="1" source="zO9z0KWeAWTrWtClQLV5-104" target="zO9z0KWeAWTrWtClQLV5-90">
          <mxGeometry width="50" height="50" relative="1" as="geometry">
            <mxPoint x="1934.6400000000003" y="9109" as="sourcePoint" />
            <mxPoint x="2165.0100000000007" y="9500" as="targetPoint" />
          </mxGeometry>
        </mxCell>
        <mxCell id="zO9z0KWeAWTrWtClQLV5-92" value="2. 查音视频的群/讨论组房间信息" style="edgeLabel;html=1;align=center;verticalAlign=middle;resizable=0;points=[];fontSize=38;" vertex="1" connectable="0" parent="zO9z0KWeAWTrWtClQLV5-91">
          <mxGeometry x="-0.125" y="4" relative="1" as="geometry">
            <mxPoint y="5" as="offset" />
          </mxGeometry>
        </mxCell>
        <mxCell id="zO9z0KWeAWTrWtClQLV5-93" style="edgeStyle=orthogonalEdgeStyle;rounded=0;orthogonalLoop=1;jettySize=auto;html=1;fontSize=38;strokeWidth=7;" edge="1" parent="1" source="zO9z0KWeAWTrWtClQLV5-94" target="zO9z0KWeAWTrWtClQLV5-96">
          <mxGeometry relative="1" as="geometry" />
        </mxCell>
        <mxCell id="zO9z0KWeAWTrWtClQLV5-94" value="&lt;font style=&quot;font-size: 38px;&quot;&gt;TMB Server&lt;/font&gt;" style="rounded=0;whiteSpace=wrap;html=1;fontSize=30;strokeWidth=4;" vertex="1" parent="1">
          <mxGeometry x="670" y="8219" width="489" height="180" as="geometry" />
        </mxCell>
        <mxCell id="zO9z0KWeAWTrWtClQLV5-95" style="edgeStyle=orthogonalEdgeStyle;rounded=0;orthogonalLoop=1;jettySize=auto;html=1;entryX=0;entryY=0.75;entryDx=0;entryDy=0;fontSize=38;strokeWidth=7;" edge="1" parent="1" source="zO9z0KWeAWTrWtClQLV5-96" target="zO9z0KWeAWTrWtClQLV5-58">
          <mxGeometry relative="1" as="geometry" />
        </mxCell>
        <mxCell id="zO9z0KWeAWTrWtClQLV5-96" value="&lt;font style=&quot;font-size: 38px;&quot;&gt;MsgAgent/SharpSvr&lt;/font&gt;" style="rounded=0;whiteSpace=wrap;html=1;fontSize=30;strokeWidth=4;" vertex="1" parent="1">
          <mxGeometry x="670" y="7781" width="489" height="180" as="geometry" />
        </mxCell>
        <mxCell id="zO9z0KWeAWTrWtClQLV5-97" value="&lt;span style=&quot;color: rgb(0, 0, 0); font-family: Helvetica; font-size: 36px; font-style: normal; font-variant-ligatures: normal; font-variant-caps: normal; font-weight: 400; letter-spacing: normal; orphans: 2; text-align: center; text-indent: 0px; text-transform: none; widows: 2; word-spacing: 0px; -webkit-text-stroke-width: 0px; background-color: rgb(255, 255, 255); text-decoration-style: initial; text-decoration-color: initial; float: none; display: inline !important;&quot;&gt;0x207.0x91(手机并且带讨论组)&lt;/span&gt;" style="text;whiteSpace=wrap;html=1;fontSize=38;" vertex="1" parent="1">
          <mxGeometry x="1193.569951171875" y="8927.9998046875" width="527" height="68" as="geometry" />
        </mxCell>
        <mxCell id="zO9z0KWeAWTrWtClQLV5-99" value="&lt;font style=&quot;font-size: 43px;&quot;&gt;push 0x207.0x3d双人屏幕分享&lt;/font&gt;" style="rounded=0;whiteSpace=wrap;html=1;fontSize=30;strokeWidth=4;" vertex="1" parent="1">
          <mxGeometry x="1307" y="9613" width="697" height="129" as="geometry" />
        </mxCell>
        <mxCell id="zO9z0KWeAWTrWtClQLV5-111" style="edgeStyle=orthogonalEdgeStyle;rounded=0;orthogonalLoop=1;jettySize=auto;html=1;fontSize=38;strokeWidth=7;" edge="1" parent="1" source="zO9z0KWeAWTrWtClQLV5-103">
          <mxGeometry relative="1" as="geometry">
            <mxPoint x="1934.6400000000003" y="8315.999877929688" as="targetPoint" />
          </mxGeometry>
        </mxCell>
        <mxCell id="zO9z0KWeAWTrWtClQLV5-112" value="读取上线记录" style="edgeLabel;html=1;align=center;verticalAlign=middle;resizable=0;points=[];fontSize=38;" vertex="1" connectable="0" parent="zO9z0KWeAWTrWtClQLV5-111">
          <mxGeometry x="-0.2444" y="6" relative="1" as="geometry">
            <mxPoint x="6" y="-111" as="offset" />
          </mxGeometry>
        </mxCell>
        <mxCell id="zO9z0KWeAWTrWtClQLV5-113" style="edgeStyle=orthogonalEdgeStyle;rounded=0;orthogonalLoop=1;jettySize=auto;html=1;entryX=0.5;entryY=0;entryDx=0;entryDy=0;fontSize=38;strokeWidth=7;" edge="1" parent="1" source="zO9z0KWeAWTrWtClQLV5-103" target="zO9z0KWeAWTrWtClQLV5-109">
          <mxGeometry relative="1" as="geometry" />
        </mxCell>
        <mxCell id="zO9z0KWeAWTrWtClQLV5-114" value="&lt;font color=&quot;#ffffff&quot;&gt;用户Uin&lt;/font&gt;" style="edgeLabel;html=1;align=center;verticalAlign=middle;resizable=0;points=[];fontSize=38;labelBackgroundColor=none;" vertex="1" connectable="0" parent="zO9z0KWeAWTrWtClQLV5-113">
          <mxGeometry x="-0.3159" y="3" relative="1" as="geometry">
            <mxPoint x="-3" y="14" as="offset" />
          </mxGeometry>
        </mxCell>
        <mxCell id="zO9z0KWeAWTrWtClQLV5-103" value="&lt;font style=&quot;font-size: 38px;&quot;&gt;LoginQuery_Get&lt;/font&gt;" style="rounded=0;whiteSpace=wrap;html=1;fontSize=30;strokeWidth=4;fillColor=#cce5ff;strokeColor=#36393d;" vertex="1" parent="1">
          <mxGeometry x="1761.64" y="8748" width="346" height="108" as="geometry" />
        </mxCell>
        <mxCell id="zO9z0KWeAWTrWtClQLV5-108" style="edgeStyle=orthogonalEdgeStyle;rounded=0;orthogonalLoop=1;jettySize=auto;html=1;fontSize=38;strokeWidth=7;" edge="1" parent="1" source="zO9z0KWeAWTrWtClQLV5-105" target="zO9z0KWeAWTrWtClQLV5-4">
          <mxGeometry relative="1" as="geometry" />
        </mxCell>
        <mxCell id="zO9z0KWeAWTrWtClQLV5-105" value="&lt;font style=&quot;font-size: 38px;&quot;&gt;用户列表分发器&lt;/font&gt;" style="rounded=0;whiteSpace=wrap;html=1;fontSize=30;strokeWidth=4;fillColor=#e1d5e7;strokeColor=#9673a6;" vertex="1" parent="1">
          <mxGeometry x="1793.64" y="6252" width="346" height="141" as="geometry" />
        </mxCell>
        <mxCell id="zO9z0KWeAWTrWtClQLV5-106" style="edgeStyle=orthogonalEdgeStyle;rounded=0;orthogonalLoop=1;jettySize=auto;html=1;fontSize=38;strokeWidth=7;exitX=0.5;exitY=1;exitDx=0;exitDy=0;" edge="1" parent="1" source="zO9z0KWeAWTrWtClQLV5-10">
          <mxGeometry relative="1" as="geometry">
            <mxPoint x="1933" y="6113.000000000002" as="sourcePoint" />
            <mxPoint x="1967" y="6244" as="targetPoint" />
          </mxGeometry>
        </mxCell>
        <mxCell id="zO9z0KWeAWTrWtClQLV5-107" value="读取上线记录" style="edgeLabel;html=1;align=center;verticalAlign=middle;resizable=0;points=[];fontSize=38;" vertex="1" connectable="0" parent="zO9z0KWeAWTrWtClQLV5-106">
          <mxGeometry x="-0.0046" y="1" relative="1" as="geometry">
            <mxPoint y="-16" as="offset" />
          </mxGeometry>
        </mxCell>
        <mxCell id="zO9z0KWeAWTrWtClQLV5-109" value="&lt;font style=&quot;font-size: 38px;&quot;&gt;Push Server&lt;/font&gt;" style="rounded=0;whiteSpace=wrap;html=1;fontSize=30;strokeWidth=4;fillColor=#cce5ff;strokeColor=#36393d;" vertex="1" parent="1">
          <mxGeometry x="1764.5" y="8977" width="346" height="108" as="geometry" />
        </mxCell>
        <mxCell id="zO9z0KWeAWTrWtClQLV5-110" value="&lt;font style=&quot;font-size: 38px;&quot;&gt;上线队列服务器&lt;/font&gt;" style="rounded=0;whiteSpace=wrap;html=1;fontSize=30;strokeWidth=4;fillColor=#e1d5e7;strokeColor=#9673a6;" vertex="1" parent="1">
          <mxGeometry x="1758" y="8166" width="346" height="141" as="geometry" />
        </mxCell>
        <mxCell id="zO9z0KWeAWTrWtClQLV5-120" value="&lt;span style=&quot;color: rgb(0, 0, 0); font-family: Helvetica; font-size: 36px; font-style: normal; font-variant-ligatures: normal; font-variant-caps: normal; font-weight: 400; letter-spacing: normal; orphans: 2; text-indent: 0px; text-transform: none; widows: 2; word-spacing: 0px; -webkit-text-stroke-width: 0px; background-color: rgb(255, 255, 255); text-decoration-style: initial; text-decoration-color: initial; float: none; display: inline !important;&quot;&gt;0x207.0x95(Qcall)&lt;/span&gt;" style="text;whiteSpace=wrap;html=1;fontSize=38;align=center;" vertex="1" parent="1">
          <mxGeometry x="1224.999951171875" y="6799.999804687501" width="527" height="68" as="geometry" />
        </mxCell>
      </root>
    </mxGraphModel>
  </diagram>
</mxfile>
